<?xml version="1.0" encoding="UTF-8"?><svg id="_圖層_2" xmlns="http://www.w3.org/2000/svg" viewBox="0 0 155.5 253.97"><defs><style>.cls-1{fill:#fff9d2;}.cls-2{fill:#c2976d;}.cls-3{fill:#e43d34;}.cls-4{fill:#2b80c3;}.cls-5{fill:#4d1221;}</style></defs><g id="Isolation_Mode"><path class="cls-2" d="M118.88,241.19c-1.58,2.71-5.72,4.11-8.43,5.24-2.96,1.23-6.75,2.84-9.88,1.57-2.24-.9-3.57-2.96-4.54-5.13,3.04-1.77,6-3.76,8.89-4.8,1.7-.62,3.72-1.06,5.7-1.65,.94,.65,2.17,.93,3.52,.46,3.1-1.07,6.83,.71,4.74,4.31Z"/><path class="cls-2" d="M26.96,246.85c-1.53-1.18-3.04-3.2-4.21-4.73-2.07-2.71-5.59-8.62-2.75-11.69,2.37,3.14,5.65,6.04,7.17,7.97,.85,1.07,1.69,2.38,2.63,3.59,0,.56,.13,1.15,.48,1.78,1.77,3.15-.16,5.52-3.32,3.09Z"/><g><path class="cls-5" d="M.39,176.96c2.86,10.61,17.6,5.91,24.76,3.77,4.13-1.24,8.16-2.73,12.12-4.38-.58,9.42-1.89,19.65,.13,28.78-.25,.12-.51,.26-.75,.43-6.45,4.65-15.31,9.08-18.82,16.59-2.99,6.4-2.24,13.95,.02,20.44,2.07,5.93,6.73,11.91,13.69,11.34,3.08-.25,5.85-1.85,7.76-4.26,1.76-2.22,1.86-4.4,2.49-6.74,3.83-1.72,8.01-2.76,11.78-4.7,3.65-1.88,7.09-4.12,10.39-6.57,.23,.12,.46,.24,.69,.36,6.6,3.42,13.33,6.66,20.57,8.45,4.03,1,6.21,1.93,9.16,5.06,1.98,2.1,4.12,3.96,6.87,4.95,5.89,2.12,12.21,.57,17.61-2.15,5.01-2.51,10.64-5.98,12.32-11.69,1.45-4.96-.52-10.63-5.54-12.59-1.68-.65-3.96-.26-5.48-.99-1.47-.69-1.53-1.69-2.15-3.22-1.25-3.07-2.7-6.06-4.33-8.94-2.12-3.75-4.55-7.3-7.22-10.66,3.28-5.7,5.53-11.73,6.52-18.26,.91-6-.14-13.85,5.63-17.62,5.64-3.68,11.95-6.3,17.57-10.12,5.15-3.48,10.03-7.34,13.88-12.26,3.12-3.98,6.34-9.58,5.2-14.85-1.09-5.05-6.24-7.71-11.11-6.78-.94,.18-1.84,.47-2.69,.86-1.84,.82-3.49,2.06-5.03,3.45-.48,.43-.95,.87-1.41,1.32-1.49,1.46-2.9,3-4.3,4.37-1.58,1.51-3.18,2.96-4.85,4.26-3.71,2.89-7.8,5.03-12.77,5.48-.15,0-.29,.03-.43,.06-.56,.1-1.03,.32-1.4,.61-1.06,.83-1.32,2.3-.94,3.66,.32,1.1,1.07,2.13,2.17,2.66,.6,.29,1.31,.43,2.1,.36,7.97-.72,14.02-5.12,19.59-10.23h0c1.83-1.68,3.61-3.42,5.4-5.14,.21-.21,.43-.42,.64-.63,1.36-1.3,5.86-5.87,7.65-2.81,1.18,2.01-2.14,6.49-3.15,7.93-3.04,4.27-7.22,7.63-11.47,10.62-5.06,3.56-10.46,6.41-15.92,9.28-3.89,2.05-7.16,4.51-9.01,8.61-1.99,4.43-2.06,9.38-2.58,14.13-.58,5.33-2.15,10.37-4.59,15.09-3.34-2.46-8.21,2.12-5.07,5.45,5.05,5.36,9.36,11.27,12.67,17.87,2.47,4.92,3.14,11.67,9.36,12.8,1.43,.25,4.72-.04,5.72,1.37,1.36,1.91-.68,4.46-1.91,5.7-2.07,2.09-5.14,3.61-7.81,4.78-3.79,1.66-8.56,2.77-12.21,.13-2.53-1.82-4.13-4.65-6.76-6.4-2.51-1.68-5.44-2.08-8.31-2.83-3.85-1.01-7.57-2.43-11.18-4.06-6.75-3.03-13.62-6.51-19.82-10.56-6.5-4.25-10.97-9.67-11.75-17.58-.79-8.06,.23-16.49,.71-24.55,.07-1.27-.41-2.25-1.15-2.9,4.45-2.05,8.84-4.26,13.21-6.48,4.3-2.19,.96-8.92-3.36-6.72-7.74,3.95-15.52,7.87-23.67,10.94-4.13,1.55-8.36,2.85-12.68,3.79-2.83,.62-11.34,3.05-9.11-2.68,1.32-3.4,5.15-5.84,7.96-7.96,3.65-2.76,7.45-5.33,11.39-7.7,7.01-4.23,14.4-7.77,22.02-10.74,.35-.14,.66-.3,.92-.49,.86-.64,1.22-1.55,1.2-2.48-.03-2.34-2.46-4.84-5.37-3.78-.04,0-.07,.01-.11,.03-1.54,.6-3.06,1.23-4.58,1.88-9.06,3.87-17.67,8.65-25.79,14.28-6.66,4.62-17.92,11.78-15.29,21.55Zm39.51,35.42c1.46,2.95,3.47,5.69,6.22,8.16,3.15,2.83,6.73,5.11,10.43,7.19-4.97,3.32-10.34,5.99-16.05,7.84-2.3,.74-4.53,1.29-5.46,3.78-.91,2.43-.25,6.44-3.78,7.11-7.45,1.4-8.58-15-7.37-19.2,1.89-6.6,10.18-11.02,16-14.88Z"/><path class="cls-2" d="M31.26,246.46c3.53-.67,2.87-4.68,3.78-7.11,.93-2.49,3.16-3.04,5.46-3.78,5.71-1.85,11.08-4.51,16.05-7.84-3.7-2.08-7.28-4.35-10.43-7.19-2.75-2.47-4.76-5.21-6.22-8.16-5.82,3.86-14.11,8.28-16,14.88-1.21,4.2-.08,20.6,7.37,19.2Z"/><path class="cls-2" d="M17.16,175.05c4.31-.94,8.55-2.23,12.68-3.79,8.14-3.07,15.93-6.99,23.67-10.94,4.32-2.2,7.66,4.53,3.36,6.72-4.37,2.23-8.76,4.43-13.21,6.48,.74,.65,1.22,1.62,1.15,2.9-.48,8.06-1.5,16.49-.71,24.55,.79,7.92,5.26,13.34,11.75,17.58,6.2,4.05,13.06,7.53,19.82,10.56,3.62,1.63,7.34,3.05,11.18,4.06,2.87,.75,5.8,1.15,8.31,2.83,2.63,1.75,4.23,4.58,6.76,6.4,3.66,2.64,8.42,1.53,12.21-.13,2.67-1.17,5.75-2.68,7.81-4.78,1.23-1.24,3.27-3.78,1.91-5.7-1.01-1.41-4.29-1.12-5.72-1.37-6.22-1.12-6.89-7.88-9.36-12.8-3.31-6.6-7.62-12.51-12.67-17.87-3.14-3.33,1.73-7.91,5.07-5.45,2.45-4.72,4.02-9.77,4.59-15.09,.52-4.75,.59-9.7,2.58-14.13,1.85-4.1,5.13-6.56,9.01-8.61,5.46-2.87,10.86-5.71,15.92-9.28,4.25-3,8.43-6.35,11.47-10.62,1.02-1.44,4.33-5.93,3.15-7.93-1.79-3.06-6.3,1.51-7.65,2.81-.21,.2-.43,.41-.64,.63-.51,.77-1.08,1.47-1.72,2.14-1.07,1.11-2.32,2.11-3.68,3h0c-5.58,5.11-11.62,9.51-19.59,10.23-.79,.07-1.5-.07-2.1-.36-3.4,1.43-6.7,2.74-10.05,3.77-2.26,.69-4.52,1.25-6.85,1.66-4.08,.69-8.34,.88-13.02,.34-10.89-1.27-22.03-3.19-32.25-7.38-.26,.19-.57,.36-.92,.49-7.63,2.97-15.01,6.51-22.02,10.74-3.94,2.37-7.74,4.94-11.39,7.7-2.8,2.12-6.63,4.56-7.96,7.96-2.23,5.72,6.28,3.3,9.11,2.68Z"/><path class="cls-5" d="M16.04,157.23c6.17,5.46,11.42,11.65,15.63,18.74,1.01,1.7,2.64,2.3,4.41,1.87-.26,2.01-.54,4.02-.8,6.03-.38,2.88-1.3,6.11-.93,9,.13,1.01,.52,1.88,1.06,2.66-.01,.16-.03,.32-.02,.49,.14,2.58,.51,5.12,1.08,7.59-.21,.11-.43,.22-.63,.36-2.67,1.89-7.8,4.15-8.93,7.47-1.05,3.05,1.64,5.4,3.36,7.47,5.57,6.75,10.23,14.11,14.13,21.94,.91,1.83,3.22,2.57,5.05,1.68,4.93-2.41,9.87-4.83,14.8-7.25,.22-.11,.41-.24,.6-.37,1.72,.97,3.43,1.94,5.1,2.91,3.2,1.89,5.98,3.07,9.09,.33,3.62-3.2,6.3-6.97,10.38-9.74,4.02-2.73,8.47-4.8,12.96-6.62,4.71-1.91,10.3-4.76,15.43-4.91,2.97-.08,4.72-2.64,3.61-5.43-1.76-4.42-3.96-8.52-6.53-12.47,.5-.42,.94-.92,1.32-1.53,1.43-2.39,1.3-5.85,1.39-8.54,.12-3.44,0-6.91,.24-10.35,.34-4.95,.7-8.28,5.35-10.59,5.99-2.98,11.64-6.54,17.02-10.52,2.15-1.59,1.29-4.5-.37-5.93-4.95-4.29-8.6-9.83-10.62-16.05-.6-1.86-2.19-2.7-3.76-2.75-.78-.22-1.67-.14-2.61,.42-3.86,2.29-7.8,4.37-11.91,6.15-3.03,1.31-8.35,2.08-10.36,4.89-1.92,2.69-.24,6.19-2.12,9.11-2.26,3.5-7.33,5.7-11.25,3.76-3.86-1.9-1.97-5.51-4.23-8.28-2.05-2.54-6.34-2.31-9.23-2.71-8.78-1.24-17.46-3.09-24.97-8.02-1.87-1.22-3.75-.56-4.86,.77-.28,.06-.56,.14-.85,.26-8.73,3.89-17.36,8-25.87,12.33-1.93,.98-3.01,4.19-1.14,5.83Zm37.82,61.62c-5.54-4.72-9.26-11.47-10.53-18.62,1.86,.59,3.69,1.04,5.12,1.47,13.19,4,27.06,5.24,40.78,3.89,6.32-.62,12.56-1.87,18.64-3.7,1.81,2.61,3.37,5.37,4.75,8.22-6.38,1.38-12.89,4.44-18.46,7.06-6.62,3.11-15.11,7.81-19.07,14.25-.17,.12-.32,.22-.44,.32-.72-.61-2.15-1.17-2.82-1.57-2.09-1.26-4.18-2.5-6.27-3.76-3.95-2.37-8.16-4.57-11.67-7.57Zm-14.99-7.99c1.51,3.46,3.53,6.7,6.07,9.65,3.4,3.94,7.67,7.08,12.19,9.89-2.57,1.26-5.14,2.51-7.71,3.78-2-3.73-4.17-7.36-6.54-10.88-1.58-2.33-3.22-4.62-4.96-6.85-.65-.83-1.32-1.67-1.99-2.48-.13-.15-.34-.45-.58-.79,1.1-.82,2.34-1.58,3.52-2.31Zm-13.54-55.14c6.96-3.46,13.99-6.77,21.1-9.93,.13-.05,.22-.13,.33-.19,4.3,2.5,8.91,4.32,13.76,5.55,2.64,.67,5.31,1.2,7.99,1.65,2.19,.38,6.11,.16,8.49,1.02,.88,3.32,1.29,6.1,4.61,8.62,3.64,2.77,8.49,3.37,12.86,2.25,4.13-1.07,7.83-3.65,10.21-7.21,1.13-1.69,1.89-3.58,2.29-5.56,.17-.86,.12-2.16,.14-3.16,2.8-1.29,5.9-2.16,8.7-3.44,2.64-1.2,5.2-2.52,7.72-3.93,2.08,4.76,4.86,8.97,8.39,12.75-4.1,2.78-8.35,5.26-12.81,7.45-4.83,2.36-6.84,5.1-7.97,10.41-1.27,5.99-.75,12.08-1.11,18.14-.04,.86-.11,1.72-.21,2.57,.17,.94-.28,1.33-1.37,1.16-1.31,.75-3.27,1.01-4.69,1.4-2.62,.71-5.29,1.32-7.97,1.81-12.17,2.22-24.85,2.1-36.97-.45-2.93-.62-5.83-1.39-8.68-2.28-1.81-.56-7.18-1.51-8.25-3.19-.78-1.24,1.05-7.93,1.23-9.36l1.24-9.36c.41-3.1-2.99-4.52-5.43-3.6-.78,.29-1.55,.58-2.33,.87-3.27-5.07-7.02-9.74-11.28-14Z"/><path class="cls-1" d="M35.35,213.17c.24,.34,.45,.64,.58,.79,.67,.82,1.34,1.65,1.99,2.48,1.74,2.22,3.38,4.51,4.96,6.85,2.37,3.52,4.54,7.15,6.54,10.88,2.57-1.26,5.14-2.51,7.71-3.78-4.52-2.81-8.79-5.95-12.19-9.89-2.54-2.94-4.55-6.19-6.07-9.65-1.18,.73-2.42,1.49-3.52,2.31Z"/><path class="cls-1" d="M43.33,200.23c1.27,7.15,4.99,13.9,10.53,18.62,3.51,3,7.72,5.2,11.67,7.57,2.09,1.26,4.18,2.5,6.27,3.76,.67,.4,2.1,.96,2.82,1.57,.13-.1,.28-.2,.44-.32,3.96-6.45,12.45-11.14,19.07-14.25,5.57-2.62,12.08-5.68,18.46-7.06-1.37-2.86-2.93-5.61-4.75-8.22-6.08,1.83-12.32,3.08-18.64,3.7-13.71,1.35-27.58,.11-40.78-3.89-1.43-.43-3.25-.88-5.12-1.47Z"/><path class="cls-4" d="M25.33,155.73c4.26,4.26,8,8.93,11.28,14,.78-.29,1.55-.58,2.33-.87,2.44-.92,5.84,.51,5.43,3.6l-1.24,9.36c-.19,1.43-2.02,8.12-1.23,9.36,1.07,1.69,6.44,2.63,8.25,3.19,2.86,.89,5.75,1.67,8.68,2.28,12.12,2.55,24.8,2.67,36.97,.45,2.68-.49,5.34-1.1,7.97-1.81,1.43-.4,3.38-.65,4.69-1.4,1.09,.17,1.55-.22,1.37-1.16,.09-.85,.17-1.71,.21-2.57,.36-6.06-.15-12.15,1.11-18.14,1.13-5.31,3.13-8.05,7.97-10.41,4.46-2.19,8.72-4.67,12.81-7.45-3.53-3.78-6.32-8-8.39-12.75-2.52,1.42-5.08,2.73-7.72,3.93-2.8,1.27-5.9,2.14-8.7,3.44-.02,1.01,.03,2.3-.14,3.16-.4,1.98-1.17,3.87-2.29,5.56-2.38,3.55-6.09,6.14-10.21,7.21-4.36,1.12-9.22,.52-12.86-2.25-3.32-2.52-3.73-5.3-4.61-8.62-2.39-.86-6.31-.64-8.49-1.02-2.68-.46-5.35-.98-7.99-1.65-4.85-1.23-9.46-3.05-13.76-5.55-.12,.06-.21,.14-.33,.19-7.1,3.17-14.13,6.48-21.1,9.93Z"/></g><g><path class="cls-5" d="M33.95,214.98c3.63-1.81,3.85-6.45,5.02-9.94,1.65-4.93,3.94-9.5,6.67-13.87,28.06-2.37,54.03-19.25,67.82-44.83,2.28-4.22-3.88-8.21-6.15-3.99-13.01,24.15-37.83,40.31-64.59,41.52-.39,.02-.75,.11-1.08,.22-.51-.35-1.14-.58-1.91-.6-4.69-.08-13.98-.89-17.34,3.39-1.81,2.31-2.56,5.81-3.56,8.54l-3.74,10.33c-.32,.86-.32,1.65-.09,2.32-.26,.44-.44,.96-.5,1.57-1.05,9.05,14.53,7.77,19.44,5.33Zm-12.25-6.32c.12-.21,.24-.43,.34-.69l5.07-14.01c1.06-2.92,1.73-2.35,5.01-2.69,1.71-.18,3.41-.26,5.13-.27-1.95,3.54-3.64,7.24-4.97,11.08-.52,1.48-.87,3.03-1.39,4.5-.58,1.61-.2,1.2-1.56,1.89-1.57,.8-5.07,.83-7.59,.38,0-.07-.02-.12-.04-.19Z"/><path class="cls-3" d="M21.71,208.66c.02,.07,.03,.12,.04,.19,2.52,.45,6.02,.41,7.59-.38,1.36-.69,.98-.28,1.56-1.89,.53-1.47,.88-3.03,1.39-4.5,1.33-3.84,3.02-7.54,4.97-11.08-1.72,.01-3.42,.09-5.13,.27-3.28,.34-3.94-.23-5.01,2.69l-5.07,14.01c-.1,.26-.21,.48-.34,.69Z"/></g><path class="cls-5" d="M141.76,125.88c.13-1.58,.02-3.09-.27-4.55,0-.05-.02-.09-.03-.13-1.74-7.85-9.45-13.49-16.41-16.84-6.36-3.05-13.75-5.21-18.66-10.59-2.33-2.55-3.99-5.88-3.79-9.42,.25-4.32,3.73-6.03,6.04-9.17,5.15-6.94-.44-13.2-7.7-11.55h0c-.39,.03-.8,.14-1.22,.35-.29,.09-.55,.22-.74,.36,0,0-.03,.01-.05,.02-.56,.29-1.18,.56-1.83,.87,0,0,0,.01-.02,.01h-.01c-1.82,.8-3.87,1.58-5.69,1.9h0c-3.07,.55-5.5-.17-5.15-4.13h0c.05-.66,.17-1.37,.38-2.2,1.25-5.02,4.66-9.44,6.93-14.03,.57-1.16,1.17-2.38,1.73-3.63,.01-.02,0-.04,.02-.06h0s0-.04,0-.04c1.73-4.06,2.9-8.53,1.23-12.72-1.61-4.05-5.87-7.39-10.37-6.84-4.87,.6-6.71,4.89-7.82,9.07-.35,1.26-.29,2.79-1.03,3.9-.23,2.17-1.52,2.42-3.86,.74-.15-.6-.32-1.19-.47-1.78-.01,0-.01-.02-.02-.03,0,0-.01,0-.01-.02t0-.04c-.1-.35-.22-.74-.31-1.12-.13-.64-.21-1.28-.28-1.94h0s0-.02,0-.04c-.28-3.03,.07-6.14,.18-9.17C72.95,13.56,70.43-.02,58.17,0c-10.12,0-11.77,11-10.68,18.85,.82,5.87,2.48,11.7,4.53,17.26,1.09,3.01,2.46,5.91,3.77,8.84,.79,1.79,3.12,5.55,1.87,7.65-1.48,2.5-4.52,.95-5.72-.45-2.88-3.38-5.27-7.47-7.51-11.59-.01-.02-.03-.03-.04-.06-.01-.02-.03-.06-.04-.07-1.65-3.04-3.23-6.11-4.89-8.92-1.32-2.23-2.59-4.81-3.98-7.3-.01,0-.01-.02-.02-.03h0c-1.56-2.77-3.28-5.41-5.49-7.36-6.46-5.68-15.73-.57-16.98,7.26-.76,4.81,1.14,9.53,3.9,13.4,1.66,2.31,3.66,4.33,5.51,6.47,1.34,1.52,3.44,3.99,3.87,5.83h0c.33,1.49-.44,2.55-3.59,2.42l-.31-.02s0,0-.02,0c-3.42-.28-6.37-2.11-9.87-.52-3.21,1.42-4.83,4.79-4.48,8.21,1.1,11.07,16.9,10.94,24.96,11.34,2.02,.1,4.73-.36,6.69,.16,1.87,.49,2.63,.01,1.03,1.26-.15,.13-.31,.24-.5,.32,0,.01-.03,.02-.04,.02,0,.02-.01,.02-.01,.02,0,0,0,0-.02,.01-.3,.16-.64,.31-1.01,.46,0,0-.03,0-.04,.02-.02,0-.06,.02-.09,.03-1.97,.74-4.68,1.29-6.07,1.96-3.94,1.93-8.53,4.61-10.73,8.55-2.69,4.82-.87,11.1-.25,16.23,.62,5.13,.98,10.41,1.75,15.54,.27,1.77,.58,3.52,1,5.23,1.78,7.54,6.75,13.22,12.83,17.54,.3,.22,.61,.43,.9,.63,.99,.68,2.02,1.32,3.05,1.92,1.49,.87,3.01,1.69,4.54,2.43,.4,.2,.79,.38,1.2,.56,1.03,.48,2.07,.94,3.12,1.35,10.22,4.18,21.36,6.1,32.25,7.38,4.68,.54,8.93,.34,13.02-.34,2.32-.41,4.59-.97,6.85-1.66,3.35-1.03,6.66-2.34,10.05-3.77,2.22-.95,4.48-1.95,6.83-2.97,3.84-1.67,8.63-3.31,12.84-5.66,.49-.28,.97-.57,1.45-.87,.2-.12,.38-.24,.58-.37h.02c1.36-.9,2.61-1.9,3.68-3.01,.64-.67,1.21-1.37,1.72-2.14,1.16-1.77,1.95-3.8,2.16-6.19Zm-7.59,2.46c-.8,1.46-2.14,2.84-4.14,4.04-.02,.02-.05,.02-.07,.04-1.32,.78-2.69,1.5-4.09,2.18-4.29,2.06-8.88,3.69-13.2,5.54-.11,.05-.22,.09-.32,.14-.36,.16-.72,.31-1.07,.47-6.39,2.84-12.89,6.14-20,6.38-6.21,.22-12.68-1.02-18.79-2.08-8.46-1.46-17.14-3.69-24.84-7.67,0,0-.01,0-.02-.01-.2-.09-.4-.2-.58-.31h-.01c-2.77-1.46-5.4-3.16-7.85-5.11-.74-.61-1.43-1.22-2.05-1.89h-.02s-.01-.01-.01-.01h-.01c-1.59-1.64-2.88-3.44-3.9-5.39-.02-.03-.04-.06-.04-.08,0,0-.02-.03-.02-.04-4.52-8.55-4.27-19.47-5.46-29.11-.6-4.91-.94-7.97,3.16-11.45,2.69-2.28,6.68-3.91,10.01-4.92,2.89-.87,6.27-1.14,8.07-3.87,5.11-7.7-5.99-10.01-10.99-10.11-3.36-.07-6.7-.26-10.03-.56-2.56-.24-7.35-.15-9.53-1.5-1.81-1.1-4.6-5.24-1.68-5.74,.74-.13,1.8,.32,2.53,.47,1.58,.34,3.18,.89,4.82,1.03,6.98,.56,10.79-5.61,8.11-11.95-1.94-4.64-6.12-7.9-9.18-11.78-2-2.55-4.36-6.18-3.85-9.62,.54-3.66,4.23-5.05,7.35-3.27,.93,.54,2.44,3.82,2.87,4.55,3.47,5.68,6.81,11.47,10.2,17.19,2.7,4.54,5.08,9.93,8.87,13.69,4.72,4.7,12.2,4.44,14.89-2.21,1.69-4.13,.36-8.3-1.36-12.2-2.38-5.34-4.71-10.51-6.26-16.17-1.25-4.62-4.56-14.45-1.11-18.79,2.8-3.53,7.2-1.36,9.39,1.38,2.18,2.71,2.38,6.63,2.39,9.95,.04,7.53-2.37,18.6,4.06,24.42,5.74,5.22,11.84-1.3,13.34-6.98,.36-1.37,.37-4.25,1.31-5.39,.18-.18,.33-.36,.5-.51h.02s0-.01,0-.01c1.07-.97,2.09-.86,2.92-.23h.01c.58,.45,1.07,1.14,1.41,1.92,1.73,3.94-.1,7.25-1.85,10.88-1.73,3.54-3.87,6.86-5.56,10.44-2.76,5.8-4.82,14.39,1.77,18.59,5.72,3.65,12.84-.38,18.08-2.98,0-.01,0-.01,0-.01h0s.04-.03,.06-.05c.84,1.44,.78,2.57-.16,3.39h0c-.26,.22-.54,.41-.92,.58-.48,.51-.97,.98-1.45,1.48-.61,.7-1.02,1.16-1.56,2.07-1.07,1.77-1.67,3.78-1.91,5.81-.49,4.2,.66,8.48,2.96,12,6.62,10.14,18.9,11.47,28.21,17.9,4.68,3.25,8.25,8.41,7.4,13.09-.14,.82-.42,1.6-.85,2.37Zm-21.51,11.8c.13-.03,.27-.05,.42-.06,4.97-.46,9.06-2.6,12.77-5.49-4.29,2.06-8.88,3.69-13.2,5.54Z"/><path class="cls-2" d="M135.02,125.97c-.14,.82-.42,1.6-.85,2.37-.8,1.46-2.14,2.84-4.14,4.04-.02,.02-.05,.02-.07,.04-1.32,.78-2.69,1.5-4.09,2.18-4.29,2.06-8.88,3.69-13.2,5.54-.11,.05-.22,.09-.32,.14-.36,.16-.72,.31-1.07,.47-6.39,2.84-12.89,6.14-20,6.38-6.21,.22-12.68-1.02-18.79-2.08-8.46-1.46-17.14-3.69-24.84-7.67,0,0-.01,0-.02-.01-.2-.09-.4-.2-.58-.31h-.01c-2.77-1.46-5.4-3.16-7.85-5.11-.74-.61-1.43-1.22-2.05-1.89h-.02s-.01-.01-.01-.01h-.01c-1.59-1.64-2.88-3.44-3.9-5.39-.02-.03-.04-.06-.04-.08,0,0-.02-.03-.02-.04-4.52-8.55-4.27-19.47-5.46-29.11-.6-4.91-.94-7.97,3.16-11.45,2.69-2.28,6.68-3.91,10.01-4.92,2.89-.87,6.27-1.14,8.07-3.87,5.11-7.7-5.99-10.01-10.99-10.11-3.36-.07-6.7-.26-10.03-.56-2.56-.24-7.35-.15-9.53-1.5-1.81-1.1-4.6-5.24-1.68-5.74,.74-.13,1.8,.32,2.53,.47,1.58,.34,3.18,.89,4.82,1.03,6.98,.56,10.79-5.61,8.11-11.95-1.94-4.64-6.12-7.9-9.18-11.78-2-2.55-4.36-6.18-3.85-9.62,.54-3.66,4.23-5.05,7.35-3.27,.93,.54,2.44,3.82,2.87,4.55,3.47,5.68,6.81,11.47,10.2,17.19,2.7,4.54,5.08,9.93,8.87,13.69,4.72,4.7,12.2,4.44,14.89-2.21,1.69-4.13,.36-8.3-1.36-12.2-2.38-5.34-4.71-10.51-6.26-16.17-1.25-4.62-4.56-14.45-1.11-18.79,2.8-3.53,7.2-1.36,9.39,1.38,2.18,2.71,2.38,6.63,2.39,9.95,.04,7.53-2.37,18.6,4.06,24.42,5.74,5.22,11.84-1.3,13.34-6.98,.36-1.37,.37-4.25,1.31-5.39,.18-.18,.33-.36,.5-.51h.02s0-.01,0-.01c1.07-.97,2.09-.86,2.92-.23h.01c.58,.45,1.07,1.14,1.41,1.92,1.73,3.94-.1,7.25-1.85,10.88-1.73,3.54-3.87,6.86-5.56,10.44-2.76,5.8-4.82,14.39,1.77,18.59,5.72,3.65,12.84-.38,18.08-2.98,0-.01,0-.01,0-.01h0s.04-.03,.06-.05c.84,1.44,.78,2.57-.16,3.39h0c-.26,.22-.54,.41-.92,.58-.48,.51-.97,.98-1.45,1.48-.61,.7-1.02,1.16-1.56,2.07-1.07,1.77-1.67,3.78-1.91,5.81-.49,4.2,.66,8.48,2.96,12,6.62,10.14,18.9,11.47,28.21,17.9,4.68,3.25,8.25,8.41,7.4,13.09Z"/><path class="cls-5" d="M96.23,119.81c-4.7,5.44-12.11,6.77-18.4,3.26-3.53-1.97,.08-7.13,3.59-5.17,3.06,1.71,7.35,.98,9.65-1.68,2.62-3.03,7.82,.52,5.17,3.59h0Z"/><path class="cls-5" d="M63.54,102.55c-.12,1.54,1.03,2.88,2.57,3,1.54,.12,2.88-1.03,3-2.57,.12-1.54-1.03-2.88-2.57-3-1.54-.12-2.88,1.03-3,2.57Z"/><path class="cls-5" d="M79.52,101.27c-.12,1.54,1.03,2.88,2.57,3,1.54,.12,2.88-1.03,3-2.57,.12-1.54-1.03-2.88-2.57-3-1.54-.12-2.88,1.03-3,2.57Z"/></g></svg>