<?xml version="1.0" encoding="UTF-8"?><svg id="_圖層_2" xmlns="http://www.w3.org/2000/svg" viewBox="0 0 145.91 289.13"><defs><style>.cls-1{fill:#fac324;}.cls-2{fill:#fff;}.cls-3{fill:#fff9d2;}.cls-4{fill:#987f72;}.cls-5{fill:#bf5724;}.cls-6{fill:#4d1221;}.cls-7{fill:#497140;}</style></defs><g id="_圖層_2-2"><path class="cls-6" d="M145.66,121.26c1.3-8.11-2.53-19.84-13.32-17.3-4.54,1.07-7.79,4.74-9.61,8.74-.13,.28-.25,.58-.36,.88-1.96,5-2.02,11.16-6.11,15.06-2.46,2.35-.11,6.08,2.48,5.78,.57-.06,1.16-.33,1.71-.86,2.54-2.42,4.21-5.2,5.33-8.48,1.31-3.83,1.63-8.35,4-11.76,2.84-4.09,8.02-4.22,9.43,.93,1.17,4.31-.64,9.81-1.68,13.99-3.81,15.23-11.79,30.51-27.26,36.7-1.98-6.11-4.38-12.09-7.14-17.91,0,0-.01-.03-.02-.04-1.74-3.58-7.43-1.11-6.05,2.49,.02,.09,.06,.17,.11,.26,3.36,7.06,6.19,14.35,8.3,21.86,1.03,3.65,1.92,7.34,2.63,11.07,.41,2.15,1.24,4.78,0,6.83-.92,1.54-3.07,2.36-4.62,3.11-.12,.06-.21,.13-.32,.2-16.49,7.8-35.48,9.02-52.85,3.22,.65-.46,1.13-1.17,1.23-2.19,1.15-12.31-.59-24.55-5.08-36.04-.59-1.51-1.23-3.02-1.92-4.51-.61-1.31-1.72-1.81-2.85-1.78-1.01-.52-2.27-.53-3.41,.4-1.51,1.23-2.83,2.56-4,3.99-6.41,7.78-8.31,18.11-11.75,27.46-2.66,7.25-6.18,13.98-9.97,20.72-2.65,4.72-5.12,9.71-4.63,15.22,.41,4.61,3.1,8.74,7.79,10.13,5.67,1.68,11.69-1.56,15.86-5.05,.32-.26,.63-.55,.94-.82-1.01,2.57-2,5.15-2.93,7.74-1.39,3.85-4.57,10.22,.84,12.62,.97,.43,2.05,.53,3.14,.47-.59,3.29-1.25,6.57-2.29,9.75-1.43,4.41-3.82,8.05-6.23,11.98-4.1,6.67-4.88,14.02-1.7,21.21,1.19,2.7,4.92,2.15,6.05-.22,1.8-3.75,6.26-5.26,7.6-9.52,1.47-4.67,.28-10.65-.74-15.28-.12-.53-.34-.97-.61-1.32,2.49-5.47,3.67-11.42,4.7-17.31,1.75-.16,3.5-.24,5.25-.15-.74,7.99-.78,16.04-.02,24.05,.6,6.38,2.57,14.77,10.38,15.95,7.31,1.11,11.47-5.49,13.77-11.15,3.18-7.81,5.33-15.99,6.63-24.28,3.01-.46,5.98-1.23,8.85-2.29,.06-.02,.12-.04,.17-.06l-1.11,9.49c-.42,3.54-1.43,7.53-.79,11.09,.92,5.06,6.05,7.89,11.08,7.32,6.14-.69,9.99-5.78,12.71-10.7,3.62-6.55,5.78-13.64,6.7-21.01,6.39-3.19,10.82-9.24,12.23-16.62,2.46-12.89-4.57-24.52-11.39-34.98,.01-.04,.03-.08,.05-.13,1.28-4.48-.49-9.81-1.53-14.19-.39-1.63-.82-3.27-1.26-4.88,20.83-7.59,30.36-29.83,33.55-49.84ZM30.27,216.84c-2.84,2.87-9.1,8.8-13.65,6.05-3.99-2.4-1.79-8.69-.35-11.87,2.26-4.95,5.37-9.52,7.75-14.42,2.4-4.92,4.44-10.01,6.15-15.21,2.49-7.61,4.32-16.07,9.82-22.17,4.15,10.2,5.9,21.03,5.18,32.01-.07,.12-.15,.25-.21,.4-3.49,9.02-7.72,18.17-14.69,25.21Zm-.46,60.53c-.57,.76-1.2,1.41-1.85,2.03-.18-2.04,.03-4.12,.74-6.13,.55-1.53,1.35-2.96,2.23-4.35,.47,3.09,.51,6.31-1.12,8.45Zm36.13-13.6c-1.14,3.46-3.94,15.15-9.58,13.24-5.27-1.78-4.58-12.99-4.73-17.19-.18-5.08,.02-10.17,.47-15.22,4.99,1.3,9.79,3.33,15.04,3.78,.85,.07,1.7,.11,2.54,.13-.87,5.16-2.08,10.26-3.75,15.26Zm37.58-7.86c-1.6,3.67-3.86,8.82-7.76,10.74-1.39,.69-3.7,1.1-4.99-.1-1.72-1.61-.53-5.61-.3-7.57l1.76-15.03c1.12-.12,2.29-.16,3.58-.07,3.2,.22,6.32,.68,9.55,.42,.57-.05,1.12-.12,1.67-.21-.7,4.07-1.85,8.01-3.52,11.83Zm7.19-60.09c6.01,9.31,12.19,20.29,8.25,31.41-2.11,5.97-7.05,9.85-13.49,10.63-6.47,.78-12.52-1.45-18.92,.61-6.88,2.22-12.82,4.32-20.23,3.39-6.64-.83-12.61-4.14-19.33-4.66-2.96-.23-5.94-.03-8.9,.27-.65,.06-3.48,.07-4.05,.6,.21-1.04,1.35-3.49,1.47-3.8,2.23-6.25,4.71-12.42,7.37-18.52,.22-.29,.4-.64,.52-1.08,1.14-4.38,2.37-8.75,5.09-12.48,19.53,6.4,41.16,4.83,59.46-4.54,.29-.14,.53-.32,.75-.5,.7-.41,1.38-.84,2.03-1.31Z"/><path class="cls-4" d="M107.04,244.09c-.7,4.07-1.85,8.01-3.52,11.83-1.6,3.67-3.86,8.82-7.76,10.74-1.39,.69-3.7,1.1-4.99-.1-1.72-1.61-.53-5.61-.3-7.57l1.76-15.03c1.12-.12,2.29-.16,3.58-.07,3.2,.22,6.32,.68,9.55,.42,.57-.05,1.12-.12,1.67-.21Z"/><path class="cls-4" d="M69.69,248.51c-.87,5.16-2.08,10.26-3.75,15.26-1.14,3.46-3.94,15.15-9.58,13.24-5.27-1.78-4.58-12.99-4.73-17.19-.18-5.08,.02-10.17,.47-15.22,4.99,1.3,9.79,3.33,15.04,3.78,.85,.07,1.7,.11,2.54,.13Z"/><path class="cls-4" d="M29.81,277.37c-.57,.76-1.2,1.41-1.85,2.03-.18-2.04,.03-4.12,.74-6.13,.55-1.53,1.35-2.96,2.23-4.35,.47,3.09,.51,6.31-1.12,8.45Z"/><path class="cls-4" d="M45.17,191.23c-.07,.12-.15,.25-.21,.4-3.49,9.02-7.72,18.17-14.69,25.21-2.84,2.87-9.1,8.8-13.65,6.05-3.99-2.4-1.79-8.69-.35-11.87,2.26-4.95,5.37-9.52,7.75-14.42,2.4-4.92,4.44-10.01,6.15-15.21,2.49-7.61,4.32-16.07,9.82-22.17,4.15,10.2,5.9,21.03,5.18,32.01Z"/><path class="cls-3" d="M118.97,227.24c-2.11,5.97-7.05,9.85-13.49,10.63-6.47,.78-12.52-1.45-18.92,.61-6.88,2.22-12.82,4.32-20.23,3.39-6.64-.83-12.61-4.14-19.33-4.66-2.96-.23-5.94-.03-8.9,.27-.65,.06-3.48,.07-4.05,.6,.21-1.04,1.35-3.49,1.47-3.8,2.23-6.25,4.71-12.42,7.37-18.52,.22-.29,.4-.64,.52-1.08,1.14-4.38,2.37-8.75,5.09-12.48,19.53,6.4,41.16,4.83,59.46-4.54,.29-.14,.53-.32,.75-.5,.7-.41,1.38-.84,2.03-1.31,6.01,9.31,12.19,20.29,8.25,31.41Z"/><path class="cls-6" d="M122.37,113.58c-.95-6.58-3.37-13.25-6.7-18.31-2.23-3.39-5.13-5.73-8.42-7.35-.8-13.06-6.83-24.83-11.77-36.74-1.51-3.66-.58-6.24,.06-10.02,.57-3.39,.98-6.79,1.22-10.21,.43-6.04,.76-12.65-.72-18.58-1.18-4.75-3.83-8.98-8.35-11.13-4.56-2.17-9.84-1.54-13.27,2.32-3.67,4.11-3.91,10.09-4.04,15.31-.13,5.35-.75,10.41-2.41,15.31-.97-4.07-.97-8.2-1.68-12.32-.39-2.2-1.7-4.03-4.17-3.91-3.62,.17-5.08,4.55-7.98,5.95-2.76,1.32-5.42-2.18-8.45-1.62-3.27,.61-3.99,4.28-5.45,6.94-3.73-1.44-9.78-5.64-11.36-.09-.09,.26-.12,.52-.13,.78-.33,1.54-.65,3.19-.92,4.89-4.17-5.17-9.19-9.77-15.91-10.69-9.7-1.33-14.35,7.95-10.67,16.13,4.47,9.96,14.75,16.96,15.54,28.61,.4,5.83-1.73,11.62-2.52,17.36-.81,5.94-.81,10.04-.38,13.65,.21,1.77,1.54,6.17,1.54,6.17-7.52,11.37-6.73,28.44,1.76,39.05,4.46,5.58,10.45,8.96,17.11,10.82,3.88,1.1,8,1.69,12.18,1.91,9.34,.5,19-.83,27.1-2.38,7-1.35,15.51-3.05,23.48-5.94,2.07-.74,4.09-1.57,6.05-2.49,6.43-3.02,12.06-7.04,15.63-12.58,1.94-2.99,3.27-6.42,3.79-10.37,.44-3.28,.36-6.86-.16-10.47ZM34.69,33.51c1.34,.63,2.98,1.6,3.55,1.81,1.45,.56,2.99,1.23,4.56,.63,2.62-1.02,3.35-4.53,4.73-6.95,2.46,.7,4.87,2.88,7.63,2.2,1.39-.35,2.49-1.58,3.48-2.52,.57-.54,1.13-1.08,1.69-1.63,.02,.82,.04,1.55,.08,1.83,.28,2.45,.64,4.9,1.27,7.28,.5,1.91,1.2,3.73,1.95,5.55,.64,1.57,1.46,4.6,.96,6.23-1.94-.8-3.86-1.98-5.92-1.88-1.14,.06-1.82,.47-2.67,1.18-.68,.55-1.59,2.62-2.31,2.81-1.71,.44-3.55-1.97-5.68-1.36-2.23,.65-2.91,2.88-4.04,4.67-.23-.03-.46-.07-.7-.12-.19-.04-.39-.08-.58-.13-.1-.03-.2-.05-.31-.08-.13-.04-.26-.08-.4-.12-.13-.04-.26-.08-.38-.13-.24-.07-.48-.17-.71-.26-.16-.06-.32-.12-.47-.2-.28-.13-.57-.27-.85-.41-.16-.08-.33-.17-.49-.27-.11-.06-.21-.12-.32-.19-.13-.08-.26-.16-.39-.25-1.08-.69-2.05-1.51-2.78-2.42-.1-.12-.19-.23-.28-.36-.1-.13-.2-.27-.28-.41-.26-.4-.46-.82-.61-1.24-.06-.15-.11-.32-.16-.48-.01-.05-.02-.1-.03-.14-.06-.2-.11-.39-.14-.59-.06-.25-.11-.49-.15-.73-.03-.14-.05-.26-.06-.39-.05-.28-.07-.55-.09-.84-.03-.31-.05-.63-.06-.95-.01-.27-.02-.54-.01-.81,0-.15,0-.31,0-.46,0-.23,.01-.46,.02-.69,.02-.31,.03-.62,.06-.93,.16-2.13,.52-4.28,.9-6.23Zm-12.29,30.05c-.08-.33-.16-.65-.26-.98-.06-.22-.13-.44-.2-.66-.07-.22-.14-.44-.21-.67-.14-.44-.31-.87-.47-1.31-.16-.44-.34-.87-.53-1.3-.08-.22-.18-.43-.28-.64-.21-.48-.44-.96-.68-1.44-.21-.43-.43-.85-.66-1.28-.05-.09-.1-.18-.15-.27-.23-.4-.45-.81-.69-1.2-.01-.03-.03-.05-.04-.07-.27-.47-.56-.93-.85-1.39-.06-.1-.14-.2-.21-.31-.1-.15-.22-.32-.35-.5-.23-.31-.49-.64-.76-1-.47-.61-1.02-1.3-1.61-2.05-.34-.42-.69-.87-1.05-1.33-.69-.88-1.4-1.81-2.09-2.77-.22-.3-.44-.61-.66-.92-.76-1.07-1.48-2.16-2.1-3.24-.21-.36-.41-.71-.59-1.07-.28-.53-.53-1.05-.75-1.56-.14-.34-.27-.67-.38-1-.18-.51-.32-1.02-.38-1.49-.03-.19-.06-.38-.07-.56-.01-.1-.01-.19-.01-.28,0-.12,0-.22,0-.32,0,0,0,0,0,0,.01-.26,.04-.52,.1-.76,.03-.13,.07-.26,.11-.39,.01-.03,.02-.06,.03-.1,.02-.06,.05-.12,.08-.17,.04-.1,.09-.2,.15-.29,.05-.09,.11-.19,.18-.27,.01-.03,.04-.06,.07-.09,.16-.2,.35-.39,.57-.56,.06-.05,.11-.09,.17-.12,.06-.04,.12-.08,.19-.12,.03-.01,.04-.03,.07-.04,.09-.06,.18-.1,.27-.15,.09-.05,.17-.09,.27-.12,.26-.11,.53-.18,.81-.24,.13-.02,.25-.04,.38-.06,.13-.01,.25-.02,.37-.02,.18,0,.37,0,.55,0,.18,.01,.37,.03,.56,.07h.11c.12,.04,.25,.06,.38,.09,.13,.03,.25,.06,.38,.09,.51,.14,1.03,.34,1.54,.56,.28,.13,.54,.25,.81,.4,.27,.14,.52,.29,.78,.44,.35,.2,.68,.42,1.01,.64,.16,.11,.32,.22,.48,.33,.31,.22,.61,.44,.89,.67,.42,.33,.81,.65,1.14,.95,3.04,2.7,5.46,6.07,7.79,9.37,.15,.21,.31,.4,.48,.55,.1,.09,.19,.18,.29,.25h0c.03,.23,.06,.47,.08,.7,.1,.69,.24,1.37,.42,2.03,.04,.16,.09,.32,.14,.49,.04,.15,.08,.31,.14,.45,.07,.21,.15,.43,.22,.64,.06,.15,.12,.31,.18,.46,0,.03,.01,.04,.03,.06,.07,.16,.13,.31,.2,.46,.13,.28,.27,.55,.42,.81h0s0,.03,.01,.03c.06,.12,.13,.24,.2,.36,.06,.11,.13,.22,.2,.32,.09,.13,.17,.27,.26,.39,.61,.91,1.35,1.75,2.24,2.51,.52,.44,1.06,.87,1.63,1.27,.16,.12,.32,.23,.49,.34,.32,.22,.66,.43,1,.64,.12,.08,.26,.16,.39,.23,.3,.18,.61,.34,.91,.51,.22,.12,.44,.23,.66,.33,.04,.02,.08,.04,.12,.06,.19,.09,.39,.18,.58,.27h0c.71,.32,1.44,.6,2.18,.84,.48,.16,.97,.3,1.46,.42,.24,.06,.49,.11,.73,.17,.25,.06,.49,.1,.74,.14,.48,.08,.91,.13,1.31,.14,.14,0,.27,0,.4,0,.11,0,.21-.01,.31-.02,.2-.01,.38-.03,.56-.07,.28-.05,.53-.13,.77-.22l.18-.08c.28-.14,.53-.29,.77-.48,.13-.1,.25-.22,.37-.34,.09-.09,.18-.19,.27-.29,.03-.03,.06-.06,.08-.09,.11-.13,.23-.27,.33-.42,.11-.15,.22-.31,.32-.46,.09-.13,.19-.28,.28-.42,.34-.52,.7-1.08,1.13-1.65,1.79,.58,3.38,2.04,5.58,1.35,.36-.11,.68-.26,.97-.44,.1-.06,.19-.12,.29-.19,.4-.28,.76-.62,1.09-1,.13-.15,.26-.3,.39-.46,.24-.3,.47-.61,.7-.92,.19-.26,.39-.53,.59-.78,1.08,.37,2.14,.94,3.19,1.37,.06,.02,.12,.05,.17,.07,.64,.26,1.28,.45,1.92,.51,.12,.01,.25,.02,.37,.02,.09,0,.19,0,.28,0,.1,0,.21-.01,.31-.03,.02,0,.04-.01,.07,0,.09-.02,.19-.04,.3-.06,.22-.05,.45-.13,.68-.22,.22-.09,.45-.22,.68-.37,.14-.09,.28-.19,.39-.3,1.03-.84,1.8-2.18,2.35-3.61,.06-.16,.12-.32,.17-.49,.18-.53,.33-1.07,.44-1.61,.04-.18,.08-.35,.1-.53,.1-.52,.16-1.02,.19-1.48,.07-1.04-.04-2.05-.26-3.02,.2-.22,.37-.46,.53-.76,.27-.56,.54-1.12,.79-1.69,.19-.42,.38-.84,.55-1.27,.22-.49,.42-.99,.62-1.5,.2-.5,.38-1,.57-1.51,.2-.57,.4-1.16,.59-1.74,.18-.58,.36-1.18,.52-1.76h0c.33-1.2,.61-2.4,.84-3.61,.06-.31,.11-.62,.16-.93,.84-5,.3-10.09,1.04-15.08,.41-2.74,1.43-6.4,4.67-6.76,.5-.06,1-.04,1.48,.05,.11,.02,.23,.05,.33,.08,.27,.06,.53,.15,.79,.26,.13,.05,.25,.11,.37,.17,.11,.05,.22,.11,.32,.17,.23,.13,.47,.28,.68,.44,.53,.38,1.01,.83,1.43,1.31,.2,.22,.38,.44,.54,.68,.1,.13,.19,.28,.29,.42,.11,.17,.21,.34,.31,.52,.06,.1,.11,.19,.16,.3,.19,.36,.36,.72,.51,1.1,.09,.21,.17,.41,.24,.63,.1,.3,.19,.61,.29,.91,.04,.15,.08,.31,.12,.47,.04,.15,.08,.31,.12,.47,.11,.47,.2,.95,.26,1.44,.02,.12,.03,.23,.05,.35,.18,1.34,.25,2.73,.27,4.09,0,.34,0,.69,0,1.03,0,.34-.01,.67-.01,1.01,0,.25,0,.5-.01,.73,0,.69-.02,1.34-.03,2-.1,6.04-.74,12.06-1.92,17.99-.27,1.4-.64,2.77-.71,4.17-.02,.34-.03,.67,0,.99,0,.04,0,.09,.01,.13,0,.09,.01,.19,.02,.28,.02,.21,.05,.43,.09,.64,.18,1,.51,1.97,.89,2.93,.18,.43,.36,.86,.56,1.29,.31,.71,.65,1.42,.95,2.11,4.1,9.57,8.98,19.43,10.17,29.88-.49-.1-.99-.2-1.49-.28-.44-.08-.89-.15-1.34-.21-.52-.08-1.04-.14-1.56-.19-1.51-.16-3.02-.24-4.55-.27-1.61-.03-3.22-.04-4.83-.01-1.61,.03-3.22,.08-4.84,.15-1.62,.08-3.23,.18-4.85,.3-.84,.07-1.68,.14-2.52,.22-.45,.04-.89,.08-1.34,.13-.52,.05-1.03,.1-1.55,.16-.51,.05-1.02,.11-1.52,.17-.77,.09-1.55,.19-2.31,.29-.95,.12-1.89,.26-2.84,.39-1.01,.15-2.01,.3-3,.47-.78,.12-1.55,.25-2.33,.39-.39,.06-.76,.13-1.14,.2-.83,.14-1.66,.31-2.49,.47-.99,.19-1.97,.39-2.95,.59-1.14,.25-2.31,.49-3.48,.73h0c-1.17,.26-2.37,.51-3.57,.78-1.8,.41-3.62,.84-5.43,1.31-2.42,.64-4.83,1.36-7.18,2.2-1.18,.42-2.33,.87-3.46,1.36-1.7,.73-3.35,1.55-4.93,2.46-.23,.07-.47,.17-.7,.3-.35,.19-.68,.39-1.02,.6-.26,.16-.5,.32-.75,.49-.23,.16-.46,.32-.69,.48-.23,.17-.46,.34-.69,.52-.22,.17-.45,.35-.67,.53-.59-8.8,1.31-16.86,2.56-25.6,.16-1.1,.24-2.18,.27-3.24,0-.13,0-.26,0-.39,.01-.59,0-1.18-.03-1.76,0-.15-.01-.3-.02-.44,0-.06,0-.12,0-.17-.02-.22-.03-.44-.05-.67,0-.02,0-.06,0-.09-.04-.41-.09-.82-.14-1.22-.05-.38-.11-.75-.18-1.12-.06-.37-.13-.74-.21-1.1,0-.03-.01-.05-.02-.07-.07-.33-.15-.65-.23-.97Zm85.45,73c-7.14,5.49-16.69,7.81-25.25,10.05-15.75,4.12-35.78,8.11-51.32,1.1-8.6-3.88-13.72-11.91-14.34-21.26-.48-7.11,1.43-14.82,6.46-19.86,.17-.11,.34-.22,.5-.37,6.6-5.81,16.37-7.8,24.7-9.85,9.16-2.25,18.53-3.8,27.93-4.56,8.09-.64,17.41-1.7,25.27,.85,8.87,2.88,11.93,12.21,13.65,20.56,1.89,9.09-.05,17.51-7.61,23.32Z"/><path class="cls-4" d="M137.53,128.25c-3.81,15.23-11.79,30.51-27.26,36.7-1.98-6.11-4.38-12.09-7.14-17.91,0,0-.01-.03-.02-.04,6.43-3.02,12.06-7.04,15.63-12.58,.57-.06,1.16-.33,1.71-.86,2.54-2.42,4.21-5.2,5.33-8.48,1.31-3.83,1.63-8.35,4-11.76,2.84-4.09,8.02-4.22,9.43,.93,1.17,4.31-.64,9.81-1.68,13.99Z"/><path class="cls-1" d="M108.11,189.5c-.92,1.54-3.07,2.36-4.62,3.11-.12,.06-.21,.13-.32,.2-16.49,7.8-35.48,9.02-52.85,3.22,.65-.46,1.13-1.17,1.23-2.19,1.15-12.31-.59-24.55-5.08-36.04,9.34,.5,19-.83,27.1-2.38,7-1.35,15.51-3.05,23.48-5.94,.02,.09,.06,.17,.11,.26,3.36,7.06,6.19,14.35,8.3,21.86,1.03,3.65,1.92,7.34,2.63,11.07,.41,2.15,1.24,4.78,0,6.83Z"/><path class="cls-2" d="M107.86,136.56c-7.14,5.49-16.69,7.81-25.25,10.05-15.75,4.13-35.78,8.12-51.32,1.11-8.6-3.88-13.72-11.91-14.34-21.26-.48-7.12,1.42-14.82,6.46-19.86,.17-.11,.34-.22,.5-.36,6.6-5.81,16.37-7.8,24.69-9.85,9.17-2.25,18.53-3.81,27.94-4.56,8.08-.65,17.4-1.7,25.27,.85,8.87,2.88,11.92,12.21,13.65,20.57,1.89,9.09-.05,17.51-7.61,23.32Z"/><path class="cls-4" d="M100.5,85.64c-2.9-.61-5.92-.89-8.94-.95-12.86-.25-25.94,1.3-38.52,3.94-9.13,1.91-19.65,3.98-28.05,8.84-.23,.07-.47,.17-.71,.3-1.38,.76-2.65,1.65-3.82,2.63-.59-8.81,1.31-16.86,2.55-25.6,.5-3.53,.33-6.93-.38-10.2,0-.02,0-.04-.01-.07-.92-4.27-2.76-8.33-5.24-12.2-1.57-2.47-7.88-9.3-10.18-14.76-.28-.67-.5-1.33-.65-1.95-.31-1.31-.28-2.48,.27-3.4,.26-.45,.65-.85,1.18-1.17,.03-.02,.04-.02,.07-.04,3.38-1.99,8.31,1.52,10.73,3.67,3.04,2.71,5.46,6.07,7.79,9.37,.23,.33,.49,.59,.77,.8,.43,3.72,1.77,7.16,4.76,9.72,3.03,2.6,6.95,4.57,10.89,5.22,4.58,.75,5.01-1.64,7.08-4.41,1.79,.58,3.38,2.03,5.58,1.35,1.89-.58,2.86-2.32,4.03-3.8,2.67,.91,5.23,3.08,7.97,1.28,2.3-1.52,3.48-5.4,3.64-8.01,.06-1.04-.05-2.04-.26-3.02,.2-.22,.38-.46,.52-.76,2.2-4.48,3.82-9.08,4.65-14.02,.84-5.01,.3-10.09,1.04-15.09,.41-2.74,1.43-6.4,4.67-6.76,1.1-.12,2.15,.14,3.1,.64,.3,.16,.6,.35,.87,.55,.53,.38,1.01,.83,1.42,1.31,.32,.35,.59,.72,.83,1.09,2.21,3.45,2.38,8.12,2.33,12.33h0c-.01,.94-.03,1.85-.05,2.72-.1,6.05-.74,12.06-1.91,17.99-.27,1.4-.64,2.77-.72,4.17-.02,.34-.03,.67,0,.99,0,.14,.02,.27,.03,.41,.26,2.44,1.54,4.75,2.5,6.97,4.1,9.57,8.98,19.42,10.17,29.88Z"/><path class="cls-2" d="M22.64,64.6s0-.04-.01-.07c-.92-4.27-2.76-8.33-5.24-12.2-1.57-2.47-7.88-9.3-10.18-14.76,.1-.08,.2-.15,.31-.22,.02,0,.03-.02,.06-.03,.31,.11,.63,.27,.96,.49,1.34,.94,2.31,2.03,3.1,3.2,.32,.18,.63,.43,.91,.77,2.58,3.03,18.35,19.51,10.09,22.82Z"/><path class="cls-2" d="M87.81,47.38c-.02,.34-.03,.67,0,.99-.65,.45-1.39,.73-2.23,.79-7.03,.47-2.61-10.38-1.76-13.45,.88-3.2,1.77-6.41,2.69-9.59,.49-1.67,1.07-3.19,2.38-4.17,.22-.17,.46-.32,.73-.45,.34,.3,.62,.64,.87,1,0,0,0,0,0,0h0c-.01,.94-.03,1.85-.05,2.72-.1,6.05-.74,12.06-1.91,17.99-.27,1.4-.64,2.77-.72,4.17Z"/><path class="cls-2" d="M64.58,47.93c-1.94-.81-3.86-1.97-5.92-1.88-1.14,.06-1.82,.47-2.67,1.18-.67,.56-1.58,2.62-2.3,2.81-1.71,.44-3.56-1.96-5.68-1.35-2.23,.65-2.91,2.88-4.04,4.67-3.77-.52-8.4-3.32-9.53-6.59-1.32-3.83-.56-9.02,.27-13.26,1.34,.64,2.98,1.6,3.55,1.82,1.45,.56,2.99,1.23,4.56,.63,2.63-1.01,3.35-4.54,4.73-6.95,2.46,.7,4.87,2.88,7.63,2.2,1.39-.34,2.49-1.58,3.48-2.52,.57-.54,1.13-1.08,1.69-1.63,.02,.82,.04,1.55,.07,1.83,.29,2.45,.64,4.89,1.27,7.27,.5,1.91,1.2,3.73,1.95,5.55,.64,1.57,1.46,4.61,.96,6.23Z"/><g><path class="cls-2" d="M57.6,71.96c-1.07-1.34-2.49-2.03-3.93-2.14-.72-.4-1.57-.55-2.37-.25-3.52,1.32-6.83,4.35-5.79,8.52,1.1,4.43,6.23,5.32,9.84,3.53,3.53-1.75,4.75-6.52,2.25-9.65Z"/><path class="cls-6" d="M54.82,72.34c-1.17-.69-2.77-.79-3.96-.06-.58,.36-1,.77-1.36,1.34-.36,.56-.49,1.26-.51,1.92-.02,.67,.21,1.33,.53,1.9,.16,.28,.37,.53,.61,.75,.25,.29,.54,.54,.87,.76,1.17,.76,2.67,.66,3.85,0,1.13-.62,1.94-1.99,1.9-3.28-.04-1.37-.74-2.63-1.93-3.33Z"/></g><path class="cls-2" d="M79.08,68.14c-1.07-1.34-2.49-2.03-3.93-2.14-.72-.4-1.57-.55-2.37-.25-3.52,1.32-6.83,4.35-5.79,8.52,1.1,4.43,6.23,5.32,9.84,3.53,3.53-1.75,4.75-6.52,2.25-9.65Z"/><path class="cls-6" d="M76.31,68.51c-1.17-.69-2.77-.79-3.96-.06-.58,.36-1,.77-1.36,1.34-.36,.56-.49,1.26-.51,1.92-.02,.67,.21,1.33,.53,1.9,.16,.28,.37,.53,.61,.75,.25,.29,.54,.54,.87,.76,1.17,.76,2.67,.66,3.85,0,1.13-.62,1.94-1.99,1.9-3.28-.04-1.37-.74-2.63-1.93-3.33Z"/><path class="cls-6" d="M77.35,101.19c-1.87-.07-3.73-.14-5.6-.21l-1.31-.05c1.12-.51,2.24-1,3.37-1.48,.61-.26,.79-1.13,.49-1.67-.34-.63-1.06-.75-1.67-.49-2.4,1.01-4.77,2.09-7.1,3.24-.79,.39-.88,1.71-.06,2.13,1.59,.82,3.51,.72,5.29,.76-1.12,.25-2.24,.49-3.36,.74-1.55,.34-.97,2.74,.58,2.4,2.07-.45,4.13-.9,6.2-1.36,1.76-.39,4.03-.57,4.37-2.73,.11-.66-.6-1.25-1.19-1.27Z"/><path class="cls-6" d="M68.12,127.11c-2.53-1.47-5.73-1.18-8,.62-.51,.4-.5,1.3-.05,1.74,.51,.5,1.2,.48,1.74,.05,.04-.03,.07-.06,.11-.09,0,0,.01,0,.02-.01,.12-.08,.24-.15,.37-.23,.11-.06,.23-.12,.34-.18,.06-.03,.12-.05,.17-.08,.01,0,.06-.02,.1-.04,.02,0,.05-.02,.05-.02,.08-.03,.15-.05,.23-.07,.12-.04,.25-.07,.37-.09,.13-.03,.25-.05,.38-.07,.01,0,.07-.01,.11-.02,.02,0,.04,0,.08,0,.26-.02,.51-.02,.77,0,.13,0,.26,.02,.38,.04,.04,0,.05,0,.07,0,.05,.01,.11,.03,.12,.03,.25,.06,.5,.13,.74,.22,.07,.03,.14,.06,.22,.09,.12,.06,.24,.12,.36,.19,.56,.32,1.36,.2,1.7-.39,.32-.57,.2-1.35-.39-1.7Z"/><g><path class="cls-6" d="M91.4,123.55s-.06,.01-.09,.01c-.02,0,.04,.01,.11-.02,0,0,0,0,0,0t0,0Z"/><path class="cls-6" d="M92.66,121.11c-1.33-.14-2.64,.11-3.86,.61-1.23,.5-2.25,1.35-3.09,2.37-.19,.23-.22,.67-.15,.95,.07,.29,.28,.6,.54,.75,.64,.36,1.26,.14,1.7-.39-.05,.06-.13,.15-.03,.04,.05-.05,.1-.11,.15-.16,.09-.1,.18-.19,.28-.28,.09-.08,.17-.16,.26-.23,.06-.05,.11-.09,.17-.14,0,0,.01-.01,.02-.02,.04-.03,.1-.07,.11-.08,.05-.03,.1-.06,.15-.1,.11-.07,.23-.14,.34-.2,.23-.13,.46-.23,.7-.33,.04-.02,.09-.03,.13-.05,.13-.04,.25-.08,.38-.12,.25-.07,.51-.12,.78-.16,.02,0,.04,0,.06,0,.01,0,.03,0,.09-.01,0,0,.02,0,.02,0,0,0,0,0-.01,0,.11,0,.23-.01,.34-.02,.28,0,.56,0,.84,.04,.64,.07,1.28-.57,1.27-1.19-.01-.71-.51-1.19-1.19-1.27Z"/></g><path class="cls-6" d="M86.06,130.61c-5.26,3.15-11.61,4.26-17.61,2.94-1.54-.34-2.28,2.02-.73,2.36,.91,.2,1.83,.35,2.75,.45,.11,1.07,.25,2.13,.47,3.19,.21,1,.38,2.27,1.07,3.07,.72,.83,1.86,.93,2.89,.97,1.13,.04,2.26,0,3.39-.09,1.16-.11,2.32-.26,3.46-.51,.61-.13,1.26-.24,1.75-.67,.41-.36,.59-.88,.73-1.39,.61-2.23,.73-4.53,.48-6.83,.86-.4,1.71-.83,2.52-1.32,1.36-.81,.19-2.98-1.18-2.16Zm-4.02,8.95c-.05,.21-.1,.43-.16,.64-.02,.07-.04,.14-.06,.21-.34,.07-.98,.24-1.09,.27-.85,.17-1.72,.3-2.59,.37-.9,.07-1.81,.1-2.71,.09-.41,0-.85,.01-1.25-.06-.1-.02-.24-.04-.34-.09,0-.02-.01-.04-.02-.09-.13-.76-.4-1.51-.55-2.27-.14-.7-.24-1.4-.32-2.1,3.19,.07,6.38-.43,9.39-1.47,.12,1.5,.02,3.05-.31,4.51Z"/><g><g><g><path class="cls-7" d="M29.13,58c.28,.2,.55,.38,.89,.46-.31,.82-.61,1.63-.92,2.45,.21,.14-.86-.35-1.08-.43,.61-.38,1.21-.75,1.82-1.13-.03-.23,0-.26,.09-.1-.83,1.35-1.39,1.65-1.67,.9-.14-.29-.33-.54-.52-.79-.73-.97-1.56-1.86-2.43-2.71,.77-.13,1.54-.26,2.3-.39-.01-.24,0-.22,.03,.06,.02,.14,.06,.27,.12,.39,.07,.17,.16,.44,.31,.55-.71,.32-1.42,.65-2.13,.97-.03,.21-.03-.1-.08-.22-.12-.3-.29-.57-.47-.83-.08-.11-.16-.21-.26-.31,0,0,0,0,0,0-.64-.41-.15-.79,1.5-1.15,.03,.08,.06,.16,.11,.23,.35,.73-2.26,.39-1.48,1.04,.71-.32,1.42-.64,2.13-.97-.04,.28,.23,.61,.37,.85,.89,1.5-1.57,2.63-2.45,1.15-.42-.71-.72-1.44-.62-2.27,.12-.94,1.32-1.65,2.13-.97,1.18,.99,1.44,3.08-.31,3.61-1.44,.43-2.7-1.44-2.57-2.73,.17-1.76,2.18-1.64,3.14-.65,.83,.85,1.71,2.27,1.55,3.5-.13,.98-1.29,1.59-2.13,.97-1.14-.85-1.94-2.78-1.43-4.17,.38-1.02,1.6-1.08,2.3-.39,1.38,1.35,3.66,3.37,3.65,5.49-.01,1.15-1.39,1.62-2.3,1.27-1-.39-1.59-1.58-1.59-2.59,0-.91,1.07-1.39,1.82-1.13,.96,.33,2.06,1.19,1.94,2.32-.15,1.53-1.71,1.83-2.85,1.21-.99-.54-1.11-2.15-.27-2.85,.81-.68,2.06-.45,2.88,.07,1.09,.7,.43,2.74-.92,2.45-.81-.18-1.5-.45-2.18-.94-1.41-1.02,.15-3.23,1.56-2.21h0Z"/><path class="cls-6" d="M33.08,60.24c-.78,1.31-.83,4.41-3.05,4.18-.38-.04-.87-.3-1.1-.61-.57-.75-.14-.4-1.02-.22-1.11,.22-2.21-.39-2.44-1.56-.13-.67-.11-1.33-.38-1.97,.3,.27,.19,.24-.33-.09-.41-.21-.74-.47-1.07-.78-.93-.85-1.64-2.05-1.93-3.28-.27-1.13,.34-2.37,1.25-3.01,1.43-1,3.22-.06,4.74,.17,1.72,.26,1.46,2.95-.27,2.69-.96-.14-1.88-.47-2.84-.62-.57-.09,.17,1.12,.22,1.21,.34,.58,.75,1.02,1.35,1.32,.61,.31,1.06,.57,1.34,1.22,.15,.35,.4,2.22,.57,2.32-.34-.08-.67-.15-1.01-.23,.81-.16,1.29-.78,2.19-.5,.9,.28,.99,1.02,1.67,1.47-.34-.08-.67-.15-1.01-.23-.55,.03-.45,.4-.14-.34,.15-.36,.27-.74,.4-1.11,.19-.56,.38-1.11,.68-1.62,.89-1.5,3.1,.08,2.21,1.56h0Z"/></g><path class="cls-5" d="M29.55,55.96c-.36-.41-1.24-.59-1.23-1.06-.17-1.01-.13-2.51,.48-3.38,.49-1.15,2.8-1.81,3.98-2.39,1.78-.86,3.97-2.36,6.03-1.84,.38,.09,.66,.4,.81,.77,.17,.12,.32,.27,.42,.47,.79,1.66-.41,3.38-1.41,4.65-.54,.69-.66,1.74-1.34,2.28-.06,.46-.75,.47-1.06,.93-.49,.74-1.21,1.1-2,1.2-.24,.37-.57,.67-1.03,.75-.98,.15-2.83-.43-3.18-1.52-.04-.12-.06-.23-.09-.35-.15-.16-.28-.34-.39-.53Z"/></g><path class="cls-6" d="M39.42,49.69c-.03-1.58-3.02-1.08-3.91-.92-2.16,.38-4.32,1.38-5.9,2.91-2.01,1.95,0,5.12,2.17,5.98,1.85,.74,4.11-1.18,5.22-2.46,1.26-1.45,2.4-3.58,2.43-5.52,.02-1.74,2.72-1.46,2.69,.27-.07,4.89-5.23,11.27-10.51,10.44-4-.63-6.78-5.88-4.84-9.42,2.26-4.12,15.22-8.67,15.35-1.02,.03,1.74-2.66,1.45-2.69-.27h0Z"/></g></g></svg>