<?xml version="1.0" encoding="utf-8"?>
<!-- Generator: Adobe Illustrator 27.4.1, SVG Export Plug-In . SVG Version: 6.00 Build 0)  -->
<svg version="1.1" id="_圖層_2" xmlns="http://www.w3.org/2000/svg" xmlns:xlink="http://www.w3.org/1999/xlink" x="0px" y="0px"
	 viewBox="0 0 209.6 245.9" style="enable-background:new 0 0 209.6 245.9;" xml:space="preserve">
<style type="text/css">
	.st0{fill:#4D1221;}
	.st1{fill:#743C1F;}
	.st2{fill:#9C6D3B;}
	.st3{fill:#D3B47C;}
	.st4{fill:#2B80C3;}
</style>
<g id="Isolation_Mode">
	<path class="st0" d="M209.5,171.2c-0.1,1.5-1.1,2.5-2.3,2.9c-0.2,1.5-0.8,2.9-2.1,4c-1,0.9-2.3,1.4-3.6,1.5c-0.4,0-1.8-0.4-2.7-0.7
		c-0.6,1.8-1.2,3.4-3,4.8c-2.3,1.8-4.9,2.1-7.6,1.6c-0.7-0.1-1.2-0.4-1.5-0.7c-1.6-1.6-0.2-5.2,2.6-5.3l0,0c0.2,0,0.5,0,0.7,0
		c3.4,0.6,2.9-4.3,4.7-5.9c1-0.9,2.2-1.2,3.5-1c2.1,0.2,3.3,1.9,2.9-1.4c-0.2-1.5,0.6-3.5,2.2-3.9c-0.4-18.9-10.8-35.1-22.5-49.7
		c-2.8-3.5-5.6-6.8-8.4-10.2c-2.4-2.9,1.3-6.8,4-4.9c0.2,0.2,0.4,0.3,0.6,0.5C193.3,122.1,211,144,209.5,171.2L209.5,171.2z"/>
	<path class="st0" d="M101.3,243.8c-3.5,0.8-7.3,1.9-10.8,0.8c-0.8-0.3-2.8-1-3.7-2c-0.3,0.3-1.1,0.6-1.4,0.8
		c-2.5,1.1-4.8,0.1-6.8-1.5c-0.8-0.6-2.2-2.5-3.2-2.3c-0.9,0.1-2.3,2-3.2,2.5c-8.1,4.7-9.6-6.8-11-13c-2.1-9.7-3.6-19.6-4.4-29.6
		c0-0.1,0-0.2,0-0.3c-0.2-2.9,2-4.5,4-4.4c1.2,0.1,2.2,0.8,2.6,2.3c0.1,0.3,0.1,0.5,0.2,0.8c0.2,2.5,0.5,5.1,0.7,7.6
		c0.7,6.1,1.6,12.1,2.8,18c0.4,2,0.8,4.1,1.3,6.1c0.1,0.5,1.1,3.9,1.2,5.3c0.6-0.6,2-1.6,2.5-1.9c1-0.6,2-1.1,3.1-1.2
		c2.4-0.2,4.3,1.1,6.1,2.6c0.6,0.5,1.4,1.6,2.1,1.8c-0.5-0.2,1.7-1.5,2.1-1.7c2.4-1,3.6,0.3,5.5,1.6c1.8,1.2,3.6,1.3,5.4,1
		c-1.7-6.3-2.7-12.9-1-19.3c0.3-1.3,0.8-2.6,1.4-3.8c0.6-1.2,1.4-1.8,2.3-2.1c0.9-0.3,1.9-0.1,2.7,0.3c1.4,0.8,2.2,2.5,1.3,4.6
		c-0.3,0.6-0.6,1.3-0.8,1.9c-2.2,6.5-0.2,13.3,1.7,19.7C104.7,240.8,103.5,243.2,101.3,243.8L101.3,243.8z"/>
	<path class="st0" d="M163.6,206.7c0,0.1-0.1,0.2-0.1,0.3c-3.8,9.9-7.9,20.9-3.4,31.2c1.6,3.8-2.7,6.4-5.3,4.7
		c-0.6-0.4-1.2-0.8-1.8-1.2c-0.3,0.6-0.6,1.3-0.8,1.9c-0.8,2-2.7,2.9-4.5,2.2c-1.9-0.8-6-3.4-8.1-3.3c-0.3,0-0.5,0-0.6,0
		c0,0.1-0.1,0.3-0.8,0.8c-0.5,0.3-1,0.8-1.5,1c-3.2,1.3-5.8-0.9-8.3-2.8c-1.8,0.7-3.5,1.8-5.2,2.6c-2,1-4.4-0.4-4.7-2.9
		c-0.8-7.3-1.2-14.6-1.2-22c0-1.4,0-2.9,0-4.4c0-0.8,0.2-1.5,0.6-2c1.1-1.7,3.4-1.7,4.9-0.3c0.8,0.7,1.3,1.8,1.3,3.2c0,1,0,2,0,3
		c0,5.4,0.2,10.8,0.7,16.1c1.3-0.7,2.6-1.2,3.9-1.3c2.4-0.2,4.1,3.5,6,3.1c0.7-0.1,1.8-1.6,2.6-1.9c1.1-0.4,2.2-0.2,3.2,0
		c2.3,0.6,4.6,1.6,6.8,2.6c0.4-0.8,0.7-1.7,1.1-2.5c0.7-1.5,1.8-2.3,3-2.4c-0.7-7.1,1-14.3,3.3-21.3c0.8-2.3,1.6-4.6,2.5-6.9
		C159,199.6,165.1,202.3,163.6,206.7L163.6,206.7z"/>
	<path class="st0" d="M63.4,197c0.1,0.3,0.1,0.5,0.2,0.8c0.2,2.5,0.5,5.1,0.7,7.6c2.3,1.6,4.6,3,7.1,4.3c7.5,4,15.7,6.6,24,8
		c0.3-1.3,0.8-2.6,1.4-3.8c0.6-1.2,1.4-1.8,2.3-2.1C85.9,210,73.4,205.3,63.4,197z M63.4,197c0.1,0.3,0.1,0.5,0.2,0.8
		c0.2,2.5,0.5,5.1,0.7,7.6c2.3,1.6,4.6,3,7.1,4.3c7.5,4,15.7,6.6,24,8c0.3-1.3,0.8-2.6,1.4-3.8c0.6-1.2,1.4-1.8,2.3-2.1
		C85.9,210,73.4,205.3,63.4,197z M191.9,149.3c-2.3-11.2-7.3-21.5-11.2-32.1c-0.1-0.1-0.1-0.2-0.1-0.4c-1.8-4.8-3.1-9.7-4.3-14.7
		c-1.7-6.9-2.9-13.9-4.3-20.8c-2.9-15.1-6.9-30.7-15.5-43.4c0.2-0.2,0.4-0.4,0.5-0.6c5.5-8.4,9.6-22.6-1.5-28.9
		c-4.7-2.6-10.6-1.7-14.6,1.7c-3.5,2.9-5.2,7.3-5.4,11.7c-13.1-5.1-27.9-5.7-41.3-1.2c-0.8-5.1-2.7-10-6.8-13.3
		c-4.4-3.5-10.6-4.9-15.7-2c-4.7,2.6-7.5,8-7.5,13.3c-0.1,6.1,3.2,11.5,7.4,15.8c-6.2,6-11.2,13.2-14.7,21.2
		c-7.5,17.6-9.6,37.3-13.9,55.8c-4.6,19.8-9,40.7-3.2,60.8c3.1,10.7,9.3,20,17.3,27.3c2.3,2.2,4.9,4.2,7.5,6c2.3,1.6,4.6,3,7.1,4.3
		c7.5,4,15.7,6.6,24,8c2.3,0.4,4.6,0.7,6.9,0.9c5,0.5,10,0.6,15,0.3c2.3-0.1,4.5-0.3,6.8-0.5c1.1-0.1,2.1-0.2,3.2-0.4
		c9.3-1.2,18.7-3.5,27.5-7.1c3.1-1.3,6-2.7,8.9-4.3c4.9-2.8,9.5-6.2,13.6-10.2c3.8-3.7,6.9-7.8,9.3-12.1c1-1.7,1.9-3.5,2.6-5.3l0,0
		C193,169.9,194,159.7,191.9,149.3L191.9,149.3z M145.1,14.6c3-2.2,6.9-1.8,9.2,1.2c3.9,5.2,1.1,11.8-2,16.8
		c-2.1-2.4-10.4-7.8-10.8-8c0-0.2,0-0.5,0-0.8C141.4,20.5,142.2,16.8,145.1,14.6L145.1,14.6z M74.1,11.1c3.2-2.1,7.2-0.8,9.8,1.7
		c2.8,2.7,3.8,6.5,4.1,10.2c-4.2,2-8.2,4.4-11.9,7.2C71.2,25.4,66.7,15.9,74.1,11.1z M181.4,180.8c-8.2,14.8-23.5,23.5-39.4,28
		c-6.1,1.7-12.6,2.9-19.2,3.6c-1.6,0.1-3.3,0.3-4.9,0.3c-5.4,0.3-10.8,0.1-16.2-0.5c-0.9-0.1-1.8-0.2-2.7-0.3
		c-13.2-1.9-25.7-6.6-35.7-14.8c-0.9-0.7-1.8-1.5-2.6-2.3c-3.8-3.6-7.2-7.7-10.1-12.4c-10-16.6-8.6-36.9-5-55.1
		c1.8-9.3,4.2-18.4,6.2-27.6c1.7-8.2,3.1-16.4,5.1-24.5C61.5,56.7,69.9,40,87,30.5c17.1-9.5,38.1-8.5,54.7,1.5
		c0.6,0.4,1.8,1.1,1.8,1.1c8.6,6.5,17.3,26.4,20.7,42c2.1,9.3,3.5,18.8,5.7,28.1c2.1,9.1,5.4,17.8,8.8,26.4
		C185.5,146.6,190.9,163.9,181.4,180.8L181.4,180.8z M63.4,197c0.1,0.3,0.1,0.5,0.2,0.8c0.2,2.5,0.4,5.1,0.8,7.6
		c2.3,1.6,4.6,3,7.1,4.3c7.5,4,15.7,6.6,24,8c0.3-1.3,0.8-2.6,1.4-3.8c0.6-1.2,1.4-1.8,2.3-2.1C85.9,210,73.4,205.3,63.4,197z"/>
	<path class="st1" d="M201,170.8c0.4,3.3-0.7,1.7-2.9,1.4c-1.3-0.1-2.5,0.1-3.5,1c-1.8,1.6-1.3,6.4-4.7,5.9
		c-0.3-0.1-0.5-0.1-0.7-0.1c3.8-9.2,4.9-19.4,2.8-29.7c-2.3-11.2-7.3-21.5-11.2-32.1c11.7,14.6,22.1,30.7,22.5,49.7
		C201.6,167.2,200.8,169.3,201,170.8L201,170.8z"/>
	<path class="st1" d="M151.5,232.3c-1.2,0.1-2.4,0.8-3,2.4c-0.4,0.8-0.7,1.7-1.1,2.5c-2.2-1-4.5-2-6.8-2.6c-1.1-0.2-2.2-0.4-3.2,0
		c-0.9,0.3-1.9,1.8-2.6,1.9c-1.9,0.4-3.6-3.3-6-3.1c-1.2,0.1-2.6,0.6-3.9,1.3c-0.4-5.4-0.7-10.7-0.7-16.1c1.1-0.1,2.1-0.2,3.2-0.4
		c9.3-1.2,18.7-3.5,27.4-7.1C152.4,218,150.8,225.2,151.5,232.3L151.5,232.3z"/>
	<path class="st1" d="M96.4,237c-1.9,0.3-3.7,0.2-5.4-1c-1.9-1.3-3.1-2.6-5.5-1.6c-0.3,0.1-2.6,1.5-2.1,1.7
		c-0.7-0.1-1.6-1.3-2.1-1.8c-1.8-1.5-3.7-2.8-6.1-2.6c-1.1,0.1-2.1,0.6-3.1,1.2c-0.4,0.3-1.9,1.2-2.5,1.9c-0.1-1.4-1.1-4.8-1.2-5.3
		c-0.5-2-0.9-4-1.3-6.1c-1.2-5.9-2.1-11.9-2.8-18c2.3,1.6,4.6,3,7.1,4.3c7.5,4,15.7,6.6,24,8C93.7,224.1,94.7,230.7,96.4,237
		L96.4,237z"/>
	<path class="st2" d="M181.4,180.8c-8.2,14.8-23.5,23.5-39.4,28c-31.8,8.9-72.8,4.3-91.3-26.4c-10-16.6-8.6-36.9-5-55.1
		c1.8-9.3,4.2-18.4,6.2-27.6C53.6,91.4,55,83.2,57,75c4.5-18.4,13-35.1,30-44.5c17.1-9.5,38.1-8.5,54.7,1.5c0.6,0.4,1.8,1.1,1.8,1.1
		c8.6,6.5,17.3,26.4,20.7,42c2.1,9.3,3.5,18.8,5.7,28.1c2.1,9.1,5.4,17.8,8.8,26.5C185.5,146.5,190.9,163.8,181.4,180.8L181.4,180.8
		z"/>
	<path class="st1" d="M88,23c-4.2,2-8.2,4.4-11.9,7.2c-4.8-4.8-9.4-14.3-2-19.2c3.2-2.1,7.2-0.8,9.8,1.7C86.6,15.5,87.6,19.3,88,23z
		"/>
	<path class="st1" d="M152.4,32.7c-2.1-2.4-10.4-7.8-10.8-8c0-0.2,0.1-0.5,0-0.8c-0.2-3.5,0.5-7.2,3.5-9.3c3-2.2,6.9-1.8,9.2,1.2
		C158.3,21.1,155.5,27.6,152.4,32.7L152.4,32.7z"/>
	<path class="st1" d="M58,103.9c-0.2-0.3-0.5-0.7-0.9-0.9c-9.5-6.8-17.6-15.3-23.7-25.2c-2.3-3.7-4.9-7.8-9.7-8
		c-2-0.1-3.7,0.7-5.2,1.9c-2.4,2-4.3,3.4-7.6,4c-1,0.2-2.1,1.1-2.3,2.1c-0.7,2.7-3.9,3-4.3,5.8c-0.5,3,0.9,6.8,1.6,9.7
		c1.8,6.9,4.1,13.4,8.4,19c4.5,5.9,9.9,11.2,14.9,16.6c4.9,5.3,9.8,10.6,16.3,13.8c1.7,0.8,4.2,0.5,4.7-1.6
		c2.9-11.4,3.6-23.3,8.6-34C59.5,105.8,59,104.6,58,103.9L58,103.9z"/>
	<path class="st0" d="M59.2,98.8C47.1,90.4,37.8,79,32,65.5c-0.1-0.5-0.3-0.9-0.6-1.3c-0.4-0.7-1-1-1.7-1.2
		c-1.2-0.4-2.5-0.1-3.4,1.3c-1.3,2.2-3.8,2.9-6.1,1.5c-1.9-1.2-3.9-0.2-4.7,1.6c-0.6,1.3-1.3,2.7-1.9,4c-1.8-0.2-3.6-0.4-5.5-0.7
		c-1.7-0.2-3.2,1.4-3.3,3c0,0.9-0.1,1.9-0.1,2.8c-0.5-0.1-1-0.1-1.5-0.2c-2.2-0.2-3.5,1.9-3.2,3.8c0.9,7.3,1.9,14.7,4.2,21.7
		c2.2,7,5.8,13,10.2,18.8c7.9,10.6,17.4,20.3,30.1,24.8c3.8,1.4,5.8-4.6,2-6c-11.6-4.1-20.2-13.3-27.4-23
		c-4.2-5.7-7.6-11.7-9.5-18.6c-1.3-4.9-2.1-9.8-2.8-14.8c0.3,0,0.5,0.1,0.8,0.1c1.7,0.2,3.2-1.4,3.3-3l0.1-2.8
		c1.4,0.2,2.9,0.4,4.3,0.5c1.5,0.2,2.6-0.9,3.2-2.2c0.5-1.1,1.1-2.3,1.6-3.4c2.6,0.6,5.4,0.3,7.7-1c6.3,13.1,16,24.4,28,32.6
		C59.2,106.4,62.6,101.1,59.2,98.8L59.2,98.8z"/>
	<path class="st3" d="M96.4,178.1c5,4.8,11.9,6.8,18.7,6.2c3.8-0.4,7.6-1.6,11-3.2c3.4-1.7,6.9-3.9,9.4-6.8c2.5-3,3.4-6.7,4-10.4
		c0.6-3.9,1.1-7.8,1.4-11.8c1-14.1-2.2-30.6-15.7-38c-0.9-0.5-1.7-0.4-2.4-0.1c-1.7-0.8-3.6-1.3-5.5-1.5c-7.3-0.9-16.1,1.5-21.7,6.4
		c-5.4,4.8-6,11.8-5.2,18.6c0.4,3.2,1.1,6.3,1.3,9.5c0.2,3.7-0.3,7.4-0.7,11.1C90.3,165.3,90.9,172.8,96.4,178.1L96.4,178.1z"/>
	<path class="st1" d="M97.2,67.1c-0.2,5.6-0.2,11.2-0.2,16.8c0,4.2,0.3,8.8,2.9,12.5c1.3,1.9,3,3.5,5.3,4.5c2.3,1,5,0.9,7.5,0.8
		c4.1-0.2,8.6-1.1,11.7-3.8c4-3.5,4-8.5,4.4-13.2c0.4-5.2,0.8-10.3,1.2-15.5c0.4-4.7,1.3-10-1.6-14.2c-3-4.4-8-4.8-13.1-4.6
		c-3.2,0.1-7.9-0.3-10.9,1.5c-1,0-2,0.5-2.6,1.2C98.1,57,97.3,62.2,97.2,67.1L97.2,67.1z"/>
	<path class="st0" d="M118.3,61.4c0.1-0.5,0.4-0.9,0.8-1.3l2-2.3c0.3-0.3,0.6-0.5,1-0.6c0.4-0.2,0.8-0.3,1.2-0.3
		c0.4,0,0.8,0,1.2,0.2c0.4,0.1,0.7,0.3,1,0.5c0.2,0.2,0.3,0.4,0.5,0.6c0.3,0.4,0.5,0.9,0.5,1.4c0,0.2-0.1,0.5-0.1,0.8
		c-0.1,0.5-0.4,0.9-0.8,1.3l-2,2.3c-0.3,0.3-0.6,0.5-1,0.6c-0.4,0.2-0.8,0.3-1.2,0.3c-0.4,0-0.8,0-1.2-0.2c-0.4-0.1-0.7-0.3-1-0.5
		c-0.2-0.2-0.3-0.4-0.5-0.6c-0.3-0.4-0.5-0.9-0.5-1.4C118.3,61.9,118.3,61.6,118.3,61.4z"/>
	<path class="st0" d="M103.3,58.7c0.1-0.4,0.3-0.7,0.5-1c0.2-0.3,0.5-0.6,0.8-0.8c0.2-0.1,0.5-0.2,0.7-0.3c0.6-0.2,1.1-0.2,1.7-0.1
		c0.2,0.1,0.5,0.2,0.8,0.2c0.5,0.2,0.9,0.6,1.2,1c0.6,0.8,1.1,1.6,1.6,2.3c0.2,0.3,0.4,0.7,0.4,1c0.1,0.4,0.1,0.8,0,1.1
		c-0.1,0.4-0.3,0.7-0.5,1c-0.2,0.3-0.5,0.6-0.8,0.8c-0.2,0.1-0.5,0.2-0.7,0.3c-0.6,0.2-1.1,0.2-1.7,0.1c-0.2-0.1-0.5-0.2-0.8-0.2
		c-0.5-0.2-0.9-0.6-1.2-1c-0.6-0.8-1.1-1.6-1.6-2.3c-0.2-0.3-0.4-0.7-0.4-1C103.2,59.5,103.2,59.1,103.3,58.7L103.3,58.7z"/>
	<path class="st0" d="M104,91.2c0.3-0.7,0.8-1.3,1.5-1.7c0.8-0.4,1.5-0.9,2.3-1.3c1.2-0.8,2.2-1.7,3.2-2.7c0.1-0.1,0.2-0.2,0.3-0.3
		c0-0.6,0-1.2,0-1.8c-0.1-4.7,0-9.3,0.2-14c0.2-3.7,6.4-3.6,6.2,0.1c-0.2,4.2-0.3,8.4-0.2,12.6c0,1,0,2,0.1,3c0-0.1,0.1,0.5,0.1,0.7
		c0.1,0.1,0.3,0.4,0.3,0.4c1.5,1.5,3.1,3,4.6,4.5c2.8,2.7-1.8,6.7-4.5,4c-1.4-1.3-2.8-2.6-4.1-3.9c-1.7,1.4-3.5,2.7-5.5,3.7
		c-0.7,0.4-1.6,0.5-2.4,0.2c-0.7-0.2-1.5-0.7-1.8-1.3C103.9,92.7,103.7,91.9,104,91.2L104,91.2z"/>
	<path class="st0" d="M89.6,50.1c0-0.5,0.1-1.1,0.3-1.5c0.2-0.5,0.4-0.9,0.8-1.2c0.2-0.2,0.5-0.3,0.8-0.4c0.4-0.2,0.8-0.3,1.3-0.3
		c0.3,0,0.7,0.1,0.9,0.2c0.1,0,0.2,0,0.3,0.1c0.3,0.1,0.5,0.3,0.7,0.5c0.1,0.1,0.2,0.2,0.3,0.2c0.5,0.5,0.9,1.3,0.9,2
		c0,0.4,0.1,0.8,0,1.2c-0.1,0.4-0.2,0.8-0.2,1.2c-0.1,0.2-0.2,0.5-0.5,0.7c0,0,0,0,0,0c-0.2,0.4-0.6,0.8-1.1,1
		c-0.3,0.2-0.7,0.3-1.1,0.3c-0.4,0.1-0.9,0-1.3-0.1c-0.8-0.2-1.4-0.9-1.8-1.6C89.5,51.7,89.4,50.9,89.6,50.1L89.6,50.1z"/>
	<path class="st0" d="M132.3,51.1c0-0.5,0.1-1.1,0.3-1.5c0.2-0.5,0.4-0.9,0.8-1.2c0.2-0.2,0.5-0.3,0.8-0.4c0.4-0.2,0.8-0.3,1.3-0.3
		c0.3,0,0.6,0.1,0.9,0.2c0.1,0,0.2,0,0.3,0.1c0.3,0.1,0.5,0.3,0.7,0.5c0.1,0.1,0.2,0.2,0.3,0.2c0.5,0.5,0.9,1.3,0.9,2
		c0,0.4,0.1,0.8,0,1.2c-0.1,0.4-0.1,0.8-0.2,1.2c-0.1,0.2-0.2,0.5-0.5,0.7c0,0,0,0,0,0c-0.2,0.4-0.6,0.8-1.1,1
		c-0.4,0.2-0.7,0.3-1.1,0.3c-0.4,0.1-0.9,0-1.4-0.1c-0.8-0.2-1.4-0.9-1.8-1.6C132.2,52.7,132.1,51.9,132.3,51.1L132.3,51.1z"/>
	<g>
		<path class="st0" d="M155.3,20.7c-5.6-2.9-12.3-3.2-18.6-3.2c-1-5.3-2.7-10.4-5.1-15.4c-0.8-1.6-2.4-1.8-3.7-1.3
			c-9.5-0.6-19-1-28.5-0.7c-3.7,0.1-4.9,1.4-5.8,4.5c-1.1,3.8-2.2,7.6-3.3,11.4c-6.6-0.1-14,0.8-19.7,3.9c-5.1,2.7-4.9,8.1-0.2,11.2
			c5.3,3.5,13.3,3.1,19.4,3.5c8.1,0.6,16.3,1,24.4,1.1c8.2,0.2,16.3,0.1,24.5-0.1c6.1-0.2,14.3,0,19.3-3.6
			C162.9,28.3,160,23.1,155.3,20.7L155.3,20.7z M97.9,11.8c0.4-1.6,0.7-4.3,1.5-6c4.4-0.6,9.4,0,13.8,0.1c4.5,0.1,9,0.3,13.5,0.6
			c1.9,4.2,3.1,8.5,3.9,13c-1.9,1.5-4.9,1.6-7.4,1.8c-3.6,0.2-7.1,0.1-10.7,0.1c-5.4,0-11.9,0.2-16.6-2.7
			C96.6,16.3,97.3,14,97.9,11.8L97.9,11.8z M152.9,28c-1.7,1.1-5,1.3-7.1,1.5c-10.3,1.1-21,0.7-31.4,0.5
			c-10.2-0.2-20.4-0.7-30.5-1.6c-2.2-0.2-4.6-0.3-6.8-0.8c-2.3-0.5-5.5-2-2.1-3.5c4.7-1.9,9.8-2.6,14.9-2.5c0.1,0,0.2,0,0.4,0
			c6.4,5.3,15.2,5.3,23.5,5.3c6.9,0,16.3,0.9,21.6-3.8c4.5,0,9.2-0.1,13.6,1.2C150.8,24.9,155.6,26.2,152.9,28L152.9,28z"/>
		<path class="st4" d="M152.9,28c-1.7,1.1-5,1.3-7.1,1.5c-10.3,1.1-21,0.7-31.4,0.5c-10.2-0.2-20.4-0.7-30.5-1.6
			c-2.2-0.2-4.6-0.3-6.8-0.8c-2.3-0.5-5.5-2-2.1-3.5c4.7-1.9,9.8-2.6,14.9-2.5c0.1,0,0.2,0,0.4,0c6.4,5.3,15.2,5.3,23.5,5.3
			c6.9,0,16.3,0.9,21.6-3.8c4.5,0,9.2-0.1,13.6,1.2C150.8,24.9,155.6,26.2,152.9,28L152.9,28z"/>
		<path class="st4" d="M130.6,19.4c-1.9,1.5-4.9,1.6-7.4,1.8c-3.6,0.2-7.1,0.1-10.7,0.1c-5.4,0-11.9,0.2-16.6-2.7
			c0.7-2.3,1.3-4.5,2-6.8c0.4-1.6,0.7-4.3,1.5-6c4.4-0.6,9.4,0,13.8,0.1c4.5,0.1,9,0.3,13.5,0.6C128.6,10.6,129.8,14.9,130.6,19.4
			L130.6,19.4z"/>
	</g>
</g>
</svg>
