<?xml version="1.0" encoding="UTF-8"?><svg id="_圖層_2" xmlns="http://www.w3.org/2000/svg" viewBox="0 0 236.77 437.72"><defs><style>.cls-1{stroke:#a06b36;stroke-miterlimit:10;stroke-width:.6px;}.cls-1,.cls-2{fill:#4d1221;}.cls-3{fill:#6a302f;}.cls-4{fill:#f5b61c;}.cls-5{fill:#a06b36;}.cls-6{fill:#bc4040;}.cls-7{fill:#dfcdb7;}.cls-8{fill:#dccab5;}</style></defs><g id="Character_Labu"><g><g><path class="cls-5" d="M116.81,227.41s-2.51,2.77-35.25,7.25c-23.75,3.25-30.75-20.88-30.75-20.88l-29.25,12.25c18.2,42.54,50.58,41.54,64.5,39.81,12.7-1.58,16.33-5.34,16.33,15.35,0,0,.16,117.96,0,133.82-.16,15.86,.73,17.83,4.71,19.29l.62,.2c6.59,2.18,18.63,2.18,25.2,0l.62-.2c2.44-.8,4.08-3.08,4.08-5.65l-.64-90.13c0-1.23,1.03-2.24,2.24-2.24h7.49c1.21,0,2.24,1.01,2.24,2.24l.64,90.13c0,2.57,1.63,4.86,4.08,5.65l.62,.2c6.56,2.18,18.6,2.18,25.2,0l.62-.2c2.43-.8,4.08-3.08,4.08-5.65v-148.11c0-7.44,3.64-8.62,6.97-6.83,3.75,2.02,12.56,8.09,8.81,20.48-2.12,7.01-7.05,10.46-11.53,14.8-2.34,2.39-6.94,6.84,0,14.81s14.59,9.91,18.62,7.09c4.75-3.31,9.62-8.69,15.06-16.81,8.21-12.27,13.41-32.37-2.69-53.31-16.62-21.62-54.97-40.44-61.84-42.81l-13.98,.39-26.8,9.05"/><path class="cls-2" d="M115.75,226.35c-.16,.18,.41-.23,.19-.15-.14,.06-.28,.17-.42,.24-.11,.06-.23,.11-.34,.16-.32,.16,.24-.09,.07-.03-.09,.04-.19,.08-.28,.11-.49,.18-.98,.36-1.48,.52-4.89,1.56-10.02,2.46-15.06,3.35s-10.21,1.67-15.33,2.39c-4.1,.57-8.16,.79-12.2-.29-5.82-1.54-10.68-5.41-14.1-10.3-2.03-2.91-3.63-5.86-4.54-8.98-.21-.7-1.09-1.37-1.85-1.05-8.54,3.58-17.09,7.16-25.63,10.73-1.21,.51-2.41,1.01-3.62,1.52-.97,.41-1.32,1.23-.9,2.2,5.14,11.94,12.54,23.09,23.16,30.82,7.49,5.45,16.28,8.72,25.45,9.87,6.89,.87,13.82,.45,20.66-.62,1.84-.29,3.6-.64,5.38-.78,.69-.05,1.39-.08,2.08,0,.05,0,.21,.02,.55,.12,.14,.04,.27,.08,.41,.13,.2,.07-.13-.08,.19,.09,.37,.21,.73,.54,.91,.79,.45,.66,.61,1.09,.83,1.79,.69,2.27,.83,4.71,.93,7.07,.17,3.83,.1,7.68,.11,11.51,0,6.48,.02,12.96,.02,19.44,0,9.15,.02,18.31,.02,27.46,0,10.02,.01,20.03,.02,30.05,0,9.09,0,18.18,0,27.27,0,6.36-.01,12.71-.04,19.07-.01,3.11-.07,6.22-.04,9.32,.03,2.77,.09,5.56,.49,8.31,.22,1.54,.57,3.16,1.45,4.48,2.01,3.04,6.51,3.67,9.79,4.13,6.51,.91,13.68,.93,20.04-.94,2.91-.86,5.41-2.47,6.23-5.58,.21-.79,.25-1.59,.25-2.4,0-1.58-.02-3.15-.03-4.73-.05-6.93-.1-13.86-.15-20.79-.07-9.21-.13-18.43-.2-27.64-.06-8.18-.12-16.36-.17-24.54l-.06-8.14c0-1.2-.17-2.51-.03-3.7,.14-1.13,1.4-.84,2.25-.84,1.91,0,3.91-.18,5.81,0,1.26,.12,.91,1.76,.92,2.7l.12,17.02,.19,26.7,.19,26.48c.04,5.47,.08,10.94,.12,16.41,.02,2.17,.14,4.22,1.54,6.06,1.82,2.38,4.88,3.12,7.69,3.64,3.33,.63,6.75,.86,10.14,.83s6.82-.31,10.13-1.06c2.82-.63,5.63-1.58,7.14-4.24,.97-1.72,.97-3.5,.97-5.38,0-5.34,0-10.68,0-16.02s0-17.24,0-25.86v-56.42c0-5.64,0-11.28,0-16.92s0-16.73,0-25.1c0-2.18-.04-4.37,0-6.55,.04-1.75,.31-5.29,2.49-5.61,1.57-.23,3.24,1.04,4.46,1.89,3.96,2.76,6.7,6.99,6.74,11.91,.03,3.55-1.08,7.13-2.96,10.12-1.77,2.82-4.25,5.09-6.69,7.32-3.48,3.19-7.19,6.65-6.3,11.85,.62,3.65,3.27,6.77,5.83,9.28s5.43,4.57,8.74,5.82c2.39,.9,5.17,1.3,7.65,.54s4.81-2.95,6.74-4.77c2.62-2.47,4.93-5.24,7.11-8.1s4.26-5.79,6-8.92c6.35-11.45,7.74-25.09,3.11-37.42-4.99-13.26-15.41-23.33-26.41-31.8-9.71-7.47-20.23-13.92-31.08-19.58-3.47-1.81-6.98-3.56-10.58-5.09-.95-.4-2.06-1.04-3.1-1.07-1.58-.05-3.18,.09-4.76,.13l-6.61,.18c-.94,.03-2.01-.08-2.94,.15-2.64,.64-5.24,1.77-7.81,2.64-6.31,2.13-12.62,4.26-18.92,6.39-1.82,.61-1.04,3.51,.8,2.89,6.52-2.2,13.05-4.4,19.57-6.61l5.02-1.69c.69-.23,1.56-.39,2.2-.74-.32,.17-.52,.03-.18,.04,.23,.01,.47-.01,.7-.02l2.5-.07,6.73-.19c1.26-.04,2.59-.21,3.84-.11-.57-.05-.03,.08,.22,.17s.49,.19,.74,.29c.63,.26,.86,.35,1.61,.69,3.83,1.69,7.56,3.59,11.26,5.56,10.86,5.79,21.43,12.34,31.05,20.03,10.86,8.67,21.13,19.31,24.69,33.15,3.18,12.36-.05,24.86-7.15,35.21-2.25,3.28-4.65,6.46-7.36,9.38-1.98,2.13-4.18,4.42-6.71,5.91-1.98,1.18-4.46,.85-6.55,.16-3.33-1.11-6.23-3.4-8.64-5.89-2.17-2.25-4.73-5.26-4.47-8.62,.14-1.86,1.27-3.4,2.51-4.71,2.02-2.14,4.33-3.99,6.39-6.1,2.43-2.49,4.43-5.29,5.7-8.54,2.24-5.74,2.08-12.41-1.65-17.48-1.35-1.84-2.98-3.38-4.83-4.71-1.43-1.03-3.08-2.1-4.85-2.39-5.38-.88-6.85,4.99-6.87,9.16,0,2.66,0,5.32,0,7.98,0,8.08,0,16.16,0,24.24s0,11.54,0,17.3v8.23c0,6.9,0,13.79,0,20.69s0,18.18,0,27.27c0,8.49,0,16.98,0,25.47v15.31c0,2.07-.17,4.1-2.24,5.28-2.32,1.33-5.57,1.62-8.17,1.87-3.46,.33-6.96,.34-10.42,.03-3.86-.34-10.66-.78-10.76-5.91-.03-1.27-.02-2.55-.03-3.83-.05-6.48-.09-12.96-.14-19.43-.06-9.05-.13-18.1-.19-27.14-.06-8.42-.12-16.84-.18-25.26l-.1-13.78c0-.59-.02-1.15-.21-1.73-.83-2.49-3.2-2.55-5.36-2.55-1.86,0-3.73-.08-5.59,0-2.15,.09-3.73,1.65-3.81,3.81-.14,3.77,.05,7.58,.08,11.36l.17,24.21c.06,9.15,.13,18.31,.19,27.46,.05,7.04,.1,14.08,.15,21.12l.04,5.19c0,.24,.01,.48,0,.72-.07,3.22-2.77,4.28-5.45,4.93-6.33,1.53-13.56,1.53-19.92,.18-1.14-.24-2.27-.56-3.37-.94-.44-.15-.14-.03-.48-.2-.25-.13-.5-.26-.74-.41-.39-.24-.07,0-.34-.27-.09-.09-.18-.18-.27-.27-.24-.26,0,.01-.12-.14-.44-.64-.49-.82-.69-1.47-.6-1.95-.69-4.04-.78-6.06-.13-3.11-.11-6.22-.08-9.32,.02-1.96,.02-3.92,.03-5.88,.02-6.82,.03-13.65,.03-20.47,0-9.24,0-18.49,0-27.73,0-9.92,0-19.84-.02-29.76,0-8.85-.02-17.71-.02-26.56,0-6.05-.01-12.09-.02-18.14,0-4.51,.13-9.06-.35-13.55-.34-3.19-.94-7.4-4.22-8.92-2.98-1.38-6.74-.32-9.81,.17-6.69,1.08-13.48,1.49-20.23,.69-8.88-1.05-17.37-4.38-24.57-9.68-10.06-7.4-16.98-18.25-21.85-29.58l-.9,2.2c8.54-3.58,17.09-7.16,25.63-10.73,1.21-.51,2.41-1.01,3.62-1.52l-1.85-1.05c2.56,8.76,9.32,16.96,17.81,20.39,3.63,1.47,7.6,2.04,11.51,1.85,2.83-.13,5.64-.64,8.44-1.05s5.37-.8,8.05-1.24c6.09-.99,12.25-2.01,18.18-3.75,1.37-.4,3.5-.8,4.53-1.92,1.31-1.42-.81-3.54-2.12-2.12h0Z"/></g><path class="cls-5" d="M136.79,11.31c5.82-8.7-10.57-13.6-15.54-6.16-12.21,18.27-18.58,39.13-19.8,61-.15,2.71-.19,5.43-.12,8.15-8.43-11.84-12.43-26.48-11.34-41.47,.67-9.21-16.77-8.2-17.46,1.14-1.87,25.55,10.4,50.31,31.08,65.18,.44,.31,.9,.57,1.38,.79,3.1,11.79,10.1,22.51,12.42,34.37,1.8,9.2,19.24,7.94,17.46-1.14-2.07-10.57-7.44-19.78-10.93-29.88-3.5-10.12-4.89-20.82-5.14-31.49-.5-21.45,6.13-42.73,18-60.49"/><path class="cls-5" d="M170.65,12.86c-4.99-9.2,11.77-12.57,16.04-4.71,10.49,19.31,14.91,40.67,14.12,62.56-.1,2.71-.31,5.42-.63,8.13,9.48-11.02,14.81-25.23,15.09-40.25,.18-9.24,17.46-6.63,17.28,2.74-.48,25.61-14.97,49.14-36.93,62.06-.47,.27-.95,.49-1.44,.66-4.17,11.46-12.12,21.49-15.52,33.08-2.64,9-19.88,6.15-17.28-2.74,3.03-10.34,9.22-19.01,13.62-28.75,4.41-9.76,6.78-20.29,8.01-30.89,2.47-21.31-2.18-43.11-12.37-61.88"/><path class="cls-2" d="M138.08,12.07c1.25-1.92,1.89-4.28,1.03-6.49-.76-1.98-2.46-3.45-4.36-4.32-4.19-1.92-9.66-1.76-13.25,1.35-1.15,.99-1.93,2.35-2.74,3.61-1.13,1.76-2.21,3.56-3.25,5.38-2.01,3.55-3.83,7.21-5.46,10.95-3.26,7.51-5.75,15.32-7.44,23.33-1.97,9.31-3,18.9-2.79,28.42l2.8-.76c-7-9.9-10.91-21.71-11.28-33.83-.04-1.43-.04-2.86,0-4.29,.04-1.22,.23-2.48,.13-3.7-.14-1.62-.79-3.14-1.95-4.3-2.22-2.2-5.65-2.77-8.64-2.4-3.28,.4-6.54,1.9-8.43,4.7-1.12,1.64-1.39,3.47-1.5,5.41-.15,2.69-.15,5.39,0,8.08,.64,10.88,3.73,21.55,8.9,31.14,2.88,5.34,6.41,10.34,10.46,14.86,1.99,2.23,4.12,4.34,6.36,6.32s4.78,4.37,7.54,5.7l-.69-.9c1.87,7.01,5.02,13.55,7.8,20.22,1.35,3.24,2.62,6.53,3.59,9.91,.71,2.47,.87,5.27,2.41,7.42,2.2,3.06,6.15,4.39,9.81,4.23s7.44-1.66,8.85-5.14c.86-2.11,.35-4.26-.16-6.39-.86-3.58-2.09-7.06-3.45-10.48-2.64-6.63-5.78-13.07-7.88-19.91-2.27-7.39-3.47-15.05-3.97-22.75-.46-7.23-.34-14.5,.69-21.68,2.24-15.63,8.12-30.57,16.85-43.7,1.07-1.61-1.52-3.12-2.59-1.51-7.02,10.55-12.27,22.32-15.27,34.65-3.06,12.56-3.62,25.52-2.15,38.35,.79,6.84,2.16,13.62,4.41,20.14,2.07,6,4.83,11.73,7.16,17.62,1.19,3.01,2.27,6.07,3.08,9.21,.44,1.7,1.2,3.81,.45,5.47-1.15,2.55-4.61,3.24-7.14,3.13-2.74-.13-5.81-1.38-6.88-4.1-.45-1.15-.58-2.46-.88-3.66-.39-1.55-.86-3.09-1.37-4.61-1.03-3.05-2.26-6.02-3.52-8.98s-2.62-6-3.84-9.04c-.55-1.37-1.08-2.75-1.56-4.14-.57-1.63-.89-3.47-1.56-5.05-.47-1.11-2.04-1.66-3-2.37-1.18-.88-2.34-1.8-3.46-2.75-2.09-1.77-4.09-3.66-5.97-5.64-7.65-8.06-13.49-17.85-16.84-28.44-1.64-5.19-2.71-10.55-3.12-15.98-.21-2.81-.25-5.64-.13-8.45,.08-1.76,.15-3.43,1.27-4.87,1.87-2.39,5.29-3.32,8.21-3.09,2.48,.2,5,1.49,5.1,4.2,.05,1.36-.15,2.76-.18,4.13-.03,1.57-.01,3.14,.07,4.71,.16,3.1,.53,6.19,1.11,9.23,1.13,5.95,3.12,11.74,5.87,17.14,1.36,2.67,2.92,5.23,4.66,7.68,.81,1.14,2.83,.84,2.8-.76-.34-15.06,2.31-30.32,7.51-44.44,2.58-7,5.85-13.74,9.74-20.1,1.34-2.19,2.54-4.76,4.96-5.93,1.68-.81,3.67-.98,5.5-.73s4.01,1.02,5.23,2.56,.76,3.31-.27,4.89,1.54,3.13,2.59,1.51h0Z"/><path class="cls-2" d="M171.95,12.11c-.77-1.46-1.05-3.07-.07-4.4,.88-1.2,2.48-1.87,3.94-2.2,3.46-.78,7.73,.14,9.59,3.4,7.51,13.17,11.79,28.5,13.33,43.52,.9,8.76,.97,17.65-.04,26.41-.15,1.27,1.75,2,2.56,1.06,7.8-9.12,12.93-20.31,14.74-32.18,.46-3.03,.69-6.07,.8-9.13,.04-1.26,.52-2.4,1.49-3.14,2.26-1.71,5.8-1.28,8.24-.22,1.35,.59,2.65,1.49,3.51,2.7,1.07,1.52,1.07,3.11,1,4.91-.22,5.47-1.11,10.89-2.61,16.15-2.96,10.41-8.33,20.11-15.5,28.22-3.61,4.08-7.65,7.79-12.07,10.98-2.25,1.63-4.57,3.16-7.05,4.41-1.31,.66-1.62,2.6-2.17,3.89-.62,1.46-1.3,2.89-2,4.3-2.82,5.68-6.13,11.11-8.84,16.84-1.33,2.82-2.52,5.71-3.44,8.69-.47,1.52-1.21,2.75-2.6,3.6-2.54,1.55-6.05,1.57-8.75,.41-1.21-.52-2.4-1.34-2.99-2.54-.76-1.53-.16-3.13,.36-4.7,2.02-6.1,5.16-11.72,8.2-17.35s6.02-11.67,8.1-17.94c8.32-25.12,7.01-52.71-3.47-76.96-1.29-2.98-2.71-5.89-4.25-8.74-.92-1.7-3.51-.19-2.59,1.51,6.87,12.72,11.24,26.83,12.46,41.25,1.23,14.56-.68,29.66-5.49,43.46-2.37,6.79-5.82,13.04-9.21,19.35-1.64,3.07-3.24,6.16-4.62,9.36-1.17,2.72-2.74,5.86-2.86,8.87-.16,3.77,2.89,6.45,6.21,7.55,3.51,1.16,7.89,.89,10.96-1.31,2.09-1.5,2.93-3.48,3.7-5.85,1.19-3.68,2.83-7.19,4.6-10.63,3.63-7.03,7.8-13.78,10.54-21.24l-1.05,1.05c2.57-.95,4.93-2.7,7.15-4.27s4.39-3.28,6.45-5.08c4-3.51,7.61-7.44,10.81-11.68,6.45-8.55,11.09-18.51,13.38-28.98,.59-2.68,1.02-5.4,1.3-8.13,.26-2.45,.64-5.12,.25-7.57-.53-3.35-3.11-5.9-6.12-7.23s-6.78-1.73-9.89-.34c-1.32,.59-2.49,1.56-3.22,2.82-1.08,1.87-.91,3.99-1.03,6.07-.76,13.4-5.82,26.45-14.56,36.67l2.56,1.06c1.94-16.85,.2-34.4-4.87-50.58-1.26-4.01-2.74-7.94-4.41-11.79-.83-1.92-1.71-3.81-2.65-5.68-.79-1.58-1.52-3.27-2.63-4.66-2.87-3.6-8.15-4.54-12.44-3.44-2.18,.56-4.36,1.76-5.56,3.73-1.39,2.28-.97,4.93,.22,7.2,.9,1.71,3.49,.2,2.59-1.51h0Z"/><g><path class="cls-8" d="M235.28,150.41s-.02,.08-.04,.23c-.6,2.48-6.31,18.97-32.91,17.75-6.54-.3-10.42-2.92-12.45-4.91-.72-.71-1.92-.24-1.96,.76l-1.58,34.29c-.34,7.31-1.14,14.24-4.75,20.15-7.76,12.7-23.22,18.12-38.92,17.11-15.34-.99-29.79-7.55-36.02-20.56-2.83-5.92-2.87-12.53-2.55-19.54l1.62-35.22c.05-1-1.11-1.57-1.89-.94-2.2,1.79-6.31,4.05-12.85,3.75-26.6-1.22-30.78-18.17-31.15-20.69,0-.15-.02-.24-.02-.24l15.93-3.22c8.82-1.79,18.08,.44,24.86,6.36,.05,.04,.1,.09,.15,.13,1.92,1.69,4.57,2.59,7.46,2.13,3.53-.56,6.47-3.3,7.28-6.78,.37-1.57,.32-3.1-.06-4.49-.25-.94,.33-1.9,1.26-2.21l16.91-5.59c.88-.29,1.83,.11,2.25,.93,1.66,3.24,6.16,10.84,11.95,11.1,5.93,.27,11.22-7.24,13.05-10.18,.42-.66,1.24-.91,1.96-.6l16.84,7.34c.79,.35,1.13,1.25,.82,2.06-.54,1.39-.75,2.95-.52,4.6,.49,3.54,3.16,6.54,6.63,7.42,2.83,.72,5.56,.07,7.62-1.44,.06-.04,.11-.08,.16-.12,7.3-5.27,16.72-6.64,25.34-4.05l15.57,4.67Z"/><path class="cls-2" d="M233.84,150.01c-.16,.75-.41,1.46-.7,2.17,.15-.38-.17,.36-.23,.5-.13,.28-.27,.56-.42,.84-.34,.64-.7,1.26-1.1,1.86-2.12,3.22-5.23,5.91-8.73,7.77-5.63,2.99-12.15,3.9-18.46,3.8-3.71-.06-7.38-.58-10.61-2.5-1.02-.61-1.86-1.36-2.76-2.11-1.31-1.09-3.29-.8-4.11,.75-.41,.78-.34,1.85-.38,2.72l-.22,4.87c-.22,4.73-.43,9.46-.65,14.2-.18,3.94-.36,7.88-.54,11.82-.23,5.08-.48,10.2-1.94,15.11-4.48,15.06-20.49,22.2-35.12,22.6s-30.17-4.25-38.11-16.68c-5.76-9.01-4.24-19.97-3.77-30.14,.39-8.55,.79-17.1,1.18-25.65,.04-.91,.2-1.92-.24-2.76-.86-1.62-2.8-1.69-4.14-.7-.97,.72-1.97,1.35-3.07,1.85-3.59,1.62-7.53,1.63-11.37,1.28-3.47-.31-6.92-.98-10.22-2.1-4.61-1.56-8.87-4.13-12.08-7.81-1.1-1.27-2.06-2.67-2.86-4.17-.69-1.29-.97-1.94-1.4-3.32-.13-.4-.24-.81-.34-1.23-.03-.15-.06-.3-.09-.44-.05-.24-.05-.34-.03-.17l-1.1,1.45c4.84-.98,9.68-1.96,14.52-2.94,3.34-.68,6.66-1.03,10.07-.67,5.25,.54,10.4,2.68,14.43,6.09,1.95,1.65,3.98,2.81,6.58,3.04s5.01-.45,7.02-1.9,3.4-3.4,4.03-5.71c.37-1.35,.47-2.76,.3-4.15-.08-.69-.5-1.59,0-1.87,.6-.34,1.45-.48,2.1-.69l3.94-1.3c2.88-.95,5.75-1.9,8.63-2.85,.66-.22,1.41-.6,2.1-.69,.59-.08,.64,.27,.91,.76,.39,.74,.81,1.46,1.25,2.17,2.17,3.49,5.03,7.1,9,8.59,4.29,1.61,8.49-.64,11.6-3.55,1.49-1.4,2.79-2.98,3.99-4.63,.42-.58,.97-1.22,1.28-1.87,.02-.05,.37-.44,.12-.38,.05-.01,.13,.07,.18,.08,.72,.07,1.66,.72,2.31,1.01l4,1.74,8.32,3.62c.56,.24,1.49,.45,1.96,.85,.41,.35,.09,.62-.07,1.17-.43,1.5-.5,3.09-.26,4.62,.75,4.84,4.92,8.46,9.76,8.79,2.68,.18,5.05-.77,7.2-2.27s4.71-2.8,7.33-3.62c5.22-1.63,10.86-1.66,16.12-.16,4.81,1.37,9.58,2.87,14.36,4.31,.53,.16,1.07,.32,1.6,.48,1.85,.56,2.65-2.34,.8-2.89-4.73-1.42-9.46-2.84-14.19-4.26-3.36-1.01-6.76-1.72-10.29-1.74-5.42-.03-10.85,1.4-15.52,4.17-2.32,1.37-4.14,3.07-7.01,3-2.44-.06-4.74-1.33-6.08-3.37-.65-.99-1.07-2.11-1.2-3.29-.16-1.49,.29-2.65,.61-4.06,.35-1.52-.48-2.92-1.84-3.56-4.85-2.26-9.82-4.28-14.72-6.41-.61-.27-1.22-.55-1.83-.8-2.02-.83-3.38,.13-4.47,1.79-2.09,3.19-4.84,6.7-8.44,8.22-4.15,1.75-7.73-1.33-10.17-4.43-1.14-1.45-2.11-3.03-2.99-4.65-.93-1.72-2.29-2.9-4.37-2.34s-3.98,1.32-5.96,1.97c-2.91,.96-5.83,1.92-8.74,2.89-.69,.23-1.4,.44-2.08,.69-1.93,.7-2.75,2.32-2.34,4.3,1.08,5.24-3.35,10.25-8.79,9.14-2.56-.52-4.23-2.48-6.3-3.91-2.19-1.52-4.61-2.72-7.13-3.6-5.08-1.77-10.6-2.11-15.88-1.15-4.95,.9-9.88,1.99-14.81,2.99-.57,.12-1.15,.23-1.72,.35s-1.18,.83-1.1,1.45c.78,6.25,5.09,11.85,10.03,15.49s11.04,5.58,17.09,6.42c4.05,.56,8.21,.88,12.22-.1,1.54-.38,3.05-.95,4.45-1.69,.56-.3,1.1-.63,1.62-.99,.23-.16,.49-.32,.69-.51l.15-.12c.22-.12,.23-.16,.02-.12,.04,.08-.47-.2-.37-.26-.19,.12-.09,1.88-.1,2.1l-.24,5.17c-.22,4.89-.45,9.77-.67,14.66l-.54,11.66c-.25,5.47-.5,11.01,.74,16.39,3.48,15.11,18.52,23.74,32.83,26.1s31.41-.17,42.12-11.27c2.67-2.77,4.9-6,6.39-9.55,1.69-4.06,2.42-8.41,2.8-12.77,.28-3.22,.38-6.46,.53-9.69,.41-8.91,.82-17.82,1.23-26.74,.01-.26,.31-2.1,.1-2.28,.19,.16-.54,.29-.52,.36,.02,.13,.43,.4,.54,.5,.52,.45,1.06,.87,1.62,1.27,1.28,.9,2.69,1.59,4.16,2.14,3.79,1.43,7.96,1.55,11.96,1.4,3.51-.13,7.05-.6,10.43-1.56,7.99-2.26,15.22-7.55,18.42-15.38,.29-.71,.54-1.42,.7-2.17,.41-1.88-2.48-2.69-2.89-.8Z"/></g><g><path class="cls-5" d="M235.28,150.41l-15.57-4.67c-8.62-2.59-18.04-1.22-25.34,4.05-.06,.04-.11,.08-.16,.12-.49,.36-1.02,.67-1.58,.92,.03-.01,.06-.02,.08-.03-15.62,8.4-39.78,21.88-41.42,41.86l-3.06-.57c-1.71-.32-3.46-.39-5.2-.21l-2.7,.28c-1.02-19.73-23.38-35.72-38.17-45.51,.03,.02,.07,.03,.1,.05-.54-.31-1.04-.66-1.5-1.07-.05-.04-.1-.09-.15-.13-6.78-5.92-16.04-8.14-24.86-6.36l-15.93,3.23s.01,.08,.02,.23h0c.24,3.03,3.82,29.87,30.67,31.1,6.4,.29,11.89-1.43,14.8-4.08h0s-1.2,26.08-1.2,26.08c-.32,7.01-.28,13.62,2.55,19.54,6.23,13.02,20.68,19.57,36.02,20.56,15.7,1.01,31.16-4.41,38.92-17.11,3.61-5.91,4.41-12.84,4.75-20.15l1.16-25.15c2.65,2.91,7.96,5.12,14.36,5.42,26.85,1.23,32.87-25.16,33.39-28.16h0c.02-.15,.04-.23,.04-.23Z"/><path class="cls-2" d="M235.68,148.96c-3.96-1.19-7.92-2.38-11.88-3.57-1.49-.45-2.98-.93-4.49-1.33-4.35-1.18-8.92-1.39-13.37-.66-2.54,.42-5,1.18-7.35,2.23s-4.39,2.77-6.73,3.9c-1.51,.73-.42,3.4,1.16,2.74l.08-.03-1.16-2.74c-7.1,3.81-14.15,7.76-20.69,12.49s-13.24,10.64-17.42,17.95c-2.24,3.92-3.66,8.21-4.06,12.72l1.9-1.45c-1.77-.33-3.54-.73-5.34-.87-2.02-.16-4.02,.11-6.02,.32l1.5,1.5c-.98-16.95-15.36-29.78-28.05-39.24-3.54-2.64-7.19-5.13-10.87-7.57l-1.51,2.59,.1,.05c1.71,.89,3.18-1.6,1.51-2.59-1.86-1.11-3.39-2.71-5.24-3.85s-4-2.15-6.14-2.89c-4.23-1.45-8.84-1.93-13.28-1.43s-9.12,1.7-13.62,2.61c-1.78,.36-3.55,.72-5.33,1.08-.58,.12-1.18,.83-1.1,1.45,.01,.08,.02,.16,.02,.23l1.9-1.45h0c-.88-.25-1.98,.47-1.9,1.45,.45,5.41,2.26,10.88,4.81,15.65,4.53,8.46,12.31,14.52,21.8,16.31,7.03,1.33,15.77,1.13,21.41-3.87l-1.82,.23h0c-.25-.43-.5-.86-.74-1.3-.37,7.96-.73,15.92-1.1,23.89-.27,5.93-.61,11.97,.91,17.77,1.98,7.55,7.28,13.88,13.69,18.15s14.35,6.67,22.14,7.59,16.37,.32,24.02-2.39c7.25-2.57,13.74-7.03,18.21-13.35,4.77-6.74,5.79-14.87,6.16-22.91s.74-16.13,1.11-24.19l.04-.78-2.56,1.06c4.49,4.78,11.94,6.05,18.19,5.89,5.33-.14,10.63-1.44,15.25-4.14,7.08-4.13,11.97-11.07,14.89-18.61,.82-2.11,1.53-4.31,1.93-6.54,.2-1.12-.66-2.14-1.85-1.85h0c.62,.62,1.23,1.23,1.85,1.85,.01-.08,.03-.16,.04-.23,.42-1.88-2.47-2.68-2.89-.8-.02,.08-.03,.15-.04,.23-.2,1.12,.67,2.14,1.85,1.85h0c-.62-.62-1.23-1.23-1.85-1.85-.85,4.8-2.85,9.41-5.44,13.49-4.64,7.3-11.95,12.36-20.64,13.38-6.31,.74-14.54,.14-19.17-4.79-.93-.99-2.5-.18-2.56,1.06-.35,7.63-.7,15.27-1.05,22.9-.26,5.63-.5,11.32-2.34,16.7-2.49,7.29-8.26,13.04-14.99,16.58s-14.61,4.97-22.24,4.84-15.41-1.68-22.26-5.1c-6.49-3.24-12.01-8.22-15.16-14.83-2.91-6.12-2.6-13.14-2.3-19.73,.37-8.14,.75-16.28,1.12-24.42l.03-.71c.02-.49-.3-1.07-.74-1.3h0c-.63-.32-1.29-.23-1.82,.23-4.56,4.05-12.03,4.18-17.71,3.24-4.67-.77-9.17-2.54-12.92-5.47-5.68-4.45-9.28-11.05-11.15-17.93-.35-1.28-.64-2.57-.87-3.88-.04-.24-.08-.48-.12-.73-.02-.11-.03-.22-.05-.32-.05-.35,.04,.32,0-.02-.03-.28-.07-.57-.09-.86l-1.9,1.45h0c.87,.25,1.98-.47,1.9-1.45,0-.08-.01-.16-.02-.23l-1.1,1.45c3.91-.79,7.82-1.58,11.73-2.37,1.4-.28,2.8-.57,4.2-.85,4.23-.83,8.62-.72,12.79,.39,2.33,.62,4.56,1.54,6.65,2.75s3.84,3.02,5.93,4.27l1.51-2.59-.1-.05c-1.72-.9-3.12,1.52-1.51,2.59,6.41,4.24,12.71,8.66,18.52,13.71s11.78,11.27,15.48,18.47c1.92,3.74,3.19,7.82,3.43,12.03,.04,.75,.65,1.59,1.5,1.5,1.84-.19,3.69-.45,5.54-.35,1.69,.09,3.36,.49,5.02,.8,1.02,.19,1.81-.42,1.9-1.45,.68-7.66,4.96-14.34,10.21-19.74,5.67-5.83,12.46-10.47,19.41-14.62,3.63-2.17,7.33-4.2,11.06-6.2,1.46-.79,.44-3.4-1.16-2.74l-.08,.03,1.16,2.74c1.96-.95,3.65-2.4,5.62-3.38s4.02-1.67,6.15-2.14c4.33-.95,8.88-.82,13.16,.3,3.93,1.03,7.81,2.32,11.7,3.49,1.62,.49,3.25,.97,4.87,1.46,1.85,.56,2.65-2.34,.8-2.89Z"/></g><path class="cls-7" d="M127.49,197.79c-.1,2.09-4.08,3.6-8.9,3.38-4.82-.22-8.65-2.09-8.56-4.18,.1-2.09,4.08-3.6,8.9-3.38s8.65,2.09,8.55,4.18"/><path class="cls-7" d="M180.15,200.21c-.1,2.09-4.08,3.6-8.9,3.38-4.82-.22-8.65-2.09-8.56-4.18,.1-2.09,4.08-3.6,8.9-3.38,4.82,.22,8.65,2.09,8.55,4.18"/><g><path class="cls-3" d="M153.49,202.73c-1.21,5.41-7.5,7.4-8.77,7.75-.05,0-.18,0-.23-.01-1.24-.47-7.34-3.02-8.03-8.52-.28-2.14,.23-4.17,2.05-4.63,3.32-.85,5.64,1.42,6.59,2.23,.87-.73,3.48-3.06,6.77-1.62,1.71,.75,2.09,2.7,1.62,4.8"/><path class="cls-2" d="M152.05,202.33c-.55,2.3-2.15,3.98-4.13,5.16-.43,.26-.88,.49-1.33,.71-.51,.24-.52,.24-1.07,.45-.27,.1-.55,.18-.83,.28,0,0-.31,.09-.31,.09-.01-.05,.46-.04,.46-.02,0,0-.18-.08-.19-.08-.01,0-.32-.13-.06-.02,.22,.09,0,0-.05-.02-.16-.07-.31-.14-.47-.21-.43-.2-.85-.43-1.26-.66-.9-.52-1.67-1.07-2.41-1.77-1.66-1.57-3.12-4.17-2.36-6.52,.44-1.35,2.13-1.22,3.26-.86s1.91,1.05,2.74,1.76c.66,.56,1.46,.55,2.12,0,.46-.39,.72-.61,1.36-.98,.7-.41,1.46-.66,2.27-.66,.7,0,1.66,.2,2.07,.83,.47,.73,.35,1.74,.18,2.54-.39,1.88,2.5,2.69,2.89,.8,.32-1.52,.38-3.14-.34-4.57s-2.14-2.21-3.66-2.47c-2.67-.46-4.92,.74-6.9,2.4h2.12c-1.12-.97-2.25-1.85-3.65-2.39-1.69-.65-3.95-.73-5.53,.26-3.25,2.04-2.25,7.22-.47,9.89,1.51,2.27,3.8,3.98,6.26,5.11,.91,.42,1.65,.76,2.67,.47,.96-.28,1.9-.68,2.8-1.11,3.14-1.52,5.87-4.1,6.7-7.59,.45-1.88-2.45-2.68-2.89-.8h0Z"/></g><path class="cls-1" d="M160.26,217.19c-.15,3.27-1.67,6.73-3.59,9.4-3.64,5.05-13.54,7.49-21.53,2.64-.95-.58-1.77-1.54-2.52-2.44-1.93-2.38-3.44-7.85-3.17-11l1.42,.05c.1,.02,.2,.03,.28,.03l.5,.02c.72,.03,1.38,.08,2.03,.13,8.07,.52,10.98,1.21,11.28-5.37-.3,6.57,2.68,6.16,10.76,6.38,.65,.01,1.34,.03,2.05,.06l.49,.02c.17,0,1.77,.08,1.99,.07"/><path class="cls-8" d="M154.96,223.71c-3.91,5.83-13.73,6.07-18.58,2.29-.77-.58-1.53-1.32-2.18-2.1-1.66-2.06-2.01-5.62-1.78-8.35,0-.09,0-.19,.03-.29,.67,.03,1.29,.07,1.89,.12,7.51,.49,10.22,1.12,10.5-5.02-.28,6.14,2.49,5.75,10.01,5.96,.6,.01,1.24,.03,1.91,.06,.13,2.63-.59,5.52-1.81,7.34"/><path class="cls-6" d="M153.4,217.22c-.11,1.72-.58,3.45-1.31,4.62-2.8,4.54-9.81,4.75-13.25,1.84-.55-.46-1.09-1.03-1.53-1.64-1.03-1.39-1.36-3.66-1.3-5.62,6.37,.42,8.66,1,8.92-4.66-.26,5.66,2.09,5.3,8.47,5.46"/><path class="cls-2" d="M116.17,181.6c0-.07,0-.14,.02-.22-.03,.22-.04,.25,0,.08,.02-.1,.04-.21,.07-.31s.06-.2,.09-.3c.09-.28-.16,.26,.03-.07,.08-.14,.2-.48,.35-.57-.13,.17-.15,.19-.04,.07l.07-.08c.09-.1,.19-.19,.29-.28l.08-.07c.13-.1,.1-.09-.06,.05,0-.03,.23-.15,.25-.17,.1-.06,.21-.11,.31-.17,.33-.18-.22,.05,.07-.03,.09-.02,.54-.22,.6-.16-.23,.03-.25,.03-.08,.01,.07,0,.14-.01,.21-.01,.11,0,.22,0,.33,0,.05,0,.11,0,.16,.01,.12,.01,.07,0-.13-.02,.09-.02,.27,.05,.36,.08,.12,.03,.23,.07,.35,.11,.33,.1-.28-.15,.02,0,.15,.08,.54,.22,.61,.37l-.14-.11c.05,.04,.1,.09,.15,.13,.07,.07,.15,.14,.22,.21,.04,.05,.25,.36,.14,.16-.12-.21,.09,.15,.11,.18,.05,.09,.1,.18,.15,.27,.03,.06,.06,.12,.09,.19l-.07-.17s.23,.65,.19,.7c-.02-.21-.03-.25-.02-.14,0,.05,.01,.11,.01,.16,0,.14,0,.29,0,.43-.03,.79,.71,1.54,1.5,1.5,.83-.04,1.47-.66,1.5-1.5,.07-2.22-1.26-4.28-3.3-5.14s-4.52-.38-6.03,1.27c-.9,.98-1.38,2.19-1.46,3.51-.05,.78,.72,1.53,1.5,1.5,.85-.04,1.45-.66,1.5-1.5h0Z"/><path class="cls-2" d="M179.45,184.5c.07-2.22-1.26-4.28-3.3-5.14s-4.52-.38-6.03,1.27c-.9,.98-1.38,2.19-1.46,3.51-.05,.78,.72,1.53,1.5,1.5,.85-.04,1.45-.66,1.5-1.5,0-.07,0-.14,.02-.22-.03,.22-.04,.25,0,.08,.02-.1,.04-.21,.07-.31s.06-.2,.09-.3c.09-.28-.16,.26,.03-.07,.08-.14,.2-.48,.35-.57-.13,.17-.15,.19-.04,.07l.07-.08c.09-.1,.19-.19,.29-.28l.08-.07c.13-.1,.1-.09-.06,.05,0-.03,.23-.15,.25-.17,.1-.06,.21-.11,.31-.17,.33-.18-.22,.05,.07-.03,.09-.03,.54-.22,.6-.16-.23,.03-.25,.03-.08,.01,.07,0,.14-.01,.21-.01,.11,0,.22,0,.33,0,.05,0,.11,0,.16,.01,.12,.01,.07,0-.13-.02,.09-.02,.27,.05,.36,.08,.12,.03,.23,.07,.35,.11,.33,.1-.28-.15,.02,0,.15,.08,.53,.22,.61,.37l-.14-.11c.05,.04,.1,.09,.15,.13,.07,.07,.15,.14,.22,.21,.04,.05,.25,.36,.14,.16-.12-.21,.09,.15,.11,.18,.05,.09,.1,.18,.15,.27,.03,.06,.06,.12,.09,.19l-.07-.17s.23,.65,.19,.7c-.02-.21-.03-.25-.02-.14,0,.05,.01,.11,.01,.16,0,.14,0,.29,0,.43-.03,.79,.71,1.54,1.5,1.5,.83-.04,1.47-.66,1.5-1.5h0Z"/><path class="cls-2" d="M121.25,208.76c.03,2.69,1.05,5.1,3.28,6.68,1.67,1.18,3.72,1.67,5.73,1.86,2.57,.24,5.17,.38,7.75,.5,1.94,.09,4.17,.16,5.87-.92,2.09-1.33,2.47-3.95,2.59-6.22,.1-1.93-2.9-1.92-3,0-.05,.97-.18,2.23-.57,2.96-.32,.61-.6,.81-1.29,1-2.15,.6-4.96,.1-7.26-.06-4.07-.27-10.05-.13-10.11-5.8-.02-1.93-3.02-1.93-3,0h0Z"/><path class="cls-2" d="M143.47,210.65c-.08,2.01,.05,4.3,1.52,5.85,1.33,1.4,3.38,1.69,5.2,1.84,2.72,.23,5.48,.21,8.21,.28,1.97,.06,3.97-.17,5.78-.97,2.85-1.26,4.3-3.83,4.61-6.84,.2-1.92-2.8-1.9-3,0-.59,5.67-6.98,4.8-11.06,4.7-2.09-.05-5.08,.16-6.84-.61-.18-.08-.37-.18-.53-.29-.37-.25,.17,.17-.15-.13-.16-.15-.36-.45-.42-.6-.42-1-.36-2.17-.32-3.23,.08-1.93-2.92-1.93-3,0h0Z"/><g><path class="cls-4" d="M2.06,181.91c-2.12-12.88,1.75-21.38,11.12-25.38s19.75,8.62,19.75,8.62c0,0,4.88-5.5,9.62-2.12s2.88,12.12,2.12,20,.75,15.75,2.12,18-31,14.5-31,14.5c0,0-11.62-20.75-13.75-33.62Z"/><path class="cls-2" d="M3.51,181.51c-1.19-7.4-.57-15.73,5.6-20.83,2.59-2.14,5.95-3.85,9.39-3.33s6.32,2.38,8.85,4.45c1.62,1.33,3.19,2.8,4.53,4.42,.5,.6,1.62,.56,2.12,0,1.42-1.59,3.74-3.12,5.96-2.72,3.88,.69,4.27,5.45,4.23,8.58-.07,4.64-1.03,9.21-1.18,13.84s.2,9.2,1.52,13.48c.2,.65,.44,1.3,.74,1.92,.05,.09,.1,.24,.17,.33,.25,.33-.04-.04-.04-.15,0-.4-.02-.46,.09-.83-.07,.23,.16-.12,.06-.06-.08,.04-.15,.15-.21,.22-.09,.08-.18,.16-.27,.23,.33-.27-.12,.08-.22,.15-1.58,1.04-3.28,1.89-4.99,2.71-4.77,2.3-9.68,4.32-14.59,6.31-3.27,1.32-6.55,2.62-9.85,3.86l1.69,.69c-4.27-7.64-8.12-15.66-11.04-23.92-1.08-3.05-2.02-6.16-2.56-9.35-.32-1.9-3.21-1.09-2.89,.8,1,5.91,3.26,11.6,5.62,17.08,2.06,4.79,4.34,9.49,6.77,14.11,.49,.94,.99,1.87,1.51,2.8,.3,.53,1.09,.92,1.69,.69,8.54-3.23,17.12-6.58,25.34-10.56,1.75-.85,3.55-1.7,5.12-2.85,.54-.39,1.1-.83,1.43-1.43,.52-.97,.03-1.67-.35-2.57-.76-1.81-1.09-3.89-1.35-5.82-.37-2.74-.49-5.54-.37-8.3,.2-4.89,1.3-9.72,1.15-14.63-.13-4.32-1.72-9.33-6.58-10.24-3.22-.6-6.6,1.15-8.72,3.52h2.12c-3.56-4.31-8.83-8.55-14.42-9.59-8.05-1.5-15.7,5.12-18.25,12.35-1.75,4.95-1.53,10.35-.71,15.45,.31,1.9,3.2,1.09,2.89-.8Z"/></g><g><path class="cls-8" d="M127.49,197.79c-.1,2.09-4.08,3.6-8.9,3.38-4.82-.22-8.65-2.09-8.56-4.18,.1-2.09,4.08-3.6,8.9-3.38s8.65,2.09,8.55,4.18"/><path class="cls-2" d="M125.99,197.79c.03-.36-.15,.3-.02,.03-.09,.18,.02,.03-.17,.24-.3,.31-.62,.49-1.05,.7-1.05,.51-2.29,.75-3.45,.86-2.74,.26-5.9,.05-8.37-1.28-.39-.21-.74-.42-1.04-.72-.14-.13-.2-.22-.23-.26-.18-.25,.03-.08-.15-.36,.07,.12,.02,.07,.02,.06,.12-.24,0-.09,.07-.18,.16-.2,.5-.47,.82-.65,2.27-1.29,5.39-1.3,7.9-.99,1.42,.17,2.91,.51,4.18,1.17,.47,.25,.91,.5,1.26,.89,.11,.13,.13,.1,.22,.33-.09-.23,0,0,0,.04,.09,.31,.01-.2,0,.14-.01,1.93,2.99,1.93,3,0,.02-3.26-4.08-4.73-6.68-5.26-3.58-.73-7.81-.74-11.14,.95-1.17,.6-2.27,1.58-2.56,2.9s.39,2.71,1.42,3.58c2.73,2.32,6.95,2.85,10.4,2.7,3.06-.14,8.23-1.02,8.56-4.88,.17-1.92-2.83-1.91-3,0h0Z"/></g><g><path class="cls-8" d="M180.15,200.21c-.1,2.09-4.08,3.6-8.9,3.38-4.82-.22-8.65-2.09-8.56-4.18,.1-2.09,4.08-3.6,8.9-3.38,4.82,.22,8.65,2.09,8.55,4.18"/><path class="cls-2" d="M178.65,200.21c.03-.36-.15,.3-.02,.03-.09,.18,.02,.03-.17,.24-.3,.31-.62,.49-1.05,.7-1.05,.51-2.29,.75-3.45,.86-2.74,.26-5.9,.05-8.37-1.28-.39-.21-.74-.42-1.04-.72-.14-.13-.2-.22-.23-.26-.18-.25,.03-.08-.15-.36,.07,.12,.02,.07,.02,.06,.12-.24,0-.09,.07-.18,.16-.2,.5-.47,.82-.65,2.27-1.29,5.39-1.3,7.9-.99,1.42,.17,2.91,.51,4.18,1.17,.47,.25,.91,.5,1.26,.89,.11,.13,.13,.1,.22,.33-.09-.23,0,0,0,.04,.09,.31,.01-.2,0,.14-.01,1.93,2.99,1.93,3,0,.02-3.26-4.08-4.73-6.68-5.26-3.58-.73-7.81-.74-11.14,.95-1.17,.6-2.27,1.58-2.56,2.9s.39,2.71,1.42,3.58c2.73,2.32,6.95,2.85,10.4,2.7,3.06-.14,8.23-1.02,8.56-4.88,.17-1.92-2.83-1.91-3,0h0Z"/></g><g><path class="cls-4" d="M29.62,178.41s-5.06,6.56-1.5,15.56c0,0-.75-8.62-11.06-5.62"/><path class="cls-2" d="M28.33,177.66c-1.07,1.4-1.78,3.18-2.26,4.85-1.14,3.91-.85,8.09,.61,11.87,.27,.7,.86,1.19,1.65,1.07,.68-.1,1.37-.72,1.3-1.47-.33-3.66-2.97-6.93-6.67-7.58-2.11-.37-4.25-.07-6.29,.51-1.85,.53-1.07,3.42,.8,2.89,1.04-.3,2.09-.53,3.18-.57,.9-.03,1.44,0,2.18,.2s.86,.24,1.55,.7c.06,.04,.47,.36,.17,.12,.12,.1,.23,.2,.34,.3,.2,.19,.38,.39,.56,.6,.07,.09,.05,.05-.07-.1,.04,.06,.08,.11,.12,.17,.07,.11,.15,.22,.22,.34,.14,.22,.26,.44,.37,.67,.05,.11,.1,.22,.15,.33-.07-.16-.1-.26-.02-.04,.07,.2,.14,.39,.2,.59,.09,.29,.15,.58,.21,.87,.11,.53-.02-.26,0,0l2.95-.4c-1.31-3.37-1.61-6.96-.56-10.44,.36-1.19,.6-1.78,1.2-2.84,.21-.38,.44-.77,.71-1.12,.49-.64,.1-1.68-.54-2.05-.77-.45-1.56-.11-2.05,.54h0Z"/></g><g><path class="cls-4" d="M31.69,173.16s-.56-9.38,4.88-10.5"/><path class="cls-2" d="M33.19,173.16c-.06-1.02,0-2.05,.11-3.06,0-.08,0-.26,.04-.31,0,0-.05,.34-.02,.17,.01-.06,.02-.12,.03-.18,.04-.24,.08-.47,.12-.71,.09-.47,.2-.94,.34-1.4,.07-.22,.14-.45,.22-.67,.04-.11,.09-.22,.13-.33-.14,.39,0,0,.05-.1,.21-.45,.48-.85,.75-1.26-.18,.27-.04,.06,.07-.07,.08-.1,.17-.19,.26-.28s.19-.17,.28-.26c.07-.07,.21-.11-.08,.06,.05-.03,.1-.08,.16-.11,.11-.07,.22-.14,.33-.2,.06-.04,.47-.23,.27-.14s.19-.06,.25-.08c.15-.05,.3-.08,.46-.12,.79-.17,1.25-1.09,1.05-1.85-.22-.82-1.05-1.22-1.85-1.05-4.68,1.02-5.88,6.6-5.99,10.68-.01,.42-.02,.84,0,1.26,.05,.81,.66,1.5,1.5,1.5,.78,0,1.55-.69,1.5-1.5h0Z"/></g><g><path class="cls-5" d="M120.81,332.66s18,7.75,44.5,.5"/><path class="cls-2" d="M120.06,333.96c2.57,1.1,5.33,1.79,8.07,2.35,6.97,1.42,14.16,1.76,21.24,1.19,5.53-.45,10.99-1.44,16.34-2.89,1.86-.5,1.07-3.4-.8-2.89-13.24,3.58-27.87,4.49-41.12,.4-.63-.19-1.26-.4-1.88-.63-.23-.08-1.05-.42-.33-.12-1.76-.75-3.29,1.83-1.51,2.59h0Z"/></g><g><path class="cls-4" d="M208.06,338.54s2.88,7.75-5.38,15.88c-4.72,4.65-16.78,11.41-30.19-.78s-7.03-38.44,6.84-39.66,28.72,24.56,28.72,24.56Z"/><path class="cls-2" d="M206.62,338.94c.99,2.72,.34,6.28-.98,8.97-2.12,4.33-5.96,7.81-10.39,9.67-4.83,2.03-10.23,1.86-14.96-.4-5.18-2.48-9.69-6.63-11.87-12.01-3.28-8.11-2.32-19.21,3.78-25.83,2.52-2.73,6.02-4.41,9.78-3.78,4.24,.7,7.95,3.47,11.05,6.3,5.39,4.93,9.68,10.9,13.53,17.07,.07,.12,.14,.24,.21,.36,.96,1.67,3.56,.16,2.59-1.51-3.54-6.14-8-12.03-13.07-16.97-3.47-3.37-7.58-6.63-12.34-7.89-4.45-1.17-8.9-.04-12.4,2.89-7.7,6.46-9.5,18.9-6.73,28.09,3.5,11.63,16.37,20.58,28.56,17.45,9.42-2.42,18.61-12.13,16.36-22.41-.06-.27-.12-.55-.22-.81-.66-1.8-3.56-1.02-2.89,.8Z"/></g><path class="cls-2" d="M181.11,345.14c-.03-.3-.01-.6,0-.89,0-.14,.03-.28,.04-.42,.03-.36-.05,.27-.02,.11,.02-.1,.03-.21,.05-.31,.07-.41,.17-.82,.3-1.22,.07-.23,.16-.45,.24-.67,.12-.34-.1,.21,0,0,.07-.13,.12-.27,.19-.41,.26-.52,.57-1,.91-1.47-.19,.27-.05,.06,.06-.07s.21-.25,.33-.37c.23-.26,.48-.5,.74-.73,.11-.1,.22-.19,.33-.28,.01,0,.3-.23,.11-.09s.11-.08,.12-.09c.33-.23,.66-.45,1.01-.65,.4-.23,.81-.43,1.23-.63,.06-.03,.34-.14,.09-.04,.13-.05,.27-.11,.4-.16,.23-.09,.47-.17,.7-.25,1.18-.39,2.39-.65,3.62-.83,.8-.12,1.24-1.13,1.05-1.85-.24-.86-1.04-1.17-1.85-1.05-3.68,.54-7.53,1.93-9.98,4.86-1.52,1.81-2.42,3.98-2.65,6.33-.04,.39-.07,.8-.03,1.19,.07,.81,.64,1.5,1.5,1.5,.75,0,1.57-.69,1.5-1.5h0Z"/><g><path class="cls-4" d="M194.69,302.91s-15.81-.38-15.81,11.81,8.88,20.4,21.78,22.12c13.53,1.81,17.9-7.69,15.53-13.78,0,0-10.25,8.72-20.75-1.41s-.75-18.75-.75-18.75Z"/><path class="cls-2" d="M194.69,301.41c-3.32-.07-6.83,.65-9.85,2.02-2.35,1.06-4.46,2.71-5.8,4.92-1.74,2.87-1.87,6.29-1.46,9.54,.89,7.09,5.02,13.12,11.21,16.66,3.3,1.89,7.01,3.07,10.76,3.65s7.78,.58,11.39-.97c5.53-2.37,8.89-8.74,6.7-14.56-.41-1.1-1.6-1.43-2.51-.66-.26,.22,.11-.08,0,0-.25,.18-.5,.36-.76,.53-.82,.53-1.68,1.01-2.58,1.39-2.83,1.19-5.98,1.48-8.94,.59-6.64-2-13.18-9.77-9.8-16.81,.7-1.47,1.52-2.68,2.71-3.74,1.44-1.29-.68-3.4-2.12-2.12-3.83,3.42-5.6,9.23-3.85,14.09,3.04,8.44,12.82,14.1,21.52,11.35,2.13-.67,4.24-1.72,5.95-3.16l-2.51-.66c1.52,4.04-.3,8.43-4.01,10.53-2.73,1.55-6.01,1.76-9.08,1.47-3.36-.32-6.78-1.22-9.81-2.7-5.57-2.7-9.71-7.42-11.02-13.54-.57-2.68-.84-5.85,.31-8.42,.89-1.99,2.54-3.42,4.45-4.41,2.83-1.46,6.04-2.05,9.11-1.98,1.93,.04,1.93-2.96,0-3Z"/></g><g><rect class="cls-4" x="8.99" y="205.87" width="48.4" height="15.21" rx="7.6" ry="7.6" transform="translate(-75.08 26.52) rotate(-21.24)"/><path class="cls-2" d="M51.01,213.1c-5.31,2.06-10.62,4.13-15.93,6.19-3.56,1.38-7.12,2.77-10.68,4.15-1.76,.68-3.61,1.64-5.47,2.02-2.71,.56-5.52-.88-6.72-3.36s-.54-5.35,1.41-7.14c1.48-1.37,3.83-1.94,5.67-2.65,7.19-2.79,14.38-5.59,21.57-8.38,1.81-.7,3.62-1.44,5.44-2.12,2.37-.87,4.97-.44,6.77,1.41s2.22,4.94,.89,7.26c-.66,1.16-1.69,2.1-2.93,2.61-1.76,.73-.99,3.63,.8,2.89,2.97-1.23,5.25-3.71,5.8-6.94,.51-3.03-.49-6.2-2.79-8.28s-5.77-2.97-8.83-2.01c-.65,.2-1.29,.48-1.92,.73-7.44,2.89-14.89,5.79-22.33,8.68-2.35,.92-4.72,1.81-7.07,2.75-5.27,2.1-7.85,8.49-4.64,13.46,1.72,2.66,4.78,4.32,7.96,4.22,1.31-.04,2.5-.42,3.7-.88l8.96-3.48c6.91-2.68,13.82-5.34,20.72-8.05,.14-.06,.29-.11,.43-.17,1.78-.69,1.01-3.59-.8-2.89Z"/></g><g><path class="cls-8" d="M143.56,249.56s10.76-4.16,18.54-.62c7.33,3.33,11.19,8.23,9.4,19.34-2.42,15.04-25.34,24.37-30.35,24.09-5.02-.28-26.74-12.13-27.45-27.35-.53-11.24,3.86-15.67,11.52-18.16,8.13-2.64,18.35,2.71,18.35,2.71"/><path class="cls-2" d="M143.96,251c4.43-1.7,9.76-2.61,14.44-1.67,5.23,1.05,10.34,4.67,11.62,10.03,1.37,5.76-.15,12.12-3.67,16.8-3.32,4.42-8.02,7.77-12.84,10.37-2.13,1.15-4.33,2.17-6.61,2.98-.91,.33-1.84,.63-2.77,.88-.38,.1-.76,.19-1.15,.27-.17,.04-.35,.07-.52,.1-.09,.02-.19,.03-.28,.05-.25,.04,.35-.03-.06,0-.26,.03-.52,.04-.78,.04-.11,0-.22-.01-.34-.02,.07,0,.18,.04-.15-.03-.7-.15-1.39-.35-2.06-.6-1.97-.71-3.85-1.7-5.67-2.75-4.84-2.81-9.35-6.36-12.89-10.72-1.72-2.13-3.22-4.55-4.11-7.14-1.03-2.99-1.15-6.15-.84-9.28,.26-2.59,1.04-5.26,2.68-7.32,1.54-1.93,3.73-3.24,6.01-4.13,5.79-2.27,12.07-1.04,17.62,1.41,.41,.18,.81,.36,1.21,.57,1.71,.89,3.23-1.7,1.51-2.59-4.83-2.51-10.81-4.14-16.26-3.52-5.9,.67-11.96,4.05-14.35,9.68-2.58,6.07-2.05,13.59,.99,19.38s7.86,10.17,13.02,13.79c2.21,1.55,4.54,2.95,6.98,4.13,1.71,.83,3.54,1.68,5.42,2.02,3.74,.68,8.04-1.36,11.35-2.85,5.48-2.46,10.76-5.82,14.93-10.17,2.06-2.15,3.89-4.61,5.1-7.34,1.42-3.2,1.96-6.72,1.94-10.21-.02-3.13-.66-6.34-2.38-9-1.59-2.46-3.92-4.3-6.48-5.67-6.19-3.32-13.33-2.89-19.89-.88-.51,.16-1.02,.32-1.52,.51-1.78,.69-1.01,3.59,.8,2.89h0Z"/></g><path class="cls-2" d="M151.9,217.22c-.16,2.09-.84,4.19-2.58,5.47-1.43,1.05-3.22,1.46-4.96,1.42-1.57-.04-3.24-.51-4.45-1.48-1.98-1.58-2.45-3.77-2.39-6.2l-1.5,1.5c2.42,.16,5.32,.74,7.62-.3s2.69-3.64,2.8-5.87h-3c-.09,2.24,.17,4.86,2.38,6.04s5.18,.87,7.59,.92c1.93,.05,1.93-2.95,0-3-1.26-.03-2.52-.03-3.78-.11-.88-.05-1.44-.05-2.32-.41,.28,.11-.09-.06-.18-.12-.15-.08-.07-.04,.02,.04-.06-.05-.11-.1-.17-.15-.03-.03-.24-.27-.11-.1,.12,.15-.03-.05-.05-.09-.04-.07-.08-.14-.12-.21-.1-.19,.08,.22,0,0-.34-.91-.31-1.74-.26-2.82,.08-1.93-2.9-1.92-3,0-.03,.53-.05,.99-.15,1.49-.04,.21-.09,.42-.15,.63-.04,.12-.07,.23-.12,.35,.05-.14,.04-.09-.01,.02-.08,.15-.16,.29-.26,.43,.24-.33-.26,.23-.09,.08-.11,.09-.41,.23-.53,.26-.17,.04-.34,.08-.51,.12-.12,.02-.17,.02-.02,0-.1,.01-.2,.02-.3,.03-.48,.03-.95,.03-1.43,.02-1.29-.04-2.57-.16-3.86-.24-.82-.06-1.48,.73-1.5,1.5-.05,2.36,.31,4.85,1.79,6.76,1.28,1.64,2.94,2.82,4.93,3.43,3.58,1.11,7.83,.41,10.63-2.15,2.04-1.86,2.84-4.56,3.04-7.24,.14-1.93-2.86-1.92-3,0h0Z"/></g></g></svg>