<?xml version="1.0" encoding="UTF-8"?><svg id="_圖層_2" xmlns="http://www.w3.org/2000/svg" viewBox="0 0 178.47 295.05"><defs><style>.cls-1{fill:#fac324;}.cls-2{fill:#6a302f;}.cls-3{fill:#ec6f00;}.cls-4{fill:#fff9d2;}.cls-5{fill:#a06b36;}.cls-6{fill:#e43d34;}.cls-7{fill:#dccab5;}.cls-8{fill:#4d1221;}</style></defs><g id="Isolation_Mode"><path class="cls-8" d="M157.69,126.48c-2.26-3.35-6.92-4.46-10.81-1.9-2.56,1.69-3.37,4.28-4.65,6.91-1.51,3.11-3.77,5.59-6.65,7.49-.54,.36-.91,.8-1.16,1.28-.31,.17-.61,.37-.85,.66-3.15,3.66-6.66,6.86-10.49,9.6-4.78,3.42-10.07,6.11-15.81,7.99-.22,.07-.42,.16-.6,.26-2.43-.5-5.38,2.3-3.8,5.25,.3,.56,.61,1.13,.92,1.71,2.87,5.24,6.31,11.07,7.15,16.9-3.94,2.56-7.82,5.22-11.72,7.84-2.84-.93-5.96-.41-8.92,.04-.32,.05-.65,.1-.97,.15-1.93,.28-3.85,.58-5.77,.91-2.16,.36-4.31,.75-6.46,1.14,.15-8.15-2.36-16.04-7.02-22.53-.63-.88-1.31-1.75-2.03-2.58,0,0-.01,0-.01,0-1.56-1.8-3.29-3.47-5.2-4.97-.71-.55-1.48-.77-2.21-.77-.82-.32-1.74-.28-2.53,.33-.25,.18-.49,.43-.72,.73-.93,1.26-1.83,2.54-2.72,3.84-4.46,6.55-8.27,13.55-10.03,21.37-1.37,6.08-1.73,13.15,.47,19.15-8.09-.98-16.67,4.17-16.96,13.82-.16,5.49,2.25,9.58,5.87,12.17,3.6,2.59,8.42,3.7,13.12,3.3-.93,1.21-1.86,2.4-2.8,3.6-.89,1.14-1.77,2.28-2.66,3.42-.85,1.1-1.42,2.94-.42,4.18,1.66,2.06,3.37,4.07,5.15,6.01-4.7,4.98-9.58,9.72-8.12,17.2,1.43,7.35,7.15,15.56,12.49,20.68,4.62,4.43,13.11,4.56,18.1,.46,2.21-1.8,3.41-4.7,2.67-7.52-.54-2.02-1.49-2.61-1.05-4.81,.44-2.24,1.78-4.33,3.18-6.08,.17-.21,.3-.42,.42-.64,2.14-.28,4.35-1.38,6.72-3.61,.19-.17,.34-.36,.48-.54,.22-.1,.45-.2,.69-.31,1.45-.67,2.9-1.34,4.34-2,2.75,4.4,5.66,8.7,8.79,12.84,2.51,3.32,5.11,7.47,8.66,9.79,6.9,4.52,17.43-.3,23.81-3.82,3.12-1.72,7.36-4.01,9.32-7.09,2.03-3.21-.13-6.82-1.72-9.72-1.95-3.56-3.8-4.15-7.52-4.85-4.05-.76-7.15-5.89-9.71-9.78,.73-.29,1.45-.58,2.16-.89,3.84-1.68,3.84-4.45,2.24-7.88-2.79-5.98-5.72-11.89-8.61-17.82,6.42-3.02,4.22-8.72,3.2-14.19,4.77-.28,9.38-1.56,12.94-5.19,4.85-4.93,4.98-11.9,1.25-17.55-.7-1.07-1.75-1.92-2.09-3.17-.37-1.34-.05-2.58-.64-3.96,6.78-4.42,12.56-10.29,16.68-17.32,.64-1.08,1.23-2.19,1.7-3.34,6.65-.77,12.78-3.11,18.31-6.94,5.09-3.52,11.6-8.66,13-15.03,2.71-12.29-10.76-18.77-20.42-14.18Zm-106.18,62.4c1.7-6.9,5.19-13.17,9.22-18.97,6.51,6.29,9.89,14.75,9.48,24.02-.06,1.07,.32,1.87,.91,2.4,.09,1.98,1.84,4.1,4.41,3.6,5.78-1.12,11.84-2.6,17.74-2.92,3.25-.18,5.02,.26,6.39,3.29,.98,2.15,1.66,4.78,1.54,7.21-.36,.27-.66,.58-.89,.94-6.8,1.75-13.66,3.27-20.59,4.43-7.81,1.31-17.09,2.75-23.92-2.3-6.6-4.87-6.05-14.57-4.28-21.7Zm53.75,25.39c.84-.22,1.54-.86,1.97-1.64,.29,.1,.59,.19,.93,.22,.61,.06,1.24,.12,1.87,.17,.36,1.63,1.09,3.33,1.2,4.91,.27,4.21-3.4,3.9-6.63,4.21-5.65,.55-11.32,.82-17,.81-5.35,0-10.71-.24-16.05-.75-3.14-.29-6.28-.69-9.4-1.17-.85-.13-4.1-.14-4.16-.18-.62,.79-.71,.51-.28-.86,.02-.25,.06-.48,.09-.72,4.7,1.62,9.94,1.91,14.85,1.46,10.98-.99,21.98-3.63,32.61-6.48Zm-64.8-.12c3.87-1.32,7.42,.52,9.89,3.46,.19,.22,.39,.41,.6,.56-.44,2.26-.65,4.77,.57,6.51,.07,.1,.14,.18,.21,.27-.61,1.26-.98,2.53-1.16,3.83-5.9,2.44-15.06,1-15.56-6.68-.23-3.57,2.08-6.82,5.44-7.96Zm23.47,70.4c.24,.47,.47,.95,.71,1.41-.53,.98-1.29,1.53-2.28,1.66-1.98,.73-4.6,.72-6.37-.5-3.69-2.55-7.17-8.86-9.19-12.78-1.78-3.45-2.79-6.95-.42-10.38,1.32-1.9,3.12-3.59,4.78-5.28,3.24,3.18,6.64,6.16,10.28,8.91,1.91,1.45,3.72,2.74,5.5,3.72-1.78,2.65-3.13,5.62-3.5,8.81-.18,1.62,.46,2.97,.5,4.42Zm-4.43-27.41c-3.93-3.49-7.57-7.28-10.95-11.3,1.45-1.86,2.9-3.71,4.33-5.57,2.01,4.24,4.88,8.26,7.2,11.64,3.27,4.77,6.84,9.33,10.65,13.67-4.13-1.32-8.7-6.19-11.24-8.45Zm62.26,12.02c2.12,1.39,5.13,.56,6.96,1.84,1.02,.72,1.81,3.32,1.26,4.55-.52,1.17-3.55,2.54-4.65,3.19-2.98,1.8-6.14,3.18-9.48,4.17-4.38,1.3-7.54,1.81-10.83-1.99-4.62-5.33-8.64-11.27-12.39-17.24,2.85-1.29,5.7-2.56,8.58-3.78,3.27-1.38,6.67-2.47,10.07-3.6,3.03,4.28,6.15,10.04,10.48,12.86Zm-7.34-24.72c.22,.46,1,1.62,1.42,2.53-.45-.04-1.31,.59-2.12,.85-2.61,.85-5.19,1.78-7.76,2.76-4.84,1.86-9.61,3.92-14.34,6.04-2.22,1-4.43,2.02-6.64,3.03-1.86,.86-4.89,2.92-7.26,3.5-5.07-4.35-9.17-10.87-12.77-16.28-3.45-5.17-9.9-13.05-6.72-19.43,.82,.09,1.6,.18,2.28,.28,9.02,1.38,18.16,2.1,27.29,2.11,4.41,0,8.82-.16,13.22-.49,1.86-.14,3.89-.2,5.9-.39,2.5,5.16,5,10.32,7.5,15.49Zm9.02-40.04c-4.41,2.91-10.41,2.08-15.39,1.58-.14-3.76-1.23-7.86-3.3-10.98,3.73-2.51,7.43-5.05,11.21-7.46,2.55-1.64,4.95-3.03,6.25,.53,.56,1.54,.62,2.57,1.61,4.02,2.92,4.25,4.9,8.8-.38,12.31Zm13.95-39.08c-3.89,5.63-9.02,10.11-14.88,13.55-.36-.08-.71-.13-1.07-.17-1.51-.13-2.91,.12-4.27,.57-1.28-5.12-3.76-10.04-6.28-14.75,9.35-3.32,17.72-8.6,24.66-15.63,1.28,1.98,2.54,3.94,3.8,5.93,2.52,3.98,.4,7.07-1.97,10.51Zm29.97-20.4c-5.46,5.4-12.22,9.55-19.86,10.72-.07-.24-.15-.49-.24-.74-1.41-3.88-4.23-7.56-6.69-11.07,2.22-1.67,4.18-3.59,5.79-5.9,.92-1.31,1.7-2.68,2.34-4.14,.28-.64,.47-1.32,.8-1.93,0,.03,2.46-3.62,2.64-1.31,.15,1.78,1.36,2.8,2.73,3.1,.97,.95,2.42,1.3,3.87,.2,3.06-2.33,7.42-3.53,10.61-.64,4.29,3.88,1.22,8.51-1.99,11.7Z"/><path class="cls-5" d="M116.96,264.51c-5.12,4.43-11.02,7.48-17.54,9.3-2.39-3.29-4.64-6.71-6.79-10.13,2.85-1.29,5.7-2.56,8.58-3.78,3.27-1.38,6.67-2.47,10.07-3.6,1.79,2.52,3.61,5.56,5.68,8.21Z"/><path class="cls-2" d="M129.99,275.55c-.52,1.17-3.55,2.54-4.65,3.19-2.98,1.8-6.14,3.18-9.48,4.17-4.38,1.3-7.54,1.81-10.83-1.99-.38-.43-.74-.86-1.09-1.3-1.58-1.88-3.08-3.82-4.51-5.81,6.53-1.81,12.42-4.86,17.54-9.3,1.45,1.84,3.02,3.5,4.8,4.65,.05,.04,.11,.08,.17,.09,2.11,1.25,5.01,.5,6.79,1.75,1.02,.72,1.81,3.32,1.26,4.55Z"/><path class="cls-5" d="M66.93,271.31c-.88,1.31-1.66,2.69-2.26,4.14-6-3.95-11.09-9.03-16.04-14.21,.82-.87,1.69-1.71,2.52-2.56,3.24,3.18,6.64,6.16,10.28,8.91,1.91,1.45,3.72,2.74,5.5,3.72Z"/><path class="cls-2" d="M63.93,284.55c.24,.47,.47,.95,.71,1.41-.53,.98-1.29,1.53-2.28,1.66-1.98,.73-4.6,.72-6.37-.5-3.69-2.55-7.17-8.86-9.19-12.78-1.19-2.3-2.03-4.62-1.76-6.93,.12-1.15,.54-2.3,1.33-3.45,.66-.95,1.44-1.85,2.26-2.72,4.95,5.18,10.04,10.26,16.04,14.21-.62,1.49-1.06,3.06-1.25,4.67-.11,1,.1,1.9,.27,2.79,.11,.55,.22,1.08,.23,1.63Z"/><path class="cls-2" d="M51.74,224.95c-.61,1.26-.98,2.53-1.16,3.83-5.9,2.44-15.06,1-15.56-6.68-.23-3.57,2.08-6.82,5.44-7.96,3.87-1.32,7.42,.52,9.89,3.46,.19,.22,.39,.41,.6,.56-.44,2.26-.65,4.77,.57,6.51,.07,.1,.14,.18,.21,.27Z"/><path class="cls-3" d="M70.74,265.59c-4.13-1.32-8.7-6.19-11.24-8.45-3.93-3.49-7.57-7.28-10.95-11.3,1.45-1.86,2.9-3.71,4.33-5.57,2.01,4.24,4.88,8.26,7.2,11.64,3.27,4.77,6.84,9.33,10.65,13.67Z"/><path class="cls-3" d="M115.85,246.97c-.45-.04-1.31,.59-2.12,.85-2.61,.85-5.19,1.78-7.76,2.76-4.84,1.86-9.61,3.92-14.34,6.04-2.22,1-4.43,2.02-6.64,3.03-1.86,.86-4.89,2.92-7.26,3.5-5.07-4.35-9.17-10.87-12.77-16.28-3.45-5.17-9.9-13.05-6.72-19.43,.82,.09,1.6,.18,2.28,.28,9.02,1.38,18.16,2.1,27.29,2.11,4.41,0,8.82-.16,13.22-.49,1.86-.14,3.89-.2,5.9-.39,2.5,5.16,5,10.32,7.5,15.49,.22,.46,1,1.62,1.42,2.53Z"/><path class="cls-4" d="M111.23,217.93c.27,4.21-3.4,3.9-6.63,4.21-5.65,.55-11.32,.82-17,.81-5.35,0-10.71-.24-16.05-.75-3.14-.29-6.28-.69-9.4-1.17-.85-.13-4.1-.14-4.16-.18-.62,.79-.71,.51-.28-.86,.02-.25,.06-.48,.09-.72,4.7,1.62,9.94,1.91,14.85,1.46,10.98-.99,21.98-3.63,32.61-6.48,.84-.22,1.54-.86,1.97-1.64,.29,.1,.59,.19,.93,.22,.61,.06,1.24,.12,1.87,.17,.36,1.63,1.09,3.33,1.2,4.91Z"/><path class="cls-5" d="M101.19,207.51c-.36,.27-.66,.58-.89,.94-6.8,1.75-13.66,3.27-20.59,4.43-7.81,1.31-17.09,2.75-23.92-2.3-6.6-4.87-6.05-14.57-4.28-21.7,1.7-6.9,5.19-13.17,9.22-18.97,6.51,6.29,9.89,14.75,9.48,24.02-.06,1.07,.32,1.87,.91,2.4,.09,1.98,1.84,4.1,4.41,3.6,5.78-1.12,11.84-2.6,17.74-2.92,3.25-.18,5.02,.26,6.39,3.29,.98,2.15,1.66,4.78,1.54,7.21Z"/><path class="cls-1" d="M123.45,204.4c-4.41,2.91-10.41,2.08-15.39,1.58-.14-3.76-1.23-7.86-3.3-10.98,3.73-2.51,7.43-5.05,11.21-7.46,2.55-1.64,4.95-3.03,6.25,.53,.56,1.54,.62,2.57,1.61,4.02,2.92,4.25,4.9,8.8-.38,12.31Z"/><path class="cls-1" d="M167.37,144.92c-5.46,5.4-12.22,9.55-19.86,10.72-.07-.24-.15-.49-.24-.74-1.41-3.88-4.23-7.56-6.69-11.07,2.22-1.67,4.18-3.59,5.79-5.9,.92-1.31,1.7-2.68,2.34-4.14,.28-.64,.47-1.32,.8-1.93,0,.03,2.46-3.62,2.64-1.31,.15,1.78,1.36,2.8,2.73,3.1,.97,.95,2.42,1.3,3.87,.2,3.06-2.33,7.42-3.53,10.61-.64,4.29,3.88,1.22,8.51-1.99,11.7Z"/><path class="cls-5" d="M137.39,165.32c-3.89,5.63-9.02,10.11-14.88,13.55-.36-.08-.71-.13-1.07-.17-1.51-.13-2.91,.12-4.27,.57-1.28-5.12-3.76-10.04-6.28-14.75,9.35-3.32,17.72-8.6,24.66-15.63,1.28,1.98,2.54,3.94,3.8,5.93,2.52,3.98,.4,7.07-1.97,10.51Z"/><g><path class="cls-8" d="M167.16,88.49c-.05-.8-.45-1.6-1.17-2.05-5.02-3.21-10.77-5.28-16.76-5.87-6.26-.62-12.2,.37-18.05,2.48-2.55,.92-5.11,1.93-7.65,2.35-.7,.12-1.4,.2-2.11,.22-.09,0-.35,0-.42,0-.23-.02-.44-.04-.65-.06-.5-.04-.99-.12-1.49-.22-.04,0-.56-.15-.58-.15-.11-.03-.24-.05-.34-.1-.48-.16-.93-.35-1.39-.6,0,0-.41-.28-.47-.31-.21-.15-.41-.33-.61-.48,0,0-.02-.02-.04-.05-.2-.21-.37-.45-.55-.65-.02-.04-.06-.06-.08-.11,0,0,0-.02-.02-.02-.13-.24-.24-.47-.34-.73-.17-.39-.26-1-.31-1.66-.03-.4,.05-.92,.16-1.56,.18-1.14,.54-2.11,1.03-3.27,4.12-9.57,12.9-16.83,16.4-26.89,1.71-4.91,2.31-10.44,.16-15.34-2.11-4.8-7.19-8.39-12.8-7.47-2.74,.42-5.11,1.86-6.6,4.15-.03,.06-.05,.1-.09,.16-.31-2.03-.73-4.04-1.24-6.04-1.21-4.71-2.81-9.44-5.2-13.71-2.16-3.98-5.2-7.86-9.7-9.56-4.01-1.51-9-1.35-12.52,1.24-3.87,2.86-4.59,7.73-3.69,12.12,.49,2.34,1.29,4.63,2.06,6.9,.8,2.5,1.59,5.01,2.32,7.54,2.89,9.66,5.11,19.58,5.79,29.62,.32,4.83,.32,9.72-.36,14.57-.33,2.31-.8,4-1.88,6.08-.23,.35-1.04,1.45-1.48,1.88-.09,.11-.67,.55-.96,.79-.21,.16-.42,.3-.68,.44-.05,.01-.09,.05-.11,.05-.05,.02-.11,.04-.17,.1-.28,.12-.6,.23-.9,.35-.06,.04-.13,.05-.16,.07-.47,.11-.98,.2-1.49,.2,0-.02-.75-.09-.92-.11-.69-.14-.5-.08-1.17-.34-1.63-.65-3.48-2.02-4.61-3.17-3.05-3.19-4.87-6.6-6.16-10.85-.05-.15-.09-.29-.17-.49,0,0,0-.02,0-.04-.08-.26-.15-.54-.21-.81-.11-.43-.19-.9-.31-1.32-.19-1.06-.35-2.12-.48-3.18-.27-2.44-.33-4.86-.23-7.26,.24-5.04,1.03-10,1.82-14.97,.78-4.94,1.54-9.94,1.76-14.94,.16-4.44,.37-9.61-1.82-13.65-1.08-2.08-2.74-3.87-5.02-4.77-2.43-.95-5.26-.79-7.65,.22-4.71,1.96-7.16,6.55-8.5,11.06-1.93,6.36-2.06,12.93-1.57,19.48-1.2-1.85-2.29-3.87-3.79-5.49-1.99-2.13-4.79-3.31-7.79-2.64-5.72,1.3-7.95,6.74-7.49,11.93,.49,5.14,3.07,9.93,6.04,14.14,5.48,7.78,14.05,14.75,15.19,24.33,.14,1.23,.14,1.99-.01,3.21-.15,1.3-.27,1.81-.68,2.77-.12,.3-.25,.57-.39,.84-.03,.08-.05,.12-.07,.17-.02,.01-.04,.04-.09,.1-.24,.3-.46,.63-.73,.92-.02,0-.28,.22-.35,.29-.13,.12-.3,.22-.45,.33-.04,0-.23,.1-.28,.12-.15,.05-.21,.09-.23,.11-.07,0-.15,.01-.27,.03-1.96,.29-3.84-.43-5.84-1.29-2.05-.9-4.02-2-6.05-2.94-4.83-2.27-9.99-3.15-15.27-2.02-5.44,1.2-10.17,3.82-14.9,6.57-.18,0-.34,0-.53,.03-1.59,.17-3.08,1.76-2.73,3.36,1.23,5.5,2.77,11.04,5.46,16.06,4.28,7.93,11.45,14.76,20.86,16.44,5.19,.92,10.71-.13,15.07-2.87,.14,6.12,.8,12.22,2.5,18.08,.64,2.19,1.42,4.35,2.39,6.45,.15,.34,.3,.67,.46,1,2.05,4.27,4.8,8.28,8.23,11.63,.38,.39,.79,.76,1.2,1.13,.35,.33,.72,.64,1.09,.95,.25,.22,.51,.43,.77,.64,1.14,.91,2.35,1.74,3.61,2.49,.43,.27,.88,.51,1.34,.77,1.18,.65,2.42,1.23,3.71,1.69,.21,.09,.4,.17,.63,.24,.22,.09,.44,.16,.66,.24,0,0,0,0,.01,0,.31,.1,.61,.19,.93,.28,.04,.02,.1,.05,.17,.06,1.66,.48,3.34,.83,5.04,1.11,1.59,.24,3.18,.43,4.79,.53,.64,.02,1.27,.04,1.91,.04h0c1.92,.03,3.84-.02,5.74-.16,.16-.01,.32-.03,.47-.02,4.6-.41,9.24-1.21,13.62-2.62,1.03-.32,2.06-.67,3.06-1.07,.18-.06,.36-.14,.54-.21,.23-.08,.45-.15,.66-.26,1.74-.72,3.41-1.54,5.02-2.48,.19-.12,.37-.23,.56-.34,.28-.16,.56-.34,.82-.5,1.19-.72,2.3-1.5,3.39-2.33,.59-.45,1.13-.91,1.67-1.36,.8-.71,1.59-1.44,2.34-2.24,1.26-1.28,2.39-2.65,3.39-4.12,.32-.46,.62-.92,.9-1.39,1.66-2.67,2.89-5.55,3.77-8.57,2.7-9.47,1.33-19.26-.78-28.73,2.65,1.34,5.44,2.34,8.37,2.93,8.44,1.76,17.33-.64,23.32-6.6,5.37-5.4,7.47-13.05,9.41-20.06,.1-.36,.09-.67,0-1.01ZM89.01,22.46c-.26-.86-.53-1.71-.8-2.57-.4-1.25-.8-2.46-1.2-3.68-.03-.11-.07-.21-.11-.32-.04-.13-.09-.26-.12-.39-.05-.18-.11-.35-.15-.53-.01-.03-.02-.06-.03-.09h-.01s-.01-.06-.02-.08c0-.02-.01-.07-.03-.13-.03-.14-.06-.27-.09-.4-.03-.14-.06-.26-.09-.4-.13-.55-.22-1.07-.28-1.62-.02-.17-.04-.32-.05-.49-.04-.23-.06-.48-.09-.71,0-.09-.02-.13-.02-.2v-.08c.01-.24,.04-.47,.07-.75h0c.03-.34,.09-.7,.18-1.02,0,0,.02-.03,.04-.08,.03-.04,.05-.1,.07-.17,.03-.06,.06-.13,.07-.18,.02-.06,.04-.1,.05-.12,.06-.11,.11-.23,.18-.34,.02-.02,.04-.04,.05-.07,.03-.02,.08-.1,.11-.16,0-.01,0-.03,.03-.05,0-.02,.03-.04,.04-.06,.02-.03,.04-.06,.05-.08l.17-.18c.06-.06,.1-.13,.17-.19,0,0,.03-.02,.06-.04,0-.01,.03-.02,.04-.03,.03-.01,.06-.03,.09-.05,.09-.07,.19-.16,.29-.23,.05-.06,.1-.1,.12-.12,.04-.01,.09-.06,.11-.07,0-.01,.02-.01,.03-.01,.17-.09,.36-.17,.54-.25,.04-.01,.07-.02,.1-.03,.07-.03,.15-.06,.21-.08,.15-.06,.3-.11,.45-.15,.02-.02,.04-.02,.07-.04h.03s.05,0,.05,0c.1-.02,.2-.04,.28-.05,.19-.03,.38-.07,.57-.08,.09-.01,.19-.03,.29-.03,0,0,.04,0,.09-.01,.1-.01,.25-.02,.35-.03,.18,.01,.45,.02,.46,.02,.2,.01,.39,.04,.59,.06,.2,.02,.38,.05,.59,.08l.27,.07h.02s.11,0,.11,0l.02,.02s.06,0,.07,0h.04s.02,0,.02,0c.05,.02,.11,.05,.17,.06,.04,.02,.07,.03,.1,.04,.03,0,.07,0,.11,.02,.22,.09,.46,.18,.68,.28,.13,.06,.26,.12,.39,.19,.01,0,.01,.02,.01,.02,.03,0,.06,0,.08,.02,.02,0,.04,.02,.06,.03,.04,.02,.07,.05,.11,.07,.02,0,.04,.02,.06,.03,0,0,.03,0,.05,.02,.02,.02,.04,.03,.06,.05,.04,.02,.09,.05,.13,.07,.04,.02,.08,.05,.12,.08,.09,.05,.17,.1,.24,.16h.01c.24,.16,.45,.32,.66,.5h0c.21,.16,.41,.34,.63,.51h0c.05,.05,.1,.09,.14,.13,.02,.02,.03,.04,.04,.05,.03,.02,.06,.05,.09,.08,.03,.03,.05,.06,.09,.09h0s.07,.07,.1,.11c.04,.04,.07,.09,.1,.12,.02,.02,.04,.03,.06,.05,.06,.07,.12,.14,.2,.23,.08,.09,.15,.17,.22,.26,.06,.08,.13,.16,.2,.25,.14,.17,.26,.33,.41,.5,0,0,.01,0,.01,0,.06,.08,.12,.15,.17,.23,.03,.05,.06,.1,.09,.14,.19,.25,.36,.49,.53,.73,.01,0,.02,.02,.03,.04,.04,.07,.09,.14,.14,.2,.08,.12,.12,.17,.16,.24,.02,.04,.04,.08,.05,.11,.05,.08,.08,.13,.12,.2,.02,.02,.04,.05,.06,.08,.02,.02,.04,.07,.06,.11,.53,.97,1.02,1.95,1.49,2.96h0c.47,1.02,.9,2.04,1.31,3.07,.11,.25,.2,.51,.29,.77,0,0,.01,.02,.01,.03,.17,.44,.33,.87,.48,1.32,.15,.42,.3,.85,.44,1.27,.03,.11,.06,.2,.1,.31,.46,1.4,.88,2.82,1.21,4.25,.05,.21,.1,.43,.14,.64,.01,.03,.02,.07,.02,.11,.11,.55,.24,1.08,.35,1.64,.08,.39,.15,.78,.21,1.18,.07,.39,.14,.77,.19,1.16,.12,.79,.21,1.58,.3,2.38,.43,4,.35,8.04-.27,12.04-.05,.25-.04,.5-.03,.76-.04,.03-.08,.05-.11,.06-.05,.03-.08,.04-.08,.04-.11,.05-.22,.09-.34,.14-.09,.03-.17,.06-.25,.09,0,0-.04,.02-.1,.05,0,0-.03,0-.04,.01-.02,.01-.04,.01-.06,.02-.04,.01-.08,.02-.11,.03,0,0-.02,.01-.02,.01-.04,.01-.07,.02-.09,.03-.03,.01-.06,.01-.08,.02-.07,.02-.1,.03-.09,.03h-.02s0,0,0,.01h-.02c-.06,.02-.12,.02-.17,.04-.06,.01-.11,.02-.17,.02h-.04s-.05,.01-.07,.02c-.1,.02-.21,.04-.3,.05-.13,.01-.25,.05-.37,.08-.08,.02-.15,.04-.22,.08-.17,.05-.31,.11-.47,.19-.08,.03-.15,.07-.21,.11-.06,.03-.12,.06-.16,.1-.05,.03-.1,.06-.14,.1-.08,.06-.14,.12-.21,.18-.05,.05-.1,.09-.13,.14-.07,.06-.12,.12-.18,.19-.06,.07-.1,.15-.15,.22-.05,.07-.09,.14-.13,.21-.08,.11-.13,.24-.18,.36-.05,.13-.09,.26-.12,.41-.04,.12-.05,.24-.07,.37,0,.11-.01,.22-.01,.32,0,.1,.02,.21,.03,.3,.08,.56,.32,1.07,.68,1.5,.09,.12,.2,.22,.31,.32,.12,.1,.24,.2,.36,.28,.03,.02,.06,.05,.09,.07,.03,.02,.06,.04,.09,.05,.2,.12,.42,.21,.64,.28,.08,.02,.15,.04,.23,.06,.05,.02,.09,.03,.13,.04,.09,.03,.18,.03,.27,.04,.05,0,.09,0,.13,0,.08,0,.17,.01,.26,.01,.11,0,.23-.02,.33-.03,.23-.04,.47-.07,.69-.12,.17-.03,.33-.08,.5-.11,.2-.05,.38-.09,.58-.14,.19-.05,.38-.11,.57-.17,.06-.02,.13-.04,.19-.05,.02-.01,.04-.01,.06-.02,.29-.1,.58-.2,.86-.33,.36-.16,.71-.33,1.06-.5,.17-.09,.35-.19,.51-.28,.16-.1,.33-.21,.49-.31,.16-.1,.32-.21,.48-.32,.22-.14,.43-.31,.64-.47,.17-.13,.36-.28,.52-.43,.17-.14,.34-.29,.51-.46,.2-.18,.39-.37,.57-.57h0c.13-.14,.26-.28,.37-.42,.44-.52,.82-1.08,1.16-1.64,.07-.11,.13-.23,.19-.35,0-.01,.02-.03,.03-.04,.06-.11,.11-.21,.17-.32,.03-.06,.06-.13,.09-.2,.02-.04,.04-.09,.06-.13,.05-.09,.08-.18,.12-.27,.06-.14,.12-.28,.17-.42,.09-.23,.18-.46,.25-.69,.04-.12,.07-.24,.11-.36h0c.04-.13,.07-.25,.11-.36,.02-.06,.04-.13,.04-.19,.14-.54,.26-1.09,.34-1.64,.07-.37,.12-.74,.15-1.1,.04-.35,.07-.71,.1-1.05,.03-.37,.06-.75,.09-1.11,.03-.33,.06-.66,.09-.99,0-.02,0-.03,0-.05,.04-.33,.08-.66,.14-.99,.02-.08,.03-.15,.02-.23-.01,0,0-.02,0-.03,.03-.23,.08-.47,.14-.7,0,0,0-.04,.03-.09,0-.06,.03-.13,.05-.21,.04-.15,.09-.31,.09-.32,.04-.15,.1-.3,.15-.45,.05-.15,.13-.29,.19-.44,0,0,0-.03,.02-.05,0-.03,.03-.07,.06-.11,.07-.12,.13-.26,.13-.27,.07-.1,.14-.2,.22-.3,.08-.09,.14-.17,.22-.26,.05-.06,.1-.12,.16-.17,.02-.02,.02-.03,.03-.04,0,0,.02-.01,.04-.02l.04-.04s0-.01,.02-.01h0s.02-.01,.03-.02c0-.01,.03-.02,.05-.03,.11-.08,.23-.16,.34-.25,.02,0,.03-.01,.05-.01h0c.21-.1,.44-.18,.66-.27h0s.03-.02,.07-.03h0s.09-.01,.14-.02c.02,0,.04,0,.06-.01h.06s.06-.01,.1-.01h.17c.08-.03,.19-.03,.29-.04,.03-.01,.07-.01,.1-.01,.03-.01,.06-.01,.09-.01,.03-.01,.06-.01,.09-.01h.01s0,0,0,0h.02s.02-.02,.02-.02c.2,.02,.38,.03,.57,.06,.11,0,.21,.02,.3,.05,.1,.03,.19,.04,.29,.05,.05,0,.09,.03,.13,.04s.06,0,.09,.02c.11,.04,.21,.07,.32,.11,.04,.02,.08,.04,.12,.06,.09,.03,.18,.06,.28,.1,.09,.04,.18,.08,.27,.12,.1,.04,.16,.05,.21,.07,.01,0,.03,.03,.05,.05,.02,.02,.05,.04,.08,.07,.1,.07,.21,.13,.29,.2,.07,.04,.14,.08,.21,.14,.04,.03,.07,.05,.1,.07,.05,.04,.09,.08,.13,.11,.04,.04,.08,.07,.11,.09h0s.03,.03,.05,.05c.11,.09,.2,.18,.33,.33,.08,.09,.17,.19,.28,.34,.07,.09,.12,.16,.17,.23,.24,.31,.37,.49,.48,.68,.29,.56,.54,1.16,.76,1.76,0,0,0,.02,.02,.07,.01,.02,.01,.04,.02,.06,.02,.07,.04,.14,.07,.21,0,.02,.01,.04,.01,.05,.01,.02,.01,.05,.03,.08,.01,.03,.01,.06,.02,.08,.01,.04,.02,.1,.03,.16,.01,.05,.02,.11,.03,.16,.03,.11,.06,.2,.06,.23,.11,.53,.18,1.06,.22,1.58h0c.03,.33,.05,.65,.07,.97v.31s.01,.06,.01,.06h0s-.02,.45-.02,.45c0,.02-.02,.02-.02,.04,0,.19-.02,.38-.04,.57-.1,.99-.28,1.97-.51,2.93-.06,.27-.11,.53-.19,.8,0,.05-.03,.11-.04,.16,0,.04-.02,.09-.03,.13,0,0,0,.03-.02,.04,0,.02-.02,.05-.03,.08,0,.04-.03,.09-.05,.13-.09,.28-.18,.56-.27,.83-.1,.28-.2,.55-.31,.82-.13,.34-.27,.68-.42,1-.1,.26-.22,.52-.35,.78-.03,.06-.06,.12-.08,.18,0,.01-.02,.03-.03,.04-.08,.18-.17,.36-.26,.54-.35,.72-.73,1.42-1.14,2.1-.14,.26-.29,.51-.46,.76-.15,.25-.3,.5-.46,.74-1.18,1.84-2.47,3.62-3.77,5.38-.25,.34-.5,.67-.76,1-.77,1.04-1.55,2.1-2.3,3.16-.76,1.06-1.51,2.14-2.21,3.23-1.03,1.6-2.13,3.36-3.06,5.2-.04,.07-.07,.15-.11,.22-.06,.14-.13,.28-.19,.42-.14,.29-.27,.58-.4,.88-.12,.27-.23,.54-.34,.81-.25,.61-.46,1.23-.64,1.86-.14,.49-.27,.97-.36,1.46h-.02c-4.4,.9-8.72,.18-12.28-2.22h0c.12-.63,.22-1.26,.3-1.89,.06-.5,.11-1,.16-1.51,.05-.43,.08-.87,.12-1.3,.11-1.31,.18-2.62,.22-3.93,.1-3.29,0-6.6-.25-9.88-.05-.63-.11-1.25-.16-1.88-.13-1.25-.27-2.5-.43-3.75-.13-.93-.26-1.87-.41-2.8-.3-1.87-.64-3.72-1.02-5.58-.18-.92-.39-1.84-.59-2.77-.25-1.07-.5-2.15-.76-3.22-.26-1.07-.53-2.14-.82-3.22-.23-.92-.49-1.83-.74-2.74-.17-.61-.34-1.22-.52-1.82-.18-.61-.35-1.22-.53-1.82-.45-1.53-.91-3.06-1.39-4.58ZM47.47,63.08c-.17-.23-.36-.46-.53-.69-.18-.24-.38-.48-.57-.71-.93-1.16-1.87-2.3-2.8-3.43-.2-.24-.4-.48-.59-.72-.75-.91-1.48-1.82-2.2-2.73-.3-.37-.59-.75-.89-1.14-.2-.26-.4-.52-.6-.78-.95-1.29-1.86-2.64-2.64-4.02-.07-.11-.13-.22-.2-.33-.09-.18-.2-.37-.29-.56-.1-.18-.2-.37-.28-.55-.18-.38-.36-.76-.5-1.13-.12-.26-.21-.49-.31-.75-.02-.05-.04-.1-.06-.16-.13-.35-.27-.71-.37-1.06-.05-.18-.11-.36-.15-.54-.04-.18-.09-.35-.12-.53-.03-.18-.08-.35-.11-.53-.05-.21-.09-.43-.13-.64-.02-.06-.02-.12-.03-.18-.04-.22-.07-.44-.1-.66,0-.02-.01-.05,0-.07-.01-.12-.03-.23-.04-.34-.01-.03-.01-.06-.01-.09-.01-.1-.03-.22-.02-.31-.01-.11-.02-.22-.02-.32,0-.02,0-.05,0-.08l.03-.69s0-.02,0-.03c0-.21,.04-.39,.06-.6,0-.09,.03-.17,.05-.26,.02-.04,.03-.08,.04-.12,0-.05,.02-.09,.02-.13h0s.05-.16,.09-.29c.02-.05,.04-.1,.05-.13,.02-.02,.02-.04,.02-.04,.07-.21,.16-.4,.26-.57,.09-.18,.19-.33,.29-.46,.09-.14,.21-.27,.32-.38,.11-.1,.22-.2,.35-.28,.03-.02,.05-.04,.09-.06,.03-.02,.07-.04,.09-.06,0,0,0-.01,.02-.01,.08-.08,.15-.11,.18-.13,.06-.02,.11-.03,.17-.05,.07-.03,.14-.05,.2-.08,.06-.03,.1-.05,.14-.07h.05c.18-.04,.35-.05,.52-.07,.03,0,.32,.03,.48,.06h0s.48,.41,.61,.48h.02s0,.02,0,.02c.21,.22,.42,.46,.6,.7,.36,.47,.68,.97,.99,1.46,.32,.5,.64,1,.97,1.5,.66,.99,1.33,1.98,2.01,2.96,.34,.49,.7,.98,1.05,1.46,.37,.5,.75,.99,1.12,1.49,.77,.98,1.54,1.94,2.33,2.89,0,0,0,.01,0,0,.4,.47,.8,.94,1.21,1.4,.37,.43,.74,.85,1.13,1.27,.34,.37,.68,.76,1.03,1.13,.65,.7,1.31,1.39,1.99,2.06,.03,.03,.06,.05,.09,.08,.09,.11,.19,.2,.29,.3,.19,.2,.38,.39,.6,.59,.15,.14,.31,.28,.47,.41,.23,.18,.47,.33,.72,.44,.21,.11,.44,.18,.65,.24,.12,.04,.23,.06,.35,.08,.12,.02,.23,.02,.34,.03,.29,.01,.58-.02,.88-.09,.03-.01,.05-.01,.08-.02,.03-.01,.07-.02,.1-.04,.04-.01,.09-.03,.14-.05,.24-.11,.48-.24,.71-.4,.13-.09,.26-.21,.37-.35,.06-.05,.1-.1,.15-.15,.08-.1,.14-.2,.22-.31,.07-.11,.12-.22,.18-.33,.06-.14,.12-.29,.16-.43,.04-.1,.06-.2,.08-.3,.03-.13,.05-.26,.07-.38,0-.11,.01-.23,0-.33,0-.09,0-.18-.02-.26v-.08c-.02-.12-.05-.23-.08-.35-.04-.14-.1-.28-.16-.41-.02-.06-.05-.11-.08-.16-.08-.13-.19-.28-.31-.38h-.02c-1.54-1.51-3.01-3.04-4.43-4.64v-.03c.02-.13,.01-.25,0-.39,0-.02,0-.04-.01-.05,0-.05,0-.1-.01-.15-.14-1.11-.28-2.21-.4-3.31-.07-.56-.13-1.12-.19-1.68-.06-.54-.12-1.08-.17-1.62-.07-.55-.13-1.12-.18-1.64-.05-.55-.09-1.09-.13-1.63-.04-.42-.06-.83-.09-1.24-.02-.3-.04-.6-.05-.9-.02-.51-.05-1.01-.04-1.5-.01-.06-.01-.11,0-.17-.01-.03-.01-.06,0-.09h0c-.01-.45-.02-.89,0-1.33,0-.43,0-.86,.02-1.3,0-.08,0-.15,0-.23,.02-.38,.03-.76,.06-1.14,0-.05,0-.1,0-.15,0-.17,.01-.32,.03-.49,0-.09,0-.18,.02-.27,.03-.34,.07-.71,.11-1.06,.07-.68,.16-1.35,.26-2.04,.11-.69,.23-1.38,.36-2.05v-.02c.06-.28,.11-.53,.18-.79,.07-.3,.15-.59,.23-.88,.04-.22,.11-.42,.16-.6,.16-.54,.33-1.04,.54-1.59,.07-.2,.16-.4,.24-.59,.13-.32,.26-.64,.4-.95,.2-.44,.4-.83,.59-1.18,.09-.18,.2-.34,.3-.5,0-.01,0,0,0,0,.1-.16,.21-.31,.32-.46,.09-.11,.16-.21,.24-.3,.38-.48,.7-.85,1.16-1.2,.18-.15,.38-.3,.63-.44,0,0,.02-.01,.05-.02,.03-.01,.07-.03,.11-.04,.04-.02,.07-.04,.1-.05,0,0,0,0,0,0,.02-.02,.03-.02,.04-.02v-.03c.07-.02,.14-.05,.2-.07,.03-.01,.06-.02,.09-.03,.04-.01,.08-.03,.12-.04,.04-.02,.08-.04,.12-.05,.09-.03,.17-.06,.26-.1h0s.02-.01,.05-.02c.04-.01,.1-.03,.16-.04,.06-.02,.13-.04,.18-.05,.03,0,.09-.01,.15-.01,.02,0,.03,0,.05-.01,.09-.01,.17-.02,.24-.04,.09-.01,.16-.02,.17-.02h.03c.1-.01,.17-.02,.26-.03h0s0,0,.02,0h.17c.17,.03,.36,.06,.52,.09,0,0,.03,0,.05,.02,.02,0,.04,0,.06,.02,.04,0,.09,.03,.13,.04h.06s0,.02,0,.02h.01s.05,.02,.09,.05c.01,0,0,0,0,0,.02,0,.04,.02,.06,.03,.1,.05,.21,.09,.31,.14,.03,.04,.07,.08,.12,.12,.02,.03,.05,.05,.07,.07,.02,.02,.05,.05,.07,.07,.04,.03,.07,.05,.1,.07,.07,.05,.14,.09,.15,.09,.02,.02,.05,.05,.08,.08,.13,.14,.24,.3,.37,.45,.05,.07,.09,.13,.13,.19,.02,0,.03,.02,.04,.03,.02,.03,.04,.05,.05,.07,0,0,.01,.02,.01,.03,.02,.05,.04,.09,.06,.16,.02,.03,.04,.07,.06,.11,.09,.17,.19,.36,.26,.54,.07,.18,.14,.37,.21,.55,.06,.19,.14,.38,.2,.57,.02,.03,.01,.05,.01,.09,.01,.04,.01,.06,.02,.08,.03,.19,.08,.36,.11,.55,.01,.06,.01,.12,.02,.18,.01,.07,.03,.15,.05,.21,.01,.05,.02,.11,.02,.16,.02,.11,.04,.22,.04,.33,.03,.21,.07,.4,.08,.59,.04,.24,.06,.49,.09,.73,.04,.25,.05,.52,.07,.77,.07,.88,.09,1.77,.1,2.65,.01,0,.01,.02,0,.03,.01,.1,.02,.2,0,.29,0,.02,0,.04,0,.07,0,.14,0,.28,0,.42s0,.28,0,.42c-.01,.32-.02,.65-.03,.98-.04,1.16-.12,2.3-.22,3.45-.04,.49-.08,.97-.13,1.46-.05,.39-.08,.8-.13,1.2-.09,.8-.2,1.61-.3,2.41-.15,1.13-.32,2.27-.49,3.4-.14,.92-.29,1.84-.43,2.75-.1,.61-.2,1.21-.29,1.83-.17,1.07-.34,2.14-.5,3.21-.08,.54-.15,1.08-.23,1.61-.29,2.13-.54,4.27-.71,6.41-.03,.28-.04,.54-.05,.81-.02,.27-.03,.54-.05,.81-.21,4.07-.07,8.21,.64,12.22h0c.14,.79,.31,1.56,.49,2.33h0c.38,1.55,.85,3.07,1.41,4.55h0c.58,1.5,1.25,2.94,2.05,4.34-.06,.04-.12,.09-.17,.14-.02,.02-.04,.04-.07,.05-.07,.05-.12,.1-.19,.14,0,.02-.02,.03-.04,.02-.1,.07-.19,.14-.29,.21-.22,.16-.45,.31-.68,.43-.14,.09-.29,.17-.44,.24-.02,.02-.05,.03-.07,.03-.13,.06-.25,.13-.38,.18-.06,.03-.12,.05-.17,.07-.21,.09-.42,.17-.63,.24-.17,.06-.35,.12-.54,.16-.09,.03-.18,.05-.26,.07-.02,.02-.04,.02-.07,.02-.04,.01-.08,.02-.12,.03-.08,.02-.15,.03-.22,.05-.23,.06-.48,.1-.72,.13-.14,.02-.28,.04-.43,.05-.24,.02-.46,.02-.7,.04-.24,0-.47,0-.71,0-.24-.01-.47-.03-.71-.05-.2-.02-.41-.05-.62-.08-.05,0-.1,0-.15-.03-.15-.03-.31-.05-.45-.08-.02,0-.04,0-.06,0-.12-.02-.25-.05-.37-.09-.61-.15-1.22-.36-1.82-.61-.04-.29-.09-.6-.14-.89-.05-.28-.1-.57-.17-.85-.05-.25-.11-.51-.18-.75-.06-.25-.12-.5-.2-.73-.1-.35-.21-.7-.33-1.04-.09-.23-.17-.47-.26-.7-.07-.19-.15-.39-.22-.58-.58-1.46-1.29-2.87-2.1-4.24-.3-.49-.6-.98-.92-1.49-.63-.99-1.31-1.96-2.02-2.92-.36-.48-.72-.96-1.08-1.43Zm2,44.28c.16-1.08,.34-2.14,.52-3.21,.13-.72,.25-1.45,.4-2.17,.14-.78,.3-1.56,.46-2.34,.21-1.01,.42-2.01,.66-3,.24-1.07,.5-2.14,.77-3.19,.26-1.07,.55-2.12,.84-3.18,.12-.19,.23-.39,.34-.59,.21-.4,.42-.82,.59-1.24,.17-.43,.33-.86,.46-1.31,.11-.33,.2-.66,.27-1.01,.08-.34,.15-.68,.21-1.02,.82,.23,1.65,.38,2.48,.49,4.33,.51,8.74-.67,12.23-3.26,2.43,2.75,5.52,5.13,9.11,6.12,.2,.05,.4,.11,.59,.14,.17,.04,.34,.08,.49,.1,.29,.06,.57,.1,.86,.13,.08,0,.15,.02,.23,.02,.17,.01,.33,.03,.5,.03h0c.77,.05,1.52,0,2.28-.11,.12-.02,.22-.05,.34-.07,.08-.01,.17-.03,.25-.05,.03,0,.07-.01,.1-.01,.3-.05,.58-.13,.88-.22,.1-.03,.2-.05,.3-.1,.63-.2,1.24-.44,1.84-.74,.11-.04,.2-.09,.31-.15,.29-.17,.58-.33,.85-.5,.03-.01,.05-.03,.08-.04,.11-.06,.19-.11,.3-.2,.06-.04,.12-.08,.17-.12,.22-.16,.44-.33,.66-.5,.11-.08,.22-.17,.33-.26,.22-.17,.43-.37,.64-.56,.33-.28,.62-.6,.92-.93,.22-.24,.43-.49,.63-.76,.16-.21,.31-.41,.44-.62,.05-.06,.08-.12,.12-.18,.05-.06,.08-.12,.12-.18,.32-.48,.61-.98,.87-1.49,.21,.11,.43,.22,.65,.32,.22,.11,.44,.21,.67,.31,.31,.15,.62,.28,.94,.4,.31,.13,.63,.25,.94,.36,.33,.12,.66,.23,1,.32,.31,.1,.62,.19,.94,.27,.25,.07,.5,.13,.76,.18,.22,.05,.44,.1,.66,.14,.57,.11,1.15,.2,1.73,.26,.21,.02,.4,.04,.61,.06,.57,.04,1.15,.07,1.73,.08,.15,0,.28,.01,.42,0,.09,0,.19,0,.27-.02,.19,0,.37-.01,.56-.03,.25-.02,.52-.03,.77-.06,.07,0,.13,0,.2-.02,.51-.06,1.02-.13,1.52-.22v.02c.05,.17,.11,.33,.18,.49,.05,.15,.11,.3,.18,.45,.06,.18,.15,.37,.24,.54,0,.02,.02,.05,.03,.07,.1,.2,.21,.4,.32,.59,.12,.2,.25,.41,.37,.59,.16,.24,.35,.49,.54,.72,.19,.23,.4,.46,.6,.67h0c-1.35,.25-2.67,.56-3.99,.93-.88,.25-1.75,.52-2.61,.83-.86,.3-1.7,.63-2.53,.99-.42,.18-.83,.37-1.24,.56-.77,.36-1.52,.73-2.26,1.13-.28,.15-.57,.3-.85,.46t-.02,.01c-.36,.21-.72,.4-1.08,.61-.41,.25-.81,.5-1.22,.75-.76,.48-1.5,1-2.23,1.52-.14,.1-.29,.2-.43,.32-.11,.07-.2,.14-.31,.23-.11,.07-.2,.15-.31,.23-.2,.16-.41,.33-.6,.49-.4,.3-.8,.62-1.19,.97-.39,.33-.79,.67-1.15,1-.1,.08-.19,.16-.29,.25-.1,.07-.19,.16-.29,.26-.19,.17-.38,.35-.56,.54-.14,.12-.28,.25-.41,.39-.13,.12-.27,.25-.39,.39-.26,.26-.52,.54-.77,.81-.46,.47-.9,.94-1.31,1.42-.17,.19-.33,.37-.48,.55-.5,.57-.99,1.17-1.45,1.76-.17,.21-.33,.43-.48,.64-.22,.27-.43,.54-.63,.82-.61,.83-1.2,1.69-1.76,2.56,0,0,.02-.01,0,0-.28,.42-.54,.85-.81,1.28-.26,.44-.51,.88-.77,1.32-.25,.44-.5,.88-.75,1.32-.48,.89-.94,1.8-1.37,2.71-.22,.46-.43,.92-.64,1.37-.18,.39-.34,.77-.5,1.15s-.32,.78-.48,1.16c-.31,.78-.6,1.57-.88,2.36-.18,.54-.36,1.07-.53,1.61-.14,.43-.28,.86-.41,1.3-.39,1.3-.75,2.61-1.06,3.93h0c-.26-.04-.51-.08-.77-.11-.21-.04-.41-.07-.62-.08-.16-.02-.31-.04-.45-.05-.03,0-.06-.02-.09,0-.14-.02-.27-.03-.4-.04-.02,0-.04,0-.06,0-.3-.02-.59-.03-.89-.04-.54,0-1.09,0-1.64,.03-.13,.01-.25,.02-.38,.02s-.25,.02-.38,.03c-.12,.01-.24,.03-.37,.04-.13,.01-.25,.04-.38,.06-.27,.03-.54,.06-.8,.1-.1,.01-.19,.02-.28,.05-.18,.02-.35,.06-.53,.1-.16,.02-.31,.06-.47,.1-.11,.02-.21,.05-.3,.08-.26,.07-.53,.14-.79,.22-.18,.05-.38,.11-.57,.16v-.12c-.05-.71-.14-1.4-.25-2.09-.08-.47-.17-.94-.3-1.42-.01-.13-.04-.24-.06-.38-.01-.06-.03-.13-.04-.2-.01-.06-.03-.12-.05-.18-.03-.19-.08-.38-.13-.57-.04-.19-.11-.37-.16-.56-.1-.35-.2-.7-.31-1.05-.09-.27-.18-.56-.28-.84-.04-.14-.1-.28-.15-.43-.21-.57-.45-1.15-.69-1.7-.15-.35-.3-.69-.47-1.03-.15-.3-.3-.6-.45-.9-.02-.05-.05-.1-.08-.15-.17-.3-.33-.61-.51-.91-.03-.07-.06-.13-.11-.19-.16-.27-.32-.54-.49-.81-.1-.17-.22-.34-.33-.51-.15-.25-.32-.5-.49-.74-.16-.25-.34-.49-.52-.73-.19-.27-.4-.53-.6-.8-.62-.79-1.27-1.55-1.96-2.28-.08-.09-.16-.17-.24-.26-.16-.17-.32-.34-.51-.51-.12-.12-.25-.26-.38-.38-.38-.37-.78-.73-1.19-1.09-.33-.27-.68-.56-1.04-.83-.08-.07-.16-.11-.23-.18h0Zm-2.98-11.46c-.05,.24-.09,.48-.14,.73-.09,.49-.19,1-.28,1.52-.04,.26-.08,.51-.13,.78-.49,2.87-.94,5.84-1.14,7.19-.05,.3-.08,.52-.1,.64,0,.07-.02,.11-.02,.12-.02,.18-.06,.36-.1,.53-.03,.18-.07,.36-.11,.53,.01,0,.01,.02,0,.03,0,.04-.02,.09-.04,.13-.04,.2-.1,.4-.16,.58,0,.05-.03,.1-.04,.15-.02,.06-.03,.11-.04,.16,0,0,0,.02,0,.03-.05,.21-.13,.39-.2,.59t0,.01c-.04,.12-.08,.23-.14,.34,0,.02,0,.05-.03,.07-.04,.15-.11,.29-.18,.44,0,.02,0,.03-.02,.05-.04,.06-.07,.12-.09,.18-.04,.09-.07,.17-.12,.25,0,.02,0,.03-.02,.05-.09,.2-.19,.4-.31,.59-.16,.29-.32,.56-.52,.85-.17,.27-.36,.53-.55,.78-.11,.15-.22,.28-.35,.42-.1,.12-.22,.25-.32,.37-.22,.24-.44,.49-.66,.74-.23,.23-.48,.47-.73,.68-.07,.07-.14,.13-.22,.19-.18,.16-.36,.31-.55,.45-.15,.12-.32,.24-.48,.35-.23,.16-.47,.3-.71,.45-.26,.17-.54,.34-.83,.48-.39,.22-.78,.41-1.19,.58-.2,.08-.4,.16-.6,.22-.21,.07-.42,.13-.62,.19h-.02c-.39,.17-.79,.34-1.18,.48-.02,.02-.05,.02-.07,.02-.09,.05-.17,.08-.26,.11-.1,.02-.18,.05-.27,.08-.12,.04-.23,.08-.36,.11-.07,.02-.2,.05-.24,.06-.37,.08-.74,.16-1.12,.21-.76,.12-1.55,.2-2.32,.2h-.09c-.06,0-.12-.01-.18-.01h-.16c-.2,0-.38-.03-.59-.05-.1-.02-.2-.02-.3-.04-.02,0-.04,0-.06,0-.07,0-.14-.02-.21-.03-.2-.02-.38-.06-.57-.08-.45-.07-.91-.17-1.36-.28-.19-.04-.38-.1-.56-.14-.03,0-.05-.03-.08-.04-.03,0-.06-.02-.1-.04-.66-.24-1.3-.49-1.94-.77-.22-.09-.44-.18-.65-.29-.11-.06-.21-.11-.33-.19-.07-.04-.14-.07-.22-.11-.18-.1-.36-.21-.54-.32-.08-.02-.12-.06-.16-.06,0,0-.01,0-.02,0-.17-.1-.34-.21-.5-.32-.03-.02-.07-.05-.1-.08-.36-.23-.72-.48-1.06-.73-.33-.24-.65-.48-.96-.75-.05-.05-.1-.09-.15-.12-.45-.38-1.03-.9-1.46-1.3l-.2-.19c-.06-.06-.11-.11-.16-.16-2.49-2.52-4.4-5.59-5.9-8.89-1.5-3.29-2.6-6.83-3.44-10.32,.56-.34,1.12-.7,1.68-1.04,.4-.24,.8-.47,1.2-.69,.4-.23,.8-.46,1.2-.67,.22-.12,.45-.24,.68-.35,.57-.3,1.14-.59,1.72-.88,.34-.17,.69-.32,1.04-.47,.23-.11,.48-.2,.71-.29,.38-.16,.76-.31,1.15-.44,.38-.14,.77-.26,1.16-.37,.92-.28,1.86-.49,2.83-.6h0c.31-.05,.64-.08,.96-.11,.2-.02,.39-.02,.58-.03,1.33-.04,2.59,.12,3.81,.46,.12,.03,.23,.06,.35,.1,.25,.07,.5,.15,.73,.24,.3,.1,.59,.21,.87,.33h.01c.56,.24,1.1,.52,1.63,.77,.28,.14,.55,.27,.83,.41,.34,.18,.68,.35,1.01,.53,1.01,.52,2.01,1.06,3.01,1.59,.31,.16,.63,.32,.95,.47,.21,.1,.41,.19,.62,.29,.12,.07,.24,.12,.36,.18,.15,.06,.3,.11,.45,.17,.37,.16,.75,.3,1.12,.43,.27,.1,.54,.19,.81,.27,.87,.28,1.77,.49,2.66,.6,.1,.02,.2,.03,.31,.04,.54,.06,1.09,.09,1.63,.06,.21,0,.42-.02,.63-.05,.06,0,.12,0,.18-.02,.22-.03,.43-.06,.65-.1,.72-.15,1.43-.38,2.13-.72,.13-.05,.24-.12,.36-.18h0s0-.01,0-.01c-.11,.51-.23,1.1-.36,1.72Zm112.71-1.55c-.07,.19-.13,.37-.19,.57-.1,.27-.19,.55-.29,.82-.17,.48-.35,.96-.57,1.45-.03,.08-.06,.16-.11,.24,.01,0,.01,.02,.01,.03,0,.01,0,.02-.02,.03,0,0,0,.01-.02,.01-.14,.35-.3,.71-.46,1.05-.19,.45-.39,.89-.6,1.31-.08,.2-.19,.39-.29,.58-.09,.19-.2,.38-.31,.57-.17,.32-.34,.63-.54,.94-.08,.15-.17,.3-.27,.44,0,.03-.03,.05-.05,.07-.23,.34-.45,.68-.69,1.01,0,.01,0,.02-.02,.02-.24,.32-.49,.64-.76,.96-.33,.41-.69,.81-1.09,1.17-.12,.12-.25,.24-.38,.36-.27,.25-.55,.5-.85,.74-.39,.32-.82,.61-1.26,.89-.23,.15-.46,.3-.7,.44-.35,.2-.7,.39-1.05,.57-.72,.36-1.46,.69-2.21,.95-.74,.27-1.48,.48-2.2,.62-.61,.13-1.22,.22-1.83,.3-.89,.1-1.76,.15-2.64,.14-.2,0-.39,0-.59-.01-.2,0-.39-.02-.59-.02-.04,0-.09,0-.14-.02-.25-.01-.49-.03-.73-.06-.14-.02-.28-.03-.41-.05-.21-.02-.42-.05-.63-.08-.07,0-.13-.03-.2-.03-.37-.06-.72-.12-1.08-.19-.27-.05-.54-.11-.81-.18-.5-.11-1-.26-1.49-.41-.23-.07-.46-.14-.67-.22-.93-.31-1.85-.68-2.73-1.11-.36-.17-.72-.35-1.08-.54-.35-.19-.7-.37-1.05-.58-.11-.06-.21-.13-.32-.19-.58-.35-1.15-.71-1.7-1.1-.1-.07-.2-.13-.29-.2-.15-.1-.3-.19-.46-.26-.15-.07-.32-.15-.48-.19-.11-.04-.21-.06-.31-.08-.08-.02-.17-.03-.25-.05-.16-.02-.31-.03-.46-.04-.06-.05-.13-.09-.2-.13-.08-.05-.15-.09-.22-.13-.17-.09-.36-.17-.55-.23-.08-.02-.16-.03-.24-.05-.07-.02-.13-.03-.2-.03-.06,0-.13-.02-.2-.02-.12,0-.24-.01-.35,0-.1,0-.2,.02-.3,.03-.23,.03-.45,.08-.66,.16-.21,.08-.43,.18-.63,.3-.15,.1-.31,.22-.45,.34-.14,.12-.28,.25-.4,.39-.11,.14-.22,.3-.31,.45-.06,.1-.1,.2-.15,.31-.03,.07-.05,.14-.08,.22-.03,.07-.05,.13-.05,.2-.08,.33-.08,.66,0,.99,.19,.8,.39,1.59,.58,2.39,.2,.8,.39,1.59,.56,2.4,.15,.59,.28,1.2,.42,1.8,.02,.13,.05,.25,.08,.38,.02,.07,.03,.15,.06,.21,.26,1.2,.51,2.4,.73,3.61,.13,.67,.25,1.35,.35,2.02,.02,.05,.02,.1,.02,.15,.05,.29,.09,.59,.12,.88,.07,.46,.14,.93,.21,1.4,.09,.62,.15,1.23,.22,1.86,0,.09,.02,.19,.03,.28,.03,.32,.06,.63,.09,.95,.03,.33,.06,.66,.08,1,.09,1.23,.13,2.48,.11,3.74,0,.52-.02,1.03-.04,1.55,0,.04,0,.09,0,.14-.02,.41-.04,.82-.08,1.23-.01,.18-.03,.34-.04,.52,0,.02,0,.04,0,.06-.04,.39-.08,.79-.13,1.18,0,.02,0,.04,0,.06-.06,.46-.12,.93-.2,1.39,0,.04-.02,.08-.02,.13-.1,.58-.21,1.15-.34,1.72-.33,1.46-.77,2.9-1.31,4.28-.11,.29-.23,.57-.35,.85-.12,.27-.24,.54-.36,.8-.12,.27-.24,.52-.37,.77-.41,.82-.86,1.59-1.36,2.35-.1,.17-.22,.34-.33,.51-.18,.24-.33,.47-.51,.69h0c-.26,.35-.52,.68-.79,1.01-.1,.14-.22,.27-.33,.4-.34,.42-.7,.83-1.07,1.21-.38,.4-.76,.79-1.15,1.16-.39,.37-.79,.72-1.2,1.06-.61,.52-1.24,1.01-1.86,1.47-.24,.17-.49,.36-.73,.53-.65,.44-1.29,.86-1.95,1.26-.04,.02-.08,.04-.12,.06-.12,.07-.22,.14-.33,.21-.16,.09-.32,.19-.47,.27-.27,.16-.55,.3-.82,.45-.05,.03-.11,.06-.15,.09-.11,.05-.22,.11-.35,.18-.07,.03-.14,.06-.2,.09-.16,.08-.33,.17-.5,.24-.02,.01-.04,.01-.06,.01-.52,.26-1.04,.49-1.57,.72-.31,.14-.63,.27-.95,.4-.41,.16-.83,.32-1.24,.47-.05,.02-.09,.03-.14,.04,0,0-.03,.01-.04,.02l-.02,.02c-.3,.11-.61,.2-.92,.31-.32,.11-.64,.22-.96,.31-.56,.18-1.14,.35-1.72,.51-.08,.01-.15,.03-.22,.06-.47,.12-.94,.24-1.4,.36-.05,.01-.11,.03-.16,.03-.32,.08-.65,.15-.99,.22-.27,.07-.56,.12-.83,.18-.12,.02-.24,.05-.36,.07-.44,.08-.87,.16-1.31,.23-.21,.05-.43,.07-.64,.11-.46,.08-.92,.14-1.38,.2-.2,.03-.39,.05-.59,.08-.67,.08-1.32,.15-1.98,.21-1.45,.13-2.91,.21-4.35,.25-.45,.01-.9,.02-1.36,.01-.31,0-.63-.01-.95-.02-.17,0-.33,0-.5-.01-.62-.01-1.28-.05-1.92-.12-.27-.02-.54-.05-.81-.08-.36-.04-.73-.09-1.09-.13-.23-.02-.45-.06-.68-.09-.59-.1-1.18-.2-1.78-.34-.14-.03-.27-.05-.4-.09-.1-.03-.2-.05-.3-.08-.03,0-.06-.01-.09-.02-.26-.06-.51-.13-.76-.2-.27-.07-.53-.13-.8-.21-.37-.1-.74-.21-1.1-.34-.05-.02-.11-.04-.16-.05-.6-.2-1.2-.4-1.78-.64-.17-.06-.34-.13-.5-.2-.27-.12-.54-.24-.79-.37-.13-.06-.26-.12-.38-.19-.17-.08-.34-.16-.49-.24-.15-.07-.3-.15-.43-.22-.25-.14-.48-.27-.68-.39-.23-.14-.45-.28-.68-.42-.66-.45-1.31-.91-1.95-1.4h-.02s-.07-.05-.09-.07c-.09-.07-.18-.13-.26-.21-.04-.04-.07-.08-.1-.11-.61-.46-1.15-.91-1.66-1.37-.16-.15-.32-.31-.49-.47l-.34-.32c-.34-.34-.69-.72-1.04-1.12-.19-.2-.39-.41-.57-.62-.77-.89-1.48-1.82-2.15-2.79h0c-.32-.44-.61-.89-.9-1.34-.16-.25-.32-.49-.46-.74v-.02s-.02-.03-.04-.05c-.03-.05-.06-.1-.08-.14,0,0-.01-.03-.01-.03-.15-.25-.3-.51-.44-.77-.44-.77-.83-1.56-1.22-2.36-.25-.52-.5-1.07-.73-1.61-.21-.55-.44-1.09-.66-1.64-.24-.64-.47-1.28-.68-1.93-.11-.32-.22-.65-.3-.97-.29-.95-.55-1.91-.77-2.87-.08-.36-.17-.72-.24-1.08-.08-.33-.15-.67-.21-1.01-.14-.66-.25-1.33-.35-2h0c-.1-.62-.18-1.22-.26-1.83-.04-.36-.08-.72-.12-1.1-.01-.07-.02-.15-.03-.23-.04-.39-.08-.78-.11-1.18-.06-.59-.1-1.19-.14-1.77,.04-1.94,.12-3.86,.24-5.8,.13-1.93,.29-3.85,.48-5.77,.13-1.28,.28-2.56,.45-3.84,.11,.1,.23,.2,.34,.3,.11,.1,.22,.19,.33,.3,.12,.09,.23,.21,.34,.32,.3,.28,.58,.56,.85,.85,.25,.26,.5,.53,.73,.79,.05,.05,.09,.1,.13,.14,.13,.15,.27,.31,.4,.47,.22,.26,.44,.52,.64,.79,.23,.3,.46,.6,.67,.9,.11,.14,.22,.3,.32,.45,.11,.13,.2,.27,.29,.41,.15,.21,.29,.42,.42,.65,.21,.31,.39,.64,.58,.96,.15,.26,.3,.52,.44,.79,.08,.13,.16,.27,.22,.41,.41,.79,.78,1.62,1.12,2.44,.17,.42,.32,.85,.47,1.27,.1,.27,.18,.55,.26,.83,.24,.72,.44,1.45,.58,2.19,.09,.35,.16,.71,.22,1.07,.04,.18,.07,.35,.09,.53,.12,.65,.21,1.32,.26,1.99v.05c.03,.29,.14,.53,.31,.7-.05,.03-.11,.05-.16,.08-.15,.07-.26,.16-.37,.25-.06,.05-.1,.1-.14,.15-.03,.04-.07,.08-.08,.13-.07,.11-.12,.24-.16,.37-.05,.24-.04,.48,.01,.74,.04,.15,.1,.28,.18,.4,.04,.06,.08,.12,.13,.17,.01,.02,.02,.03,.03,.05,.02,.03,.03,.06,.05,.08,.03,.02,.06,.05,.11,.07,0,0,0,0,.01,0s.02,0,.03,0c.03,.02,.06,.05,.09,.07,.04,.04,.08,.06,.13,.07,.04,.03,.09,.05,.13,.06,.27,.07,.59,.06,.93-.12,.59-.28,1.19-.55,1.8-.76,.3-.11,.6-.21,.91-.3,.62-.2,1.25-.35,1.88-.47,.26-.05,.53-.09,.79-.13,.15-.01,.28-.04,.43-.05,.23-.04,.47-.05,.7-.07,.32-.03,.65-.05,.97-.06,.6-.02,1.21,0,1.81,.04,.21,.01,.41,.03,.62,.06,1.02,.1,2.03,.29,3.02,.58,.21,.05,.42,.12,.61,.19,.21,.06,.41,.14,.62,.21,.55,.2,1.03,.08,1.38-.2,.05-.04,.11-.08,.14-.14,.02,0,.03-.01,.04-.04,.06-.05,.1-.11,.14-.18,.12-.17,.2-.37,.23-.57,0-.03,.02-.06,.02-.09,0-.06,0-.12,0-.17v-.05c0-.07-.02-.14-.04-.2-.04-.19-.13-.36-.27-.51-.05-.06-.11-.1-.17-.15-.05-.04-.12-.08-.2-.11-.05-.04-.11-.06-.17-.08-.27-.1-.54-.19-.8-.27h0s0,0,0,0c.24-1.01,.49-2.01,.78-3,.11-.38,.21-.75,.33-1.12,.07-.26,.15-.52,.23-.77,.09-.28,.18-.57,.27-.84,.07-.2,.14-.41,.21-.61,.19-.56,.39-1.11,.59-1.66,.11-.3,.23-.6,.35-.89,.16-.44,.34-.86,.52-1.29,.22-.54,.45-1.05,.69-1.58,1.18-2.6,2.59-5.12,4.2-7.51,.29-.43,.58-.85,.89-1.27h0c.72-1.01,1.48-2,2.29-2.95,.12-.16,.26-.32,.4-.48,.31-.37,.64-.74,.96-1.1,.87-.96,1.78-1.89,2.73-2.76,.07-.09,.15-.16,.25-.24,0-.01,.02-.02,.04-.03,.03-.02,.06-.04,.09-.06,.71-.66,1.44-1.29,2.18-1.91,.4-.34,.82-.66,1.24-.97,.28-.21,.56-.42,.85-.63,.38-.27,.75-.53,1.14-.78,.31-.21,.62-.4,.93-.61,.3-.21,.62-.39,.93-.58,.39-.24,.78-.47,1.18-.69,.1-.06,.2-.11,.31-.17,.38-.22,.76-.42,1.15-.61,1.46-.76,2.97-1.43,4.53-2,.25-.1,.51-.18,.76-.27,.88-.32,1.78-.59,2.7-.84,.18-.05,.35-.1,.53-.14,.16-.04,.32-.09,.49-.12,.16-.03,.31-.08,.47-.11,.4-.1,.81-.19,1.23-.26,.1-.03,.2-.05,.3-.07,.07-.01,.14-.02,.21-.03,.34-.07,.68-.13,1.04-.18,.37-.06,.74-.11,1.12-.15,.11-.02,.22-.04,.34-.05,1.52,.81,3.23,1.35,5.02,1.6,2.12,.29,4.18,.15,6.19-.24,.29-.05,.59-.12,.88-.18,.28-.06,.56-.12,.84-.2,.27-.07,.56-.14,.83-.22,.83-.22,1.65-.48,2.47-.76,.27-.1,.54-.18,.82-.28,.54-.18,1.08-.38,1.62-.57,.22-.09,.45-.16,.67-.25,.05-.01,.1-.03,.15-.04,.28-.11,.57-.2,.86-.31,.25-.1,.51-.18,.75-.28,.31-.1,.61-.19,.91-.28,.52-.17,1.02-.31,1.51-.45,.21-.07,.43-.12,.63-.17,.28-.08,.57-.14,.86-.2,.15-.03,.29-.06,.44-.08,.29-.05,.59-.13,.89-.15,.3-.06,.62-.11,.94-.15,.22-.03,.44-.05,.68-.08,.11-.02,.22-.04,.34-.05,.33-.03,.68-.06,1.02-.08,.11,0,.23-.02,.33-.02,.06-.02,.13-.01,.17-.01,.17-.01,.36-.03,.53-.04,.29,0,.57,0,.86-.02,.06,0,.4,0,.5,0,.28,0,.58,.01,.87,.02,.43,.02,.87,.04,1.3,.08,.43,.04,.87,.08,1.3,.14h0c.26,.03,.5,.06,.76,.11,.5,.06,1.01,.15,1.51,.25,.49,.08,.99,.2,1.48,.32,.45,.09,.89,.22,1.34,.35,.75,.2,1.51,.44,2.23,.71,.25,.09,.51,.18,.75,.29,.46,.19,.91,.38,1.34,.56,.11,.05,.21,.09,.31,.14,.27,.13,.54,.26,.8,.39,.16,.07,.32,.15,.47,.24,.16,.07,.32,.17,.47,.25-.19,.68-.39,1.38-.6,2.06-.22,.69-.43,1.38-.67,2.06Z"/><path class="cls-5" d="M6.85,94.25c1.69,6.97,4.36,14.19,9.33,19.22,.39,.4,1.22,1.16,1.83,1.66,.73,.6,1.49,1.17,2.28,1.68,.17,.11,.33,.22,.5,.32,.05,.02,.1,.05,.18,.09,.37,.2,.73,.4,1.1,.58,.84,.41,1.7,.75,2.58,1.06,.07,.03,.13,.05,.17,.06,.19,.06,.38,.1,.57,.15,.45,.11,.91,.21,1.37,.28,.38,.07,.76,.12,1.14,.15,.19,.02,.38,.03,.57,.05,.11,0,.23,.01,.34,.02h0c.81,0,1.61-.07,2.41-.19,.38-.06,.75-.14,1.12-.21,.04,0,.18-.04,.25-.06,.21-.06,.42-.12,.63-.19,.52-.17,1.03-.37,1.52-.59,0,0,.01,0,.02,0,2.54-.69,4.87-2.34,6.59-4.32,1.74-2,2.94-4.48,3.34-7.14,.02-.11,1.24-8.58,2.16-12.7-4.06,2.25-8.87,.59-12.84-1.43-2.16-1.1-4.26-2.36-6.49-3.3-2.03-.85-4.06-1.27-6.33-1.1-5.2,.4-9.87,3.16-14.33,5.89Z"/><path class="cls-5" d="M51.06,141.96c.84,2.21,1.86,4.33,3.03,6.39,.01,.02,.09,.15,.14,.23,.15,.25,.31,.5,.47,.74,.29,.45,.59,.9,.9,1.33,.68,.96,1.4,1.89,2.17,2.79,1.52,1.77,2.62,2.83,4.54,4.3,.85,.65,1.74,1.26,2.65,1.81,.66,.4,1.69,.93,2.76,1.41,4.64,2.04,10.04,2.76,14.97,2.64,5.4-.13,10.91-.89,15.94-2.48,5.13-1.63,9.37-3.77,13.39-7.15,1.62-1.36,3.14-2.96,4.55-4.84,1.39-1.86,2.37-3.66,3.29-5.97,1.97-4.99,2.46-10.73,2.09-16.01-.46-6.54-2.01-12.95-3.57-19.32-.39-1.59,1.17-3.19,2.73-3.37,.9-.11,1.67,.14,2.26,.61,.68,0,1.37,.2,1.95,.62,5.49,3.9,12.19,5.91,18.96,4.54,2.86-.58,6.13-2.21,8.29-4.22,2.24-2.07,3.73-4.6,4.99-7.42,1.29-2.87,2.12-5.57,2.9-8.35-3.45-1.89-7.42-3.13-11.47-3.61-1.15-.14-2.32-.23-3.48-.24-.07,0-.43,0-.5,0-.29,0-.57,.01-.86,.03-.69,.03-1.38,.08-2.06,.15-2.8,.29-4.68,.75-7.19,1.61-5.19,1.77-10.42,4.09-16.08,3.31-1.79-.25-3.5-.79-5.02-1.6-16.23,1.92-29.05,13.56-35.43,27.58-1.73,3.79-3.03,7.73-3.96,11.77,.27,.09,.54,.18,.81,.28,1.7,.62,.59,3.11-1.11,2.49-4.63-1.7-9.77-1.38-14.17,.77-1.62,.79-2.69-1.72-1.08-2.51,.05-.03,.11-.05,.17-.08-.18-.18-.29-.43-.32-.76-.64-7.23-4.14-14.01-9.7-18.87-.67,5.12-1.06,10.27-1.17,15.43,.36,5.45,1.27,10.85,3.22,15.98Zm34.07-19.79c-.13-1.83,1.3-3.43,3.2-3.57,1.91-.14,3.58,1.25,3.73,3.08,.14,1.83-1.29,3.43-3.19,3.56-1.91,.14-3.58-1.24-3.73-3.07Zm-25.25,14.5c.69-2.89,4.35-4.15,6.93-2.92,2.58-1.79,6.73-.55,7.56,2.6,1,3.78-3.64,6.73-6.42,8.42-.14,.08-.27,.14-.41,.17-.25,.07-.53,.05-.82-.08-3.24-1.41-7.81-4.16-6.84-8.19Zm-10.77-12.69c-.15-1.83,1.28-3.42,3.19-3.56,1.91-.13,3.58,1.25,3.73,3.07,.15,1.84-1.28,3.43-3.2,3.58-1.9,.13-3.57-1.25-3.72-3.08Z"/><path class="cls-7" d="M61.52,129.09s0,.07,0,.11c3.27-1.05,6.79-1.26,10.17-.65,3.71-15.74,13.18-30.46,28.68-37.64,3.29-1.53,6.79-2.65,10.38-3.31-1.11-1.15-1.96-2.53-2.46-4.12-4.91,.87-10.03-.07-14.38-2.4-.59,1.16-1.3,2.25-2.19,3.24-3.25,3.61-8.03,5.48-12.93,4.12-3.58-.99-6.67-3.37-9.1-6.12-4.15,3.08-9.62,4.17-14.7,2.78-.32,1.83-.92,3.62-1.88,5.17-1.55,5.63-2.77,11.34-3.65,17.09,6.86,5.32,11.3,13.28,12.05,21.73Z"/><path class="cls-5" d="M34.36,43.25c.92,4.07,3.67,8.08,6.4,11.54,5.75,7.29,13.03,14.49,14.33,23.9,3.87,1.69,8.07,1.12,11.07-1.35-4.04-7.11-5.04-15.4-4.6-23.45,.53-9.85,3.16-19.47,3.54-29.34,.08-2.08,.05-4.25-.21-6.37-.05-.44-.12-.87-.2-1.3-.04-.24-.1-.48-.15-.72,0-.03-.03-.11-.05-.18-.12-.38-.25-.75-.4-1.11-.09-.22-.2-.43-.3-.65-.03-.07-.05-.12-.06-.16-.02-.03-.06-.07-.1-.13-.19-.25-.38-.5-.59-.73,.06,.1-.4-.26-.53-.39-.16-.08-.46-.22-.46-.23-.05-.02-.23-.07-.29-.08-.17-.03-.35-.05-.53-.07-.08,0-.14-.01-.2-.01,.01,0,.03,0,.04,0-.11,0-.22,.02-.33,.02-.04,0-.46,.07-.61,.09-.13,.04-.35,.1-.38,.11-.27,.09-.53,.2-.79,.32-.03,.01-.28,.15-.3,.16-.96,.59-1.38,1.07-2.03,1.94-.45,.6-.82,1.26-1.22,2.14-.46,1.02-.85,2.07-1.17,3.13-.58,1.87-.99,4.26-1.22,6.37-.47,4.4-.23,8.63,.23,13.14,.22,2.21,.5,4.41,.78,6.61,.03,.21,.03,.42,.01,.62,1.42,1.6,2.91,3.14,4.44,4.65,1.19,1.17,.65,3.33-.58,4.24-1.49,1.09-3.22,.6-4.41-.57-3.57-3.49-6.85-7.24-9.8-11.23-1.42-1.92-2.75-3.91-4.03-5.92-.48-.76-.96-1.55-1.59-2.2,.16,.19-.65-.46-.63-.46h0c-.16-.03-.46-.05-.48-.07-.17,.01-.35,.04-.52,.07h-.05s-.08,.05-.14,.07c-.12,.06-.25,.11-.38,.16-.05,.04-.3,.18-.37,.23-.46,.33-.92,.89-1.23,1.7-.03,.07-.13,.45-.14,.46-.04,.17-.07,.34-.1,.51-.04,.27-.07,.54-.09,.81,0,.08-.01,.48-.02,.49,.03,1.09,.22,2.17,.46,3.23Z"/><path class="cls-5" d="M95.83,75.14c3.57,2.4,7.89,3.13,12.28,2.22,.8-3.88,3.06-7.64,5.12-10.82,2.83-4.38,6.23-8.38,9.04-12.77,2.5-3.9,4.65-8.5,4.72-13.27,0,.14,.02,.34,0-.22-.02-.32-.03-.64-.06-.96-.05-.53-.12-1.07-.23-1.6-.01-.05-.09-.38-.12-.55-.05-.17-.16-.53-.17-.54-.21-.6-.47-1.19-.77-1.75-.13-.24-.28-.46-.65-.92-.45-.56-.52-.61-.91-.92-.19-.15-.39-.29-.59-.43-.06-.04-.11-.07-.14-.1-.05-.01-.11-.04-.2-.07-.18-.07-.36-.16-.55-.23-.14-.06-.29-.1-.44-.15-.05-.01-.12-.03-.21-.05-.2-.03-.39-.07-.59-.1-.2-.03-.39-.04-.59-.06-.02,0-.03,0-.04,0-.2,.01-.39,.02-.58,.05-.17,.02-.34,.05-.51,.08-.03,0-.05,.02-.08,.02-.22,.09-.45,.17-.66,.26-.02,0-.04,.02-.05,.02-.12,.08-.23,.15-.34,.24-.06,.04-.1,.06-.14,.09-.01,.02-.03,.04-.07,.08-.21,.23-.42,.48-.59,.74,0,.01-.17,.35-.2,.42-.14,.29-.25,.58-.36,.89,0,.02-.16,.61-.16,.61-.07,.31-.12,.63-.17,.94-.22,1.4-.26,2.81-.41,4.22-.32,2.96-1.26,5.88-3.37,8.12-2.19,2.31-5.01,3.82-8.23,4.29-1.68,.24-3.31-1.04-3.52-2.63-.22-1.66,1.04-3.13,2.73-3.37,.26-.04,.51-.07,.77-.13-.06,0,.59-.2,.6-.21,.2-.07,.4-.15,.59-.24,0,0,.08-.04,.19-.1-.03-.25-.03-.5,0-.76,1.44-9.14-.05-18.48-3.45-27.1-.81-2.06-1.71-4.08-2.8-6.02-.18-.32-.17-.3-.46-.74-.3-.46-.62-.91-.96-1.35-.27-.35-.55-.69-.84-1.01-.41-.45-.56-.61-.83-.84-.43-.35-.85-.7-1.31-1.01-.16-.11-.33-.22-.5-.33-.06-.04-.14-.08-.16-.09-.44-.21-.88-.41-1.34-.57-.13-.04-.25-.08-.38-.12h0s-.45-.09-.54-.11c-.39-.07-.78-.12-1.17-.15,0,0-.29,0-.46-.01-.17,.01-.45,.02-.45,.02-.38,.03-.76,.1-1.14,.16-.03,0-.05,0-.07,.01-.02,0-.04,.01-.07,.03-.22,.07-.44,.15-.66,.23-.21,.09-.43,.18-.63,.29-.01,0-.02,0-.03,.01-.03,.03-.06,.05-.1,.08-.12,.1-.63,.52-.6,.46-.12,.13-.22,.26-.34,.39-.05,.05-.21,.29-.24,.33-.07,.14-.14,.28-.21,.42-.03,.07-.21,.55-.23,.55-.09,.33-.14,.68-.18,1.02-.03,.25-.05,.51-.06,.76,0,.04,0,.07,0,.09,0,.05,.01,.11,.02,.18,.09,.95,.2,1.89,.41,2.83,.06,.26,.12,.53,.19,.79,.02,.07,.03,.11,.03,.14,.01,.05,.03,.1,.05,.17,.12,.41,.25,.82,.38,1.23,.39,1.23,.8,2.45,1.2,3.68,.76,2.38,1.5,4.77,2.21,7.16,2.84,9.68,5.2,19.54,5.97,29.59,.39,5.03,.41,10.11-.07,15.12-.11,1.12-.25,2.26-.47,3.38Z"/><g><path class="cls-8" d="M52.84,127.07c1.91-.15,3.34-1.73,3.2-3.58-.15-1.82-1.82-3.2-3.73-3.07-1.91,.14-3.34,1.73-3.19,3.56,.15,1.83,1.82,3.21,3.72,3.08Z"/><path class="cls-8" d="M88.87,125.25c1.91-.13,3.33-1.73,3.19-3.56-.15-1.83-1.82-3.21-3.73-3.08-1.9,.13-3.33,1.73-3.2,3.57,.15,1.83,1.82,3.21,3.73,3.07Z"/><path class="cls-8" d="M66.72,144.87c.3,.13,.58,.14,.82,.08,.14-.03,.27-.08,.41-.17,2.78-1.69,7.41-4.65,6.42-8.42-.84-3.15-4.98-4.39-7.56-2.6-2.57-1.23-6.24,.03-6.93,2.92-.97,4.03,3.6,6.78,6.84,8.19Zm-.63-8.74c.31,.26,.64,.33,.95,.28,.3,0,.61-.13,.86-.41,1.52-1.71,4.79-.14,3.96,2.1-.72,1.9-2.9,3.27-4.7,4.36-1.93-.88-4.01-2.07-4.83-4.01-.87-2.07,2.18-3.63,3.76-2.32Z"/><path class="cls-2" d="M62.34,138.45c.82,1.94,2.9,3.13,4.83,4.01,1.8-1.09,3.98-2.46,4.7-4.36,.83-2.24-2.44-3.8-3.96-2.1-.26,.29-.56,.41-.86,.41-.31,.05-.64-.02-.95-.28-1.57-1.31-4.63,.25-3.76,2.32Z"/></g></g><g><path class="cls-8" d="M83.97,135.32c.37,1.41,1.69,2.42,3.02,2.99,3.1,1.33,6.86,1.22,10.11,.46,.08-.01,.17-.03,.26-.06,.05-.02,.1-.03,.15-.05,1.55-.53,3.17-1.37,3.83-2.9,.68-1.58,.25-3.46-.99-4.67-1.83-1.79-4.91-1.98-7.37-1.94-2.75,.05-5.7,.35-7.75,2.29-1.06,1.01-1.64,2.45-1.27,3.87Zm2.47-.94c0,.06,.04-.21,.05-.25,.01-.05,.02-.08,.02-.1,0-.02,.03-.05,.05-.11,.08-.16,.18-.32,.25-.41,.29-.37,.66-.66,1.07-.91,1.61-.96,3.88-.96,5.73-.96,1.71,0,3.89,.16,4.99,1.3-.02,0,.26,.36,.25,.35,.02,.04,.15,.38,.18,.52,.08,.41,.04,.78-.14,1.1-.42,.74-1.49,1.16-2.38,1.45-2.65,.65-5.98,.82-8.52-.34-.45-.21-.92-.46-1.24-.84-.27-.31-.33-.45-.32-.81Z"/><path class="cls-7" d="M86.77,135.18c.32,.38,.78,.63,1.24,.84,2.53,1.16,5.87,.98,8.52,.34,.88-.29,1.96-.71,2.38-1.45,.18-.32,.22-.69,.14-1.1-.03-.14-.16-.48-.18-.52,0,.01-.27-.35-.25-.35-1.1-1.13-3.29-1.29-4.99-1.3-1.84,0-4.12,0-5.73,.96-.41,.25-.78,.53-1.07,.91-.07,.09-.17,.25-.25,.41-.03,.05-.04,.09-.05,.11,0,.02-.01,.05-.02,.1,0,.03-.04,.3-.05,.25-.01,.36,.06,.5,.32,.81Z"/></g><path class="cls-8" d="M127.18,99.8c.29-.72,1.34-1.27,2.11-.87,4.16,2.11,9.09,2.72,13.61,1.36,4.35-1.31,7.93-4.23,10.17-8.01,.44-.74,1.62-.78,2.27-.33,.78,.54,.78,1.46,.35,2.19-5.43,9.18-17.86,12.64-27.6,7.7-.78-.4-1.25-1.18-.91-2.03Z"/><path class="cls-8" d="M18.51,101.32c1.52,2.96,4.36,5.25,7.7,6.09,3.77,.96,7.82-.07,10.75-2.45,1.6-1.3,3.64,1.14,2.05,2.44-3.72,3.02-8.86,4.21-13.59,3.03-4.31-1.08-7.92-4.01-9.88-7.83-.93-1.81,2.05-3.07,2.97-1.27Z"/><path class="cls-8" d="M66.16,144.58c.01,.06,.03,.12,.06,.19,.04,.1,.07,.2,.11,.3,.63,1.74,1.03,3.7,1.99,5.31,.55,.92,1.28,1.73,2.34,2.32,1.91,1.06,4.28,1.43,6.46,1.2,2.25-.23,4.2-1.36,5.76-2.89,.49-.48,.68-1.17,.19-1.75-.4-.48-1.34-.67-1.83-.19-1.32,1.3-2.79,2.24-4.71,2.39-1.55,.12-3.46-.18-4.71-.99-.99-.64-1.43-1.45-1.87-2.62-.39-1.04-.65-2.04-.99-3.07-.07-.21-.14-.43-.22-.64-.04-.12-.09-.25-.14-.38-.02-.05-.04-.1-.07-.15-.2-.38-.53-.56-.89-.59-.71-.06-1.51,.5-1.51,1.29,0,.09,0,.18,.03,.27Z"/><path class="cls-8" d="M61.24,150.58c2.24,1.89,5.72,1.53,7.14-1.12,.7-1.3,2.93-.46,2.22,.85-2.08,3.85-7.28,5.06-10.78,2.11-1.15-.97,.26-2.82,1.41-1.84Z"/><path class="cls-4" d="M110.92,182.63c-3.94,2.56-7.82,5.22-11.72,7.84-3.15-1.03-6.66-.29-9.88,.18-4.09,.59-8.16,1.3-12.23,2.05,.17-9.26-3.09-18.2-9.05-25.11,.31,.1,.61,.19,.93,.28,.04,.02,.1,.05,.17,.06,1.66,.48,3.34,.83,5.04,1.11,1.59,.24,3.18,.43,4.79,.53,2.55,.1,5.12,.07,7.65-.12,.16-.01,.32-.03,.47-.02,4.6-.41,9.24-1.21,13.62-2.62,1.03-.32,2.06-.67,3.06-1.07,2.87,5.24,6.31,11.07,7.15,16.9Z"/><path class="cls-8" d="M122.69,268.58c-.25,.22-.5,.45-.76,.67-5.32,4.64-11.34,8.15-18,10.36-1.04,.34-2.09,.66-3.15,.94-4.28,1.12-6.3-5.45-2.02-6.57,.22-.06,.44-.12,.66-.18,6.53-1.81,12.42-4.86,17.54-9.3,.25-.21,.49-.43,.73-.64,3.27-2.95,8.29,1.74,5,4.71Z"/><path class="cls-8" d="M63.69,282.92c-.06-.03-.11-.06-.17-.09-7.02-4.12-12.86-9.64-18.48-15.42-.85-.87-1.68-1.74-2.52-2.62-3.05-3.19,1.65-8.21,4.71-5,.47,.49,.92,.97,1.4,1.45,4.95,5.18,10.04,10.26,16.04,14.21,.7,.47,1.41,.91,2.14,1.34,3.75,2.2,.62,8.1-3.12,6.12Z"/><path class="cls-6" d="M44.63,188.11c-1.37,6.08-1.73,13.15,.47,19.15-8.09-.98-16.67,4.17-16.96,13.82-.16,5.49,2.25,9.58,5.87,12.17-4.56-.99-8.74-3.45-11.85-7.37-5.33-6.73-5.73-15.64-2.86-23.5,5.39-14.71,20.5-21.75,27.73-34.99,.59,.13,1.2,.23,1.86,.24,1.91,.05,3.85-.36,5.77-.89-4.46,6.55-8.27,13.55-10.03,21.37Z"/><path class="cls-6" d="M55.02,159.45c-1.33,.37-2.67,.74-4.02,1.04-2.02,.45-3.34,.06-4.88-.99-.03-.45-.13-.91-.35-1.37-1.36-2.89-2.77-5.76-4.2-8.62,1.28,.02,2.62-.74,3.21-1.81,.18-.53,.57-.78,1.14-.75,.15-.03,.28-.08,.42-.13,.15,.34,.3,.67,.46,1,2.05,4.27,4.8,8.28,8.23,11.63Z"/><path class="cls-8" d="M90.28,190.51c.2,3.79-5.7,5.36-6.67,1.32-.02-.09-.04-.18-.07-.26-1.55-6.46-3.44-13.57-8.59-18.14-1.43-1.27-3.09-2.33-4.89-3.24-3.65-1.88-7.81-3.18-11.57-4.56-1.26,.35-2.54,.76-3.86,1.12-1.92,.53-3.86,.94-5.77,.89-.66-.01-1.27-.11-1.86-.24-7.23,13.24-22.34,20.28-27.73,34.99-2.87,7.85-2.47,16.77,2.86,23.5,3.11,3.93,7.3,6.39,11.85,7.37,3.91,.88,8.08,.67,12.08-.6,4.23-1.34,6.23,5.24,2.02,6.57-1.26,.4-2.52,.71-3.78,.93-17.25,3.04-34.09-9.97-33.72-28.38,.2-9.9,4.83-18.87,11.03-26.34,6.11-7.35,14.58-12.84,19.3-21.25-.02,0-.04-.02-.05-.04-1.11-.82-1.41-1.87-1.18-2.85-2.23-4.69-4.53-9.34-6.91-13.95-1.11-2.15-.23-4.17,1.9-5.1,1.99-.88,4.16-.98,6.17-.38,.85-.68,1.86-1.18,3.03-1.46,.02,0,.03-.01,.05-.01,4.11-.94,6.1,5.11,2.39,6.45-.14,.05-.27,.1-.42,.13-.57-.03-.96,.22-1.14,.75-.59,1.07-1.93,1.83-3.21,1.81,1.43,2.86,2.84,5.73,4.2,8.62,.22,.46,.32,.92,.35,1.37,1.54,1.04,2.86,1.44,4.88,.99,1.35-.3,2.68-.67,4.02-1.04,.65-.19,1.3-.37,1.95-.55,.84-.4,1.84-.5,2.9-.07,7.09,2.86,15.44,4.95,20.88,10.62,.05,.06,.09,.1,.14,.15h0c5.24,5.57,7.56,12.92,9.3,20.19,.06,.24,.09,.48,.1,.7Z"/></g></svg>