<?xml version="1.0" encoding="utf-8"?>
<!-- Generator: Adobe Illustrator 27.4.1, SVG Export Plug-In . SVG Version: 6.00 Build 0)  -->
<svg version="1.1" id="_圖層_2" xmlns="http://www.w3.org/2000/svg" xmlns:xlink="http://www.w3.org/1999/xlink" x="0px" y="0px"
	 viewBox="0 0 181.6 232.6" style="enable-background:new 0 0 181.6 232.6;" xml:space="preserve">
<style type="text/css">
	.st0{fill:#4C0F20;}
	.st1{fill:#F9C14B;}
	.st2{fill:#D0321A;}
	.st3{fill:#814928;}
	.st4{fill:#B68862;}
	.st5{fill:#EED6AF;}
</style>
<g id="Isolation_Mode">
	<g>
		<path class="st0" d="M51,68.2c0.1-5,0.4-11.5-3-15.1c-7.5-7.8-14.7,4.8-17.2,13.7C16.7,66.3,3.7,77.5,0.6,93.9
			c-2.9,15.2,5.2,30.1,17.5,34.2c-0.5,5.3-0.4,10.6,0.5,15.8c0.7,4.2,1.8,10,6.4,9.6c4.1-0.3,7.4-5.7,9.2-9.5
			c2.6-5.4,3.8-11.7,5.2-17.6c3.2-13.3,6.9-26.6,9.4-40C50.1,80.5,50.9,74.3,51,68.2L51,68.2z M8.3,110.1c-2-4.5-2.7-9.9-1.7-15.2
			c1.3-6.5,4.6-12.1,9.1-15.8C12,89,9.5,99.5,8.3,110.1z M18.8,120.9c-1.8-0.8-3.5-1.8-5-3.2c0-0.1,0-0.1,0-0.2
			c0.9-14.6,4.2-28.6,9.9-41.8c0.2-0.4,0.3-0.8,0.3-1.2c1.8-0.5,3.6-0.8,5.4-0.8C23.8,88.9,20.2,104.8,18.8,120.9L18.8,120.9z
			 M39,102.7c-2.6,10.8-4.8,21.9-8,32.5c-0.7,2.4-1.6,5-2.8,7.2c-0.3,0.5-2.3,3.8-2.8,3.6c-0.5-0.2-0.5-2.1-0.6-2.6
			c-0.9-5.1-1-10.4-0.5-15.6c0-0.2,0-0.4,0-0.6c0.1-0.3,0.1-0.6,0.1-0.9C25.6,108,29.1,90.9,35,73.7c0.4-1.2,0.9-2.9,1.1-4.3
			c1-4.1,2.2-7.5,5-10c3.1-2.8,3.7,1.4,3.8,4.4c0.1,2.7,0,5.5-0.2,8.2C43.9,82.4,41.5,92.6,39,102.7L39,102.7z"/>
		<path class="st1" d="M15.7,79.1c-3.7,9.9-6.2,20.3-7.4,31c-2-4.5-2.7-9.9-1.7-15.2C7.9,88.4,11.2,82.9,15.7,79.1z"/>
		<path class="st1" d="M39,102.7c-2.6,10.8-4.8,21.9-8,32.5c-0.7,2.4-1.6,5-2.8,7.2c-0.3,0.5-2.3,3.8-2.8,3.6
			c-0.5-0.2-0.5-2.1-0.6-2.6c-0.9-5.1-1-10.4-0.5-15.6c0-0.2,0-0.4,0-0.6c0.1-0.3,0.1-0.6,0.1-0.9C25.6,108,29.1,90.9,35,73.7
			c0.4-1.2,0.9-2.9,1.1-4.3c1-4.1,2.2-7.5,5-10c3.1-2.8,3.7,1.4,3.8,4.4c0.1,2.7,0,5.5-0.2,8.2C43.9,82.4,41.5,92.6,39,102.7
			L39,102.7z"/>
		<path class="st2" d="M18.8,120.9c-1.8-0.8-3.5-1.8-5-3.2c0-0.1,0-0.1,0-0.2c0.9-14.6,4.2-28.6,9.9-41.8c0.2-0.4,0.3-0.8,0.3-1.2
			c1.8-0.5,3.6-0.8,5.4-0.8C23.8,88.9,20.2,104.8,18.8,120.9L18.8,120.9z"/>
	</g>
	<path class="st0" d="M103.1,206c-2.9,6.6-3.4,14.1-1,21c0.4,1.2,0.4,2.9-0.8,3.7c-2.5,1.6-5.1,2.2-8.1,1.8c-2.8-0.4-5.8-2.9-8.4-2
		c-2.4,0.9-3.9,1.3-6.4,0c-1.3-0.6-2.3-1.8-3.7-1.4c-1,0.3-1.9,1.4-3,1.7c-6.9,1.8-7.6-9.9-8.2-14.1c-1-7.2-1.8-14.5-2.5-21.8
		c-0.1-1.2-0.3-2.4-0.4-3.5c-0.2-1.4,0.5-2.5,1.5-3c1.7-1,4.3-0.6,4.6,2c0,0.3,0.1,0.6,0.1,0.9c0.3,2.4,0.5,4.8,0.8,7.2
		c0.5,4.1,0.9,8.2,1.4,12.3c0.4,3.3,0.8,6.6,1.4,9.8c0.2,0.9,0.4,1.8,0.7,2.8c0.1,0.3,0.2,0.5,0.3,0.7c0.5-0.4,1.1-0.8,1.7-1
		c1.9-0.7,3.8-0.3,5.6,0.6c0.7,0.4,1.5,1.1,2.3,1.3c1.3,0.4,0.4,0.4,1.9-0.5c4.3-2.4,8.8,2.8,12.9,2.2c-1.8-7-1.4-14.2,1-20.9
		c0.7-2,1.6-3.9,2.7-5.8c0.2-0.3,0.4-0.6,0.6-1c1.6-2.5,4.8-1.1,5.4,1.2c0.2,0.8,0.1,1.6-0.4,2.4C104.3,203.6,103.7,204.8,103.1,206
		L103.1,206z"/>
	<path class="st0" d="M152.4,195c-5.9,7.9-10.7,18.4-5.9,28.1c1.4,2.9,1.2,5.9-2.3,7.2c-3.9,1.5-6.8-2.1-10.3-1.3
		c-1.8,0.4-3,1-4.9,0.5c-2.3-0.6-3.7-2.5-6.3-2.2c-3.4,0.4-6.5,3.7-9.4-0.1c-2.2-2.9-2.2-8.4-2.4-11.8c-0.2-3.2-0.2-6.3-0.1-9.4
		c0.1-1.9,0.3-3.7,0.5-5.6c0-0.2,0.1-0.3,0.1-0.5c0.7-2.5,4-2.2,5.4-0.4c0.5,0.6,0.8,1.4,0.7,2.4c-0.1,1.2-0.2,2.4-0.3,3.6
		c-0.2,3.7-0.2,7.4,0.2,11.1c0.1,1.2,0.3,2.4,0.4,3.5c0.1,0.6,0.2,1.1,0.3,1.7c0.1,0.2,0.1,0.3,0.2,0.5c1.2-0.2,2.4-1.1,3.7-1.2
		c1.7-0.2,3.5,0,5.2,0.5c1.3,0.4,2.6,1.7,4,1.7c1.7,0.1,3.1-1.1,5-0.9c0.4,0.1,2.6,0.6,4,1.3c-3.3-8.3-1.5-16.9,2.4-24.7
		c1.5-2.9,3.3-5.8,5.3-8.4c2-2.7,5.7,0,5.2,2.9C153,194,152.8,194.5,152.4,195L152.4,195z"/>
	<path class="st0" d="M163.9,95.7c0.6-3.5,0.8-7,0.8-10.4c0-0.2,0-0.4,0-0.6c0-0.6-0.1-1.2-0.1-1.7c-0.1-1.6-0.2-3.2-0.4-4.8
		c-1.6-15.8-6.3-31.7-17-44c-2.1-2.5-4.5-4.8-7.1-6.9c2.5-3.8,4.9-8,5.3-12.6c0.1-1.3,0.1-2.5-0.1-3.8c-0.7-4.3-3.3-8.5-7.5-10.2
		c-4.4-1.7-9.4-0.2-12.7,3.1c-3.5,3.5-4.6,8.5-4.3,13.3c-5.2-1.4-10.7-2-16.2-1.5C98,16.3,91.8,18,86.1,20.6
		c-1.3-4.8-3.2-9.6-7.2-12.8s-9.4-3.7-13.9-1c-11.1,6.6-6.6,20.6,0.8,28c-14.3,14.1-24,33.7-28.4,51.9c-4.4,18.2-5.6,37.8-3.9,56.4
		c1.5,16.3,6.2,32.9,18.3,44.7c2.8,2.7,5.8,5,9.1,7.1c2.1,1.3,4.3,2.5,6.6,3.5c9.1,4.2,19.2,6.4,29.2,7.2c0.5,0.1,1,0.1,1.4,0.1
		c1.7,0.1,3.3,0.2,5,0.3c2.6,0.1,5.2,0.1,7.7,0c2.1-0.1,4.2-0.2,6.3-0.4c8.7-0.9,17.3-2.9,25.3-6.4c3.2-1.4,6.3-3,9.3-4.8
		c0.4-0.2,0.8-0.5,1.2-0.8c14.7-9.4,26-24.7,28.2-42C183.7,131.5,175.4,111.9,163.9,95.7L163.9,95.7z M136.4,6.8
		c-2.8-1.7-6.1,0.1-7.7,2.4c-2,2.8-1.9,6.6-1.5,9.9c0,0.1,0,0.1,0,0.2c2.8,1.2,5.5,2.6,8,4.3C138.1,19.2,142.6,10.5,136.4,6.8
		L136.4,6.8z M68,12.1c-7.5,4.5-2.3,13.9,2.3,18.5c3.2-2.7,6.6-5.1,10.2-7.2C78.9,17.7,75.3,7.7,68,12.1z M175.5,144.7
		c0.1-16.6-7.3-32.4-16.8-45.7c-0.8-0.6-1.3-1.6-1.1-2.9c0.7-3.8,1-7.6,0.9-11.4c-0.1-2.5-0.2-5-0.6-7.5
		c-2.6-16.6-8.9-33.5-19.3-43.2c-13.4-12.4-31.3-15.8-48.3-8.4c-30.6,13.2-45.6,46.7-49.8,77.3c-2.2,16.2-2.7,33.4,0.3,49.5
		c2.6,14.2,9,27.5,21.1,35.9c0.8,0.5,1.5,1,2.3,1.5c0.8,0.5,1.6,0.9,2.4,1.4c0.3,2.4,0.5,4.8,0.8,7.2c9.1,4.2,19.2,6.4,29.2,7.2
		c0.7-2,1.6-3.9,2.7-5.8c2,0.1,4,0.2,6,0.2c2,0,4,0,5.9-0.1c0,0,0.1,0,0.1,0c1.8-0.1,3.6-0.2,5.4-0.4c14.4-1.6,28.5-6.6,39.6-16
		C168,173.7,175.4,159.9,175.5,144.7L175.5,144.7z"/>
	<path class="st3" d="M140.1,223.8c-1.4-0.7-3.6-1.2-4-1.3c-1.9-0.3-3.3,0.9-5,0.9c-1.3,0-2.6-1.3-4-1.7c-1.7-0.6-3.4-0.8-5.2-0.5
		c-1.3,0.1-2.5,1-3.7,1.2c0-0.1-0.1-0.3-0.2-0.5c-0.1-0.6-0.2-1.1-0.3-1.7c-0.2-1.2-0.3-2.4-0.4-3.5c-0.4-3.7-0.4-7.4-0.2-11.1
		c8.7-0.9,17.3-2.9,25.3-6.4C138.5,206.9,136.8,215.5,140.1,223.8L140.1,223.8z"/>
	<path class="st3" d="M95.6,226.5c-4.1,0.6-8.5-4.6-12.9-2.2c-1.5,0.8-0.5,0.9-1.9,0.5c-0.8-0.3-1.5-1-2.3-1.3
		c-1.8-0.9-3.7-1.3-5.6-0.6c-0.6,0.2-1.2,0.6-1.7,1c-0.1-0.2-0.2-0.4-0.3-0.7c-0.2-0.9-0.5-1.8-0.7-2.8c-0.7-3.2-1-6.5-1.4-9.8
		c-0.5-4.1-0.9-8.2-1.4-12.3c9.1,4.2,19.2,6.4,29.2,7.2C94.2,212.3,93.8,219.5,95.6,226.5L95.6,226.5z"/>
	<path class="st3" d="M135.2,23.6c-2.6-1.7-5.2-3.1-8-4.3c0-0.1,0-0.1,0-0.2c-0.4-3.3-0.5-7,1.5-9.9c1.7-2.4,5-4.1,7.7-2.4
		C142.6,10.5,138.1,19.2,135.2,23.6L135.2,23.6z"/>
	<path class="st3" d="M80.4,23.4c-3.6,2.1-7,4.5-10.2,7.2c-4.6-4.6-9.8-14-2.3-18.5C75.3,7.7,78.9,17.7,80.4,23.4z"/>
	<path class="st4" d="M156.4,183.5c-12.5,10.6-28.8,15.6-45.1,16.4c-16,0.8-33.2-1.8-47-10.1c-13.6-8.3-20.6-22.4-23.4-37.4
		c-3-16.1-2.5-33.3-0.3-49.5c4.1-30.6,19.1-64.1,49.8-77.3c17-7.3,34.9-4,48.3,8.4c10.4,9.7,16.7,26.6,19.3,43.2
		c0.4,2.5,0.5,5,0.6,7.5c0.1,3.8-0.3,7.6-0.9,11.4c-0.2,1.3,0.3,2.2,1.1,2.9c9.5,13.4,16.9,29.1,16.8,45.7
		C175.5,159.9,168,173.7,156.4,183.5L156.4,183.5z"/>
	<g>
		<path class="st3" d="M99,61.9c0.2,4.7,0.5,9.4,0.9,14.1c0.3,3.6,0.9,7.4,3.6,10.4c1.4,1.6,3.1,2.8,5.4,3.5
			c2.3,0.8,4.9,0.6,7.3,0.3c4-0.4,8.2-1.3,11.1-3.7c3.7-3.1,3.3-7.3,3.4-11.3c0.1-4.4,0.1-8.7,0.1-13.1c0-4,0.6-8.5-2.4-11.9
			c-3.2-3.5-8-3.7-13-3.3c-3.1,0.2-7.7,0.1-10.4,1.8c-1,0-1.9,0.5-2.5,1.2C99.2,53.4,98.8,57.8,99,61.9z"/>
		<path class="st0" d="M117.3,55.9c0.1-0.5,0.3-0.9,0.7-1.2l1.8-2.2c0.2-0.3,0.5-0.5,0.8-0.6c0.3-0.2,0.7-0.3,1-0.3
			c0.4,0,0.7,0,1,0.2c0.3,0.1,0.6,0.3,0.9,0.5c0.1,0.2,0.3,0.3,0.4,0.5c0.2,0.4,0.4,0.9,0.4,1.3c0,0.2-0.1,0.5-0.1,0.7
			c-0.1,0.5-0.3,0.9-0.7,1.2l-1.8,2.2c-0.2,0.3-0.5,0.5-0.8,0.6c-0.3,0.2-0.7,0.3-1,0.3c-0.4,0-0.7,0-1-0.2
			c-0.3-0.1-0.6-0.3-0.9-0.5c-0.1-0.2-0.3-0.3-0.4-0.5c-0.2-0.4-0.4-0.9-0.4-1.3C117.3,56.4,117.3,56.1,117.3,55.9z"/>
		<path class="st0" d="M105.6,54.4c0-0.4,0.1-0.7,0.3-1c0.1-0.3,0.4-0.6,0.6-0.8c0.2-0.1,0.4-0.2,0.6-0.4c0.4-0.2,0.9-0.3,1.4-0.2
			c0.2,0.1,0.4,0.1,0.7,0.2c0.4,0.2,0.8,0.5,1.1,0.8c0.6,0.7,1.1,1.4,1.7,2c0.2,0.3,0.4,0.6,0.5,0.9c0.1,0.3,0.2,0.7,0.1,1.1
			c0,0.4-0.1,0.7-0.3,1c-0.1,0.3-0.4,0.6-0.6,0.8c-0.2,0.1-0.4,0.2-0.6,0.4c-0.4,0.2-0.9,0.3-1.4,0.2c-0.2-0.1-0.4-0.1-0.7-0.2
			c-0.4-0.2-0.8-0.5-1.1-0.8c-0.6-0.7-1.1-1.4-1.7-2c-0.2-0.3-0.4-0.6-0.5-0.9C105.5,55.1,105.5,54.8,105.6,54.4z"/>
		<path class="st0" d="M132.4,53.2c0-0.5,0.1-1,0.2-1.4c0.2-0.4,0.4-0.8,0.7-1.1c0.2-0.2,0.4-0.3,0.7-0.4c0.4-0.2,0.7-0.3,1.1-0.3
			c0.3,0,0.6,0,0.9,0.1c0.1,0,0.2,0,0.2,0c0.3,0.1,0.5,0.2,0.7,0.4c0.1,0.1,0.2,0.1,0.3,0.2c0.5,0.4,0.9,1.1,1,1.8
			c0.1,0.4,0.1,0.8,0.1,1.1c0,0.4-0.1,0.8-0.1,1.1c0,0.2-0.2,0.5-0.4,0.7c0,0,0,0,0,0c-0.2,0.4-0.5,0.7-0.9,1
			c-0.3,0.2-0.6,0.3-1,0.3c-0.4,0.1-0.8,0.1-1.2,0c-0.8-0.2-1.4-0.7-1.8-1.3C132.4,54.7,132.3,53.9,132.4,53.2L132.4,53.2z"/>
		<path class="st0" d="M90.8,52.7c0-0.5,0.1-1,0.2-1.4c0.2-0.4,0.3-0.8,0.7-1.1c0.2-0.2,0.4-0.3,0.7-0.4c0.3-0.2,0.7-0.3,1.2-0.3
			c0.3,0,0.6,0,0.9,0.1c0.1,0,0.2,0,0.2,0c0.3,0.1,0.5,0.2,0.7,0.4c0.1,0.1,0.2,0.1,0.3,0.2c0.5,0.4,0.9,1.1,1,1.8
			c0.1,0.4,0.1,0.8,0.1,1.1c0,0.4-0.1,0.8-0.2,1.1c0,0.2-0.2,0.5-0.4,0.7c0,0,0,0,0,0c-0.2,0.4-0.5,0.7-0.9,1
			c-0.3,0.2-0.6,0.3-1,0.3c-0.4,0.1-0.8,0.1-1.2,0c-0.8-0.2-1.4-0.7-1.8-1.3C90.9,54.2,90.8,53.4,90.8,52.7L90.8,52.7z"/>
	</g>
	<path class="st0" d="M108.2,79c0.5,0,0.9,0,1.4,0c0.6-0.1,1.1-0.2,1.7-0.4c0.6-0.3,1.2-0.5,1.7-0.9c0,0,0.1,0,0.1-0.1
		c0.1-0.1,0.1-0.1,0.2-0.2c0-0.1-0.1-0.2-0.1-0.3c-0.1-4.6-0.2-9.3-0.3-13.9c0-1.2,1.1-2.3,2.3-2.2c1.3,0.1,2.2,1,2.2,2.3l0.3,13.2
		c0.2,0.3,0.5,0.5,0.8,0.8c0.5,0.4,1.1,0.7,1.6,1c0.6,0.2,1.1,0.4,1.7,0.5c0,0,0,0,0,0c0.6,0.1,1.2,0.2,1.6,0.7
		c0.4,0.4,0.7,1,0.6,1.6c0,0.6-0.2,1.2-0.7,1.6c-0.4,0.4-1,0.7-1.6,0.6c-1.5-0.2-2.9-0.5-4.3-1.2c-0.6-0.3-1.1-0.6-1.6-1
		c-2.2,1.8-5,2.7-7.8,2.5c-1.2-0.1-2.3-1-2.2-2.3C106,80.1,106.9,78.9,108.2,79L108.2,79z"/>
	<path class="st5" d="M92.1,140c-0.1,0.6-0.2,1.1-0.2,1.7c-0.3,3.2,0.2,6.5,1.1,9.6c3.2,11.1,11.5,19.6,19.5,27.5
		c0.7,0.7,2,1,2.8,0.2c5.3-5.4,10.7-10.8,16.1-16.1c2.2-2.2,4.5-4.4,6.3-6.9c1.9-2.5,3.1-5.3,3.8-8.4c1.3-5.9,0.3-12.1-1.2-17.9
		c-1.4-5.3-3.6-10.7-7.6-14.7c-2.2-2.2-4.9-3.8-7.2-5.8c-1.9-1.6-3.7-3.9-3.6-6.5c0-0.8-0.3-1.3-0.8-1.7c-0.3-1.1-1.4-2.1-2.8-1.5
		c-0.1,0-0.2,0.1-0.2,0.1c-0.1,0-0.2,0-0.3,0.1c-1.6,0.4-2.8,1.2-3.9,2.3c-2.7,1.8-5.1,4-7.3,6.3c-3,3.3-5.6,6.8-8.2,10.4
		c-3,4.1-5.3,8.3-6.1,13.4C91.8,134.9,91.8,137.5,92.1,140L92.1,140z"/>
	<path class="st0" d="M124.8,110.9c13.9-0.4,26.8-5.3,36.3-13.6c2.7-2.4-1.8-5.5-4.5-3.2c-7.3,6.2-17,10.3-27.4,11.4
		c0.6-0.6,0.9-1.3,0.8-2.1c-0.3-1.6-2.2-2.5-4-2.9c-0.6-0.2-1.3-0.2-1.9,0.1c-0.4,0.2-0.8,0.4-1.2,0.7c-0.6,0.4-1.2,0.9-1.8,1.4
		c-1.2,1-2.3,2.1-3.2,3.2c-0.2-0.1-0.4-0.2-0.7-0.3c-0.1-0.1-0.3-0.1-0.4-0.1c-0.9-0.9-2-1.7-3.2-2.3c-0.9-0.5-1.9-0.9-2.8-1.3
		c-0.9-0.4-1.8-0.8-2.7-1c-1.2-0.3-2.4,0-3.3,0.7c-0.8,0.6-1.6,1.3-1.9,2.2c-0.4,0.9-0.3,1.9,0.4,2.7c0.6,0.7,1.7,1.1,2.7,1.3
		c-22.7,1.5-46.2-5.1-64.1-17.9c-3.1-2.2-7.3,1-4.2,3.3c20.6,15.1,48.2,22.3,74.4,19.1c0.3,0.2,0.6,0.4,0.9,0.5
		c-1.2,2.8-2.3,5.7-3.2,8.6c-0.2,0.7,0.2,1.4,1,1.6c0.8,0.2,1.8-0.1,2-0.8c1-3.2,2.2-6.5,3.6-9.6c0.2-0.2,0.4-0.3,0.6-0.6
		c0-0.1,0.1-0.1,0.1-0.2c0.2,0,0.3,0.1,0.5,0.1c0.7,0.1,1.3,0,1.8-0.1c0.1,0.1,0.1,0.1,0.2,0.1c2.1,2.9,4.2,5.7,6.4,8.6
		c1.1,1.4,3.9,0.2,2.8-1.2c-1.8-2.3-3.7-4.7-5.4-7.1C124.1,111.9,124.6,111.4,124.8,110.9L124.8,110.9z M107.5,105.6
		c-0.5-0.1-1.1-0.2-1.6-0.4c-0.1-0.1-0.2-0.1-0.2-0.1c0,0,0,0,0,0c0,0,0-0.1,0-0.1c-0.1,0.2,0-0.1,0-0.2c0.1-0.1,0.1-0.3,0.2-0.4
		c0.2-0.3,0.5-0.6,0.8-0.8c0.1-0.1,0.2-0.2,0.4-0.3c0.4,0,1.1,0.3,1.5,0.5c0.8,0.3,1.7,0.7,2.5,1.1c0.8,0.4,1.5,0.8,2.2,1.3
		C111.3,106,109.4,105.9,107.5,105.6L107.5,105.6z M125.2,103C125.2,103,125.3,103,125.2,103c0.3,0,0.6,0.1,0.7,0.2
		c0,0,0.2,0.1,0.2,0.1c0.1,0,0.1,0.1,0.2,0.1c0,0,0.2,0.1,0.2,0.1c0.1,0.1,0.2,0.1,0.2,0.2c0,0,0.1,0.1,0.1,0.1c0,0,0,0.1,0,0.1
		c0,0,0,0,0,0c0,0-0.1,0.1-0.1,0.1c-0.1,0.1-0.2,0.1-0.2,0.2c-0.1,0.1-0.2,0.2-0.4,0.2c0,0-0.2,0.1-0.2,0.1
		c-0.3,0.2-0.6,0.3-0.9,0.5c-0.6,0.3-1.3,0.6-2,0.9c-0.2,0.1-0.3,0.1-0.5,0.2c0,0,0,0-0.1,0c-0.2-0.1-0.5-0.3-0.7-0.4
		C122.8,104.8,123.9,103.9,125.2,103L125.2,103z"/>
	<g>
		<path class="st3" d="M108.2,135.8c0.1-3.3,0.6-9.8-2.2-12.1c-1.1-0.9-2.6-1-3.9-1.2c-2.8-0.4-5.7-0.6-8.6-0.8
			c-5.1-0.5-10.1-1-15.1-2.4c-0.8-1.7-2.9-2.8-4.6-1.1c-3.6,3.5-5.2,8.5-8.2,12.5c-3.5,4.8-7.8,9.1-12,13.3
			c-1.6,1.6-1.5,4.3,0.9,5.2c8.3,3.3,17.1,4.7,26,4.2c7.9-0.5,17.4-2.6,23.8-7.7C107.4,143.3,108.2,139.7,108.2,135.8L108.2,135.8z"
			/>
		<path class="st0" d="M112.3,139.5c-0.3-0.5-1-0.9-1.3-1.3c0,0,0,0,0,0c0.1-0.1,0.1-0.1,0.2-0.2c0.8-1.1,1.7-2.2,2.1-3.6
			c0.5-2.1-0.3-3.8-1.6-5.2c1.1-2.3,2.1-5.1,0.8-7.2c-1.7-2.9-6.2-2-9-2.1c-8.9-0.4-17.7-2-26.3-4.4c-3.8-1.1-4.8,5-1.1,6.1
			c5.4,1.5,10.9,2.7,16.5,3.5c2.8,0.4,5.6,0.7,8.4,0.8c1.3,0.1,3.7-0.2,5.6-0.1c-0.4,1.1-1.2,2.4-1.5,2.9c-0.9,1.6,0.1,3.2,1.5,4.1
			c1.2,0.8,0.3,0.8-0.5,1.9c-0.6,0.9-1.2,1.7-1.5,2.8c-0.4,1.7,0.2,3.7,1.6,4.8c-0.4,0.4-0.7,0.7-1.1,1.1c-0.9,0.8-1.8,1.5-2.8,2.2
			c-2.7,1.9-5.5,3.4-8.6,4.5c-13.1,4.9-27.3,2.5-39.9-2.8c-3.6-1.5-6.3,4-2.6,5.6c15.6,6.6,33.6,8.9,49.2,1
			C104.2,151.7,116,145.3,112.3,139.5z"/>
	</g>
	<g>
		<path class="st3" d="M167,133.8l-5.7-13.9c-0.5-1.2-2-2-3.3-1.7c-8.1,1.4-16.3,2.3-24.5,2.6c-0.3,0-0.6,0.1-0.9,0.2
			c-1.9-0.3-4,1.1-3.6,3.5c0.7,4.1,0.6,8.1,0.4,12.2c-0.1,2.9,0.1,6.1,1.9,8.5c2.1,2.8,5.3,3.7,8.5,4.4c4.2,0.9,8.4,1.5,12.7,1.5
			c5.1,0,16.6,0.4,17.7-6.4C170.8,141,168.4,137.1,167,133.8L167,133.8z"/>
		<path class="st0" d="M167.6,147.1c-6.1,0.7-12.2,1.2-18.3,0.9c-3.2-0.2-6.3-0.6-9.4-1.4c-1.8-0.5-6.4-1.4-6.6-3
			c-0.1-0.7,0.9-2.1,1.1-2.8c0.2-0.8,0.2-1.6,0.1-2.4c-0.2-1.1-0.7-2.1-1.4-2.9l-0.7-0.7c-0.9-0.4-1-0.9-0.2-1.6
			c0.4-2.3,1.3-3.6,0.6-6.1c-0.3-1.1-1.1-2.2-1.5-3.4c8.8,0.9,17.5,0,25.9-2.7c3.8-1.2,2.1-7.1-1.7-5.9c-8.7,2.8-17.8,3.6-26.8,2.1
			c-1.7-0.3-3.2,0.5-3.8,2.2c-0.8,2.5-0.1,4.7,1,7.1c0.7,1.6,1.2,2.5,0.6,4.2c-0.4,1.3-1.1,2.3-1.1,3.7c0,2.9,3.1,4.1,2.3,6.7
			c-0.7,2.3-1.5,4.3,0,6.5c1.6,2.3,5,3.3,7.5,4.2c3.3,1.1,6.7,1.8,10.2,2.2c7.4,0.8,14.8,0.2,22.2-0.6
			C171.6,152.8,171.6,146.7,167.6,147.1L167.6,147.1z"/>
	</g>
</g>
</svg>
