<?xml version="1.0" encoding="UTF-8"?><svg id="_圖層_2" xmlns="http://www.w3.org/2000/svg" viewBox="0 0 171.22 294.8"><defs><style>.cls-1{fill:#ec6d72;}.cls-2{fill:#fff;}.cls-3{fill:#fff9d2;}.cls-4{fill:#bf5724;}.cls-5{fill:#876d69;}.cls-6{fill:#4d1221;}.cls-7{fill:#497140;}.cls-8{fill:#5f4740;}.cls-9{fill:#c30f23;opacity:.5;}</style></defs><g id="_圖層_2-2"><path class="cls-6" d="M167.28,197.55c-3.63-2.69-8.82-3.62-12.93-5.41-4.76-2.07-9.27-4.55-13.63-7.32,.23-1.09,.32-2.27,.23-3.52-.33-4.74-3.75-8.16-6.74-11.64-3.36-3.9-6.72-7.81-10.09-11.72-.62-.72-1.23-1.43-1.85-2.15-2.34-2.71-6.24-.28-6,2.5-2.33-.98-5.63,.47-4.78,3.49,.29,1.03,.57,2.07,.84,3.11,3.15,12.19,4.62,24.72,4.1,37.29-.26,6.22,.16,13.81-6.36,17.04-5.31,2.65-12.24,3.35-18.1,3.94-13.43,1.38-27.26-.24-40-4.62-1.3-.45-3.16-.9-4.33-1.61-2.01-1.21-1.53-1.11-1.15-3.18,.69-3.68,2.19-7.45,3.27-11.04,2.04-6.83,4.12-13.64,6.24-20.45,1.27-4.1-5.19-6.38-6.47-2.27-1.88,6.07-3.74,12.16-5.57,18.24-3.03-.4-5.99-1.05-8.88-2.09-.7-.25-4.01-1.22-4.38-1.85-.84-1.38,1.07-3.41,1.77-4.46,3.68-5.54,8.47-10.2,13.24-14.84,.12-.12,.22-.23,.32-.35,2.44-3.03-1.79-7.63-4.8-4.71-1.16,1.13-2.32,2.26-3.47,3.4-2.45,2.44-4.86,4.94-7.08,7.58-2.76,3.29-7.01,8.06-7.49,12.46-.24,2.23,.64,4.04,2.2,5.52-4.18,6.63-7.59,13.71-9.89,21.17-2,6.47-3.88,14.61,1.42,20.18,3.22,3.39,7.65,3.46,11.64,1.96-1.64,2.16-3.45,4.22-5.47,6.11-4.34,4.06-9.19,7.56-11.78,12.86-3.89,2.66-7.6,5.62-9.3,10.1-1.84,4.86-1.58,10.65-1.99,15.76-.19,2.4,2.63,4.53,4.93,3.27,5.31-2.93,12.59-5.63,15.53-11.23,3.33-6.39-.24-13.01,.27-19.66,3.16-3.44,7.32-6.3,10.34-9.62,2.26-2.49,4.24-5.17,5.98-7.99-.2,1.26-.38,2.54-.55,3.8-.4,2.98-1.49,6.78,.33,9.52,1.66,2.48,4.63,2.75,7.44,2.59,1.07-.07,2.11-.22,3.15-.43,.15,7.54,.94,15.05,2.57,22.43,1.36,6.12,3.91,13.74,11.27,14.93,6.83,1.12,12.39-4.2,14.33-10.12,2.54-7.77,2.44-16.77,3.25-24.87,3.35,.21,6.73-.13,10.36-1.21,.83-.25,1.65-.52,2.48-.8-.61,3.63-1.22,7.27-1.83,10.91-.73,4.34-2.1,9.04-2,13.45,.16,7.52,8.37,11.31,15.15,9.18,7.76-2.44,12.39-10.52,16.49-16.81,4.73-7.25,8.56-14.97,9.46-23.57,.8-.42,1.59-.9,2.35-1.45,5.75-4.18,6.94-10.77,4.94-17.24-2.34-7.61-6.59-14.94-10.51-21.87-.66-1.16-1.71-1.68-2.77-1.75,.09-1.22,.16-2.44,.22-3.62,4.95,5.12,11.39,8.69,18.24,11.02,7.94,2.71,18.13,4.93,25.24-.83,5.29-4.28,6.61-13.08,.64-17.52ZM15.04,273.85c-.54,3.59-4.18,5.95-7.84,7.83,.14-2.21,.34-4.41,.82-6.51,.76-3.38,3.12-5.6,5.79-7.55,.33,0,.66-.03,.98-.12,.33,2.13,.57,4.25,.25,6.35Zm25.68-64.71c-.62,2.12-1.59,4.4-1.69,6.66-.64,.34-1.16,.93-1.4,1.87-1.16,4.53-2.55,9.18-5.28,13.09-2.75,3.93-10.68,9.52-12,1.42-.8-4.91,1.76-10.81,3.5-15.3,1.99-5.11,4.5-9.95,7.45-14.59,3.5,1.29,7.51,2.04,10.72,2.47-.43,1.46-.88,2.93-1.3,4.4Zm20.57,78.57c-4.53-2.26-5.02-11.03-5.71-15.28-.9-5.53-1.31-11.1-1.33-16.69,.41-.09,.83-.15,1.26-.22,4.42-.64,8.36,.59,12.52,1.91,1.37,.44,2.7,.82,4.03,1.15,0,0-.01,.02-.01,.03-.49,4.73-.76,34.06-10.76,29.09Zm54.16-19.68c-3,4.88-6.29,10.73-10.7,14.53-2.19,1.9-6.69,4.25-9.24,1.37-1.87-2.12-.16-6.82,.25-9.29,1.09-6.49,2.17-12.97,3.26-19.46,.2-.06,.38-.12,.57-.17,4.08-1.14,8.11-1.3,12.32-1.31,3.26-.01,6.57-.07,9.77-.58-1.06,5.3-3.35,10.22-6.23,14.92Zm13.27-36.68c1.25,3.13,2.68,7.1,.75,10.27-1.4,2.31-4.05,3.69-6.61,4.47-5.84,1.8-12.29,.62-18.31,1.19-5.86,.56-11.11,2.95-16.67,4.62-6.25,1.89-11.38,1.23-17.53-.73-5.93-1.88-11.37-3.16-17.57-1.92-2.8,.56-5.55,1.57-8.41,1.81-2.47,.21-1.78,.4-1.42-1.71,.27-1.58,.39-3.22,.62-4.82,.98-6.84,2.35-13.59,4.05-20.29,1.24,.4,2.47,.74,3.51,1.08,5.9,1.92,12.01,3.28,18.18,4.1,12.57,1.68,25.9,1.12,38.13-2.21,4.71-1.29,9.41-3.24,12.22-7.32,.74-1.07,1.31-2.22,1.76-3.43,2.69,4.83,5.26,9.79,7.3,14.89Zm-5.45-39.37c-.41-10.15-1.99-20.24-4.66-30.08,2.38,2.77,4.77,5.54,7.15,8.32,2.32,2.69,5.13,5.3,7.05,8.27,4.47,6.9-3.56,11.15-9.54,13.5Zm37.63,18.84c-5.96,3.21-14.54,.02-20.33-2.35-5.7-2.34-10.63-5.71-14.39-10.46,4.2-1.66,8.55-3.94,11.44-7.21,5.26,3.27,10.77,6.15,16.53,8.5,2.43,1,7.6,1.8,9.38,3.9,2.36,2.75-.02,6.22-2.63,7.62Z"/><path class="cls-8" d="M121.68,253.11c-1.06,5.3-3.35,10.22-6.23,14.92-3,4.88-6.29,10.73-10.7,14.53-2.19,1.9-6.69,4.25-9.24,1.37-1.87-2.12-.16-6.82,.25-9.29,1.09-6.49,2.17-12.97,3.26-19.46,.2-.06,.38-.12,.57-.17,4.08-1.14,8.11-1.3,12.32-1.31,3.26-.01,6.57-.07,9.77-.58Z"/><path class="cls-8" d="M61.29,287.71c-4.53-2.26-5.02-11.03-5.71-15.28-.9-5.53-1.31-11.1-1.33-16.69,.41-.09,.83-.15,1.26-.22,4.42-.64,8.36,.59,12.52,1.91,1.37,.44,2.7,.82,4.03,1.15,0,0-.01,.02-.01,.03-.49,4.73-.76,34.06-10.76,29.09Z"/><path class="cls-8" d="M15.04,273.85c-.54,3.59-4.18,5.95-7.84,7.83,.14-2.21,.34-4.41,.82-6.51,.76-3.38,3.12-5.6,5.79-7.55,.33,0,.66-.03,.98-.12,.33,2.13,.57,4.25,.25,6.35Z"/><path class="cls-8" d="M42.02,204.74c-.43,1.46-.88,2.93-1.3,4.4-.62,2.12-1.59,4.4-1.69,6.66-.64,.34-1.16,.93-1.4,1.87-1.16,4.53-2.55,9.18-5.28,13.09-2.75,3.93-10.68,9.52-12,1.42-.8-4.91,1.76-10.81,3.5-15.3,1.99-5.11,4.5-9.95,7.45-14.59,3.5,1.29,7.51,2.04,10.72,2.47Z"/><path class="cls-3" d="M129.46,241.62c-1.4,2.31-4.05,3.69-6.61,4.47-5.84,1.8-12.29,.62-18.31,1.19-5.86,.56-11.11,2.95-16.67,4.62-6.25,1.89-11.38,1.23-17.53-.73-5.93-1.88-11.37-3.16-17.57-1.92-2.8,.56-5.55,1.57-8.41,1.81-2.47,.21-1.78,.4-1.42-1.71,.27-1.58,.39-3.22,.62-4.82,.98-6.84,2.35-13.59,4.05-20.29,1.24,.4,2.47,.74,3.51,1.08,5.9,1.92,12.01,3.28,18.18,4.1,12.57,1.68,25.9,1.12,38.13-2.21,4.71-1.29,9.41-3.24,12.22-7.32,.74-1.07,1.31-2.22,1.76-3.43,2.69,4.83,5.26,9.79,7.3,14.89,1.25,3.13,2.68,7.1,.75,10.27Z"/><path class="cls-8" d="M160.89,210.81c-5.96,3.21-14.54,.02-20.33-2.35-5.7-2.34-10.63-5.71-14.39-10.46,4.2-1.66,8.55-3.94,11.44-7.21,5.26,3.27,10.77,6.15,16.53,8.5,2.43,1,7.6,1.8,9.38,3.9,2.36,2.75-.02,6.22-2.63,7.62Z"/><path class="cls-1" d="M123.26,191.98c-.41-10.15-1.99-20.24-4.66-30.08,2.38,2.77,4.77,5.54,7.15,8.32,2.32,2.69,5.13,5.3,7.05,8.27,4.47,6.9-3.56,11.15-9.54,13.5Z"/><path class="cls-6" d="M131.03,105.45c-2.47-2.85-5.3-5.26-8.56-6.87,.2-.56,.27-1.18,.13-1.88-2.7-13.81-8.17-25.99-15.22-38.02-4.31-7.38-2.1-14.87-1.64-22.9,.4-7.14-.23-14.47-2.01-21.39-1.39-5.41-4.14-10.85-9.42-13.26-4.67-2.1-10.37-1.33-13.59,2.9-3.76,4.94-3.32,12.99-2.55,18.81,.66,5.03,3.83,12.89,.89,17.75-.97-1.81-2.12-3.48-3.36-4.88-8.99-10.1-26.67-8.03-35.39,1.42-.37,.4-.61,.82-.74,1.25-1.67,2.04-2.95,4.32-3.79,6.81-3.74-2.44-6.88-5.61-10.12-8.73-3.25-3.15-6.94-7.18-11.72-7.54C2.75,28.08,.4,41.55,4.19,49.51c4.98,10.44,15.91,17.88,18.21,29.64,2.48,12.69-2.89,25.51-1,38.31,.02,.09,.05,.16,.06,.25-.95,1-1.83,2.08-2.63,3.27-6.35,9.33-7.2,23.41-2.54,33.61,4.28,9.39,11.92,16.12,21.45,18.76,1.7,.46,3.45,.81,5.26,1.01,1,.11,2,.21,3.02,.3,12.31,1.08,24.88,.42,37.05-1.54,9.51-1.52,19.94-3.96,29.26-8.21,4.22-1.92,8.22-4.21,11.79-6.96,7.01-5.37,12.42-12.45,14.85-21.89,2.82-10.97-.65-22.24-7.94-30.61ZM46.54,40.56c.31-.25,.55-.53,.75-.83,6.49-4.88,17.21-5.98,23.07-.05,2.28,2.31,7.28,10.37,3.57,13.19-1.49,1.14-4.28,1.46-6.06,2.06-1.17,.4-2.39,.75-3.54,1.2-.37,.12-.73,.24-1.09,.36-.05-.05-.14-.1-.3-.17-1.34-.31-2.22-.95-3.77-.6-1.72,.39-2.31,1.7-3.63,2.56-1.55,1.01-3.04,.28-4.81,.48-1.69,.2-2.89,.84-4.25,1.82-1.06,.76-1.56,1.55-2.21,1.29-.27-.11-.57-.39-.94-.93-.21-.3-.4-.63-.57-.99h0c-.07-.15-.14-.29-.2-.42-.85-1.99-1.23-4.52-1.31-6.41h0c-.02-.4-.02-.8,0-1.2,0-.56,.05-1.11,.12-1.65,.47-3.75,2.2-7.27,5.18-9.7Zm-27.14,19.27c-2.83-3.78-6.04-7.51-8.42-11.63-1.85-3.22-4.22-14.05,2.99-12.46,3.96,.87,7.63,6.05,10.48,8.78,3.13,2.98,6.41,5.69,10.21,7.73,0,.28,0,.58,.02,.87,.02,.77,.06,1.56,.15,2.37,.03,.33,.07,.65,.12,.98,.26,1.88,.72,3.8,1.42,5.55,.1,.27,.21,.53,.33,.79,.05,.11,.11,.23,.16,.34,.36,.77,.8,1.5,1.28,2.16,.13,.18,.25,.35,.39,.51,.74,.89,1.59,1.64,2.56,2.2,2.21,1.26,4.85,1.06,6.98-.28,.78-.5,1.48-1.42,2.29-1.85,1.57-.82,2.69-.26,4.36-.29,1.27-.02,2.56-.29,3.66-.96,.19-.12,2.3-2.16,1.82-2.2,.64-.04,2.19,.9,3.07,.89,1.48-.04,3.05-.85,4.43-1.31,5.57-1.88,13.68-3.02,14.12-10.36,.08-1.33-.02-2.7-.27-4.07,9.09-7.65,3.07-19.81,2.83-29.86-.07-2.85-.32-6.66,1.24-9.18,2.24-3.61,6.88-1.56,8.91,1.05,3.61,4.65,4.19,12.17,4.56,17.82,.41,6.54-.6,12.83-1.02,19.32-.41,6.29,1.21,11.35,4.43,16.66,6.27,10.36,10.79,21.34,13.35,33.18-5.79-.91-11.81-1.07-17.65-1.09-14.87-.07-29.8,2.01-44.13,6.06-7.14,2.02-14.15,4.55-20.95,7.58-1.8,.81-3.74,1.64-5.54,2.66-.14-8.65,1.97-17.18,2-25.88,.03-10.45-4.1-17.95-10.19-26.06Zm72.53,104.85c-10.85,2.46-21.98,3.67-33.11,3.75-10.27,.07-21.53,.38-29.49-6.98-.23-.21-.45-.43-.67-.64-8.39-8.43-11.19-21.6-6.26-32.69,.68-1.52,1.51-2.87,2.45-4.09,1.15-1.39,2.63-2.77,2.66-2.9,.75-.68,1.52-1.31,2.29-1.88,5.09-3.84,10.81-5.87,16.98-8.13,1.52-.56,7.03-2.57,8.55-3.01,10.2-2.93,20.65-4.8,31.23-5.57,5.19-.37,10.39-.49,15.58-.33,4.31,.12,9.37-.01,13.78,1.03,1.08,.25,2.12,.58,3.1,.99,8.78,3.72,14.58,15.17,14.38,24.43-.04,2.2-.33,4.29-.81,6.26-4.3,17.49-24.62,26.13-40.66,29.77Z"/><path class="cls-1" d="M110.07,219.24c-5.31,2.65-12.24,3.35-18.1,3.94-13.43,1.38-27.26-.24-40-4.62-1.3-.45-3.16-.9-4.33-1.61-2.01-1.21-1.53-1.11-1.15-3.18,.69-3.68,2.19-7.45,3.27-11.04,2.04-6.83,4.12-13.64,6.24-20.45,1.27-4.1-5.19-6.38-6.47-2.27-1.88,6.07-3.74,12.16-5.57,18.24-3.03-.4-5.99-1.05-8.88-2.09-.7-.25-4.01-1.22-4.38-1.85-.84-1.38,1.07-3.41,1.77-4.46,3.68-5.54,8.47-10.2,13.24-14.84,.12-.12,.22-.23,.32-.35,12.31,1.08,24.88,.42,37.05-1.54,9.51-1.52,19.94-3.96,29.26-8.21,3.15,12.19,4.62,24.72,4.1,37.29-.26,6.22,.16,13.81-6.36,17.04Z"/><path class="cls-2" d="M133.39,128.65c-.46,21.74-23.62,31.98-41.47,36.03-10.86,2.46-21.98,3.68-33.11,3.75-10.56,.07-22.18,.4-30.17-7.62-8.39-8.43-11.19-21.61-6.26-32.7,.68-1.52,1.51-2.86,2.45-4.09,1.15-1.4,2.63-2.77,2.67-2.9,5.65-5.11,12.14-7.41,19.26-10.01,1.53-.56,7.03-2.57,8.55-3.01,10.2-2.93,20.65-4.8,31.23-5.57,5.18-.37,10.39-.48,15.57-.33,5.37,.15,11.88-.09,16.88,2.02,8.79,3.72,14.59,15.16,14.39,24.42Z"/><path class="cls-8" d="M115.86,96.58c-5.8-.91-11.81-1.07-17.66-1.1-14.87-.07-29.8,2.01-44.13,6.06-7.15,2.02-14.15,4.55-20.95,7.58-1.8,.8-3.75,1.64-5.55,2.66-.14-8.65,1.97-17.18,2-25.88,.03-10.45-4.1-17.95-10.18-26.06-2.84-3.79-6.05-7.51-8.42-11.63-1.86-3.22-4.22-14.05,2.99-12.46,3.95,.87,7.62,6.06,10.49,8.78,3.12,2.98,6.41,5.69,10.2,7.74-.03,5.56,1.6,12.99,6.45,15.76,2.21,1.27,4.86,1.07,6.99-.27,.78-.5,1.48-1.43,2.29-1.85,1.57-.82,2.69-.26,4.36-.29,1.26-.02,2.56-.29,3.65-.96,.19-.11,2.37-2.22,1.8-2.2,.63-.06,2.2,.9,3.09,.89,1.48-.03,3.05-.85,4.43-1.31,5.57-1.87,13.68-3.02,14.12-10.35,.08-1.33-.02-2.7-.27-4.08,9.09-7.65,3.07-19.81,2.83-29.86-.08-2.85-.32-6.66,1.24-9.18,2.24-3.61,6.88-1.56,8.91,1.05,3.61,4.65,4.19,12.17,4.56,17.82,.42,6.55-.59,12.83-1.02,19.32-.42,6.29,1.21,11.35,4.43,16.65,6.27,10.36,10.78,21.35,13.35,33.18Z"/><path class="cls-5" d="M73.94,52.88c-1.49,1.14-4.28,1.46-6.06,2.07-1.18,.4-2.39,.75-3.55,1.2-.36,.12-.73,.24-1.09,.36-.05-.05-.14-.1-.29-.17-1.35-.31-2.23-.95-3.78-.6-1.71,.38-2.31,1.7-3.63,2.55-1.55,1.01-3.04,.28-4.82,.48-1.69,.2-2.88,.84-4.25,1.82-1.49,1.08-1.86,2.21-3.14,.36-1.41-2.04-1.98-5.45-2.08-7.82-.22-4.76,1.56-9.52,5.29-12.55,.31-.25,.55-.53,.75-.83,6.48-4.88,17.21-5.98,23.07-.05,2.28,2.31,7.28,10.37,3.57,13.19Z"/><g><g><g><path class="cls-7" d="M34.73,63.01c.29,.19,.57,.35,.92,.4-.26,.85-.51,1.69-.77,2.54,.22,.12-.89-.3-1.11-.36,.58-.42,1.17-.84,1.75-1.26-.04-.23,0-.26,.09-.11-.75,1.42-1.29,1.76-1.61,1.02-.16-.28-.36-.52-.57-.77-.79-.93-1.68-1.78-2.6-2.58,.76-.18,1.52-.36,2.29-.55-.03-.24-.02-.22,.04,.06,.03,.14,.07,.27,.15,.39,.08,.17,.19,.44,.34,.54-.69,.37-1.38,.75-2.07,1.12-.01,.21-.03-.09-.09-.22-.14-.29-.32-.56-.53-.81-.09-.1-.18-.21-.28-.3,0,0,0,0,0,0-.67-.37-.2-.79,1.43-1.26,.03,.08,.07,.15,.12,.23,.4,.71-2.24,.54-1.42,1.15,.69-.37,1.38-.74,2.08-1.12-.02,.29,.27,.6,.43,.84,.99,1.46-1.41,2.76-2.39,1.32-.46-.69-.81-1.41-.76-2.26,.06-.96,1.22-1.75,2.07-1.12,1.24,.92,1.64,3.03-.08,3.67-1.42,.53-2.8-1.28-2.75-2.6,.06-1.79,2.08-1.8,3.1-.87,.88,.8,1.86,2.18,1.78,3.45-.06,1-1.19,1.69-2.07,1.12-1.2-.79-2.12-2.69-1.69-4.12,.32-1.06,1.54-1.2,2.28-.55,1.47,1.28,3.89,3.17,4,5.32,.06,1.16-1.29,1.73-2.22,1.43-1.02-.33-1.69-1.5-1.76-2.52-.06-.92,.98-1.47,1.76-1.26,.98,.27,2.14,1.07,2.09,2.22-.06,1.56-1.6,1.97-2.79,1.41-1.03-.48-1.24-2.11-.45-2.87,.77-.74,2.03-.59,2.89-.11,1.14,.64,.6,2.74-.77,2.54-.83-.13-1.54-.35-2.25-.81-1.48-.95-.05-3.28,1.43-2.33h0Z"/><path class="cls-6" d="M38.83,65.03c-.7,1.38-.56,4.51-2.8,4.43-.39-.02-.89-.25-1.15-.55-.62-.72-.16-.39-1.04-.15-1.1,.3-2.24-.25-2.55-1.42-.17-.67-.19-1.34-.5-1.97,.32,.26,.21,.23-.33-.07-.43-.18-.77-.43-1.13-.72-.99-.8-1.78-1.97-2.14-3.19-.34-1.13,.19-2.42,1.06-3.12,1.37-1.11,3.23-.26,4.76-.13,1.74,.15,1.65,2.89-.1,2.74-.97-.08-1.91-.35-2.88-.44-.58-.05,.24,1.13,.29,1.21,.38,.56,.82,.98,1.44,1.25,.63,.27,1.1,.51,1.42,1.15,.17,.34,.55,2.22,.72,2.31-.34-.06-.69-.11-1.03-.16,.8-.22,1.25-.87,2.17-.65,.92,.22,1.05,.97,1.76,1.38-.34-.06-.68-.11-1.03-.17-.55,.07-.43,.43-.16-.33,.13-.38,.22-.77,.33-1.15,.16-.58,.31-1.15,.58-1.68,.8-1.57,3.11-.12,2.31,1.44h0Z"/></g><path class="cls-4" d="M35.03,60.92c-.38-.39-1.28-.52-1.3-.99-.24-1.02-.29-2.54,.27-3.45,.42-1.2,2.7-2.01,3.84-2.67,1.73-.99,3.84-2.64,5.93-2.25,.39,.07,.69,.37,.87,.73,.18,.11,.34,.25,.45,.45,.9,1.62-.2,3.44-1.12,4.8-.5,.73-.56,1.81-1.2,2.39-.03,.47-.72,.52-1.01,1.01-.45,.79-1.14,1.19-1.93,1.34-.22,.39-.53,.72-.98,.82-.98,.21-2.86-.25-3.29-1.33-.05-.12-.07-.23-.11-.35-.16-.15-.3-.33-.43-.51Z"/></g><path class="cls-6" d="M44.53,53.94c-.13-1.6-3.09-.89-3.98-.67-2.14,.53-4.24,1.68-5.73,3.33-1.9,2.1,.33,5.18,2.55,5.91,1.9,.63,4.05-1.46,5.08-2.82,1.17-1.55,2.18-3.78,2.09-5.74-.08-1.77,2.63-1.66,2.72,.1,.24,4.95-4.54,11.75-9.89,11.25-4.05-.38-7.17-5.51-5.45-9.22,2-4.32,14.72-9.76,15.33-2.03,.14,1.76-2.58,1.64-2.72-.1h0Z"/></g><g><path class="cls-6" d="M84.09,74.98c.79-1.03,1.25-2.28,1.32-3.63,.02-.3-.37-.39-.55-.2-.85,.91-1.54,2-2.77,2.21-.77-.27-1.62-.32-2.46-.05-2.06,.66-3.2,2.87-2.55,4.94,.65,2.07,2.83,3.22,4.89,2.57,2.06-.66,3.2-2.87,2.55-4.94-.1-.33-.26-.63-.43-.9Z"/><path class="cls-6" d="M72.16,79.46c-.4-2.01-2.33-3.31-4.32-2.91-.82,.17-1.52,.61-2.03,1.2,0,0-.01,0-.02,0-1.42,.51-2.46-.46-3.62-1.12-.24-.14-.5,.14-.41,.38,.55,1.55,1.68,2.79,3.15,3.45,.01,.15,.01,.3,.04,.45,.4,2.01,2.33,3.31,4.32,2.9,1.99-.4,3.28-2.36,2.88-4.37Z"/><path class="cls-6" d="M57.72,84.26c-.06-.19-.21-.4-.39-.49-.19-.1-.43-.14-.64-.07-.21,.08-.36,.21-.48,.4-.6,.9-1.06,1.87-1.43,2.88-.07,.19,0,.48,.1,.64,.1,.17,.31,.33,.5,.37,.21,.04,.45,.03,.63-.1,.19-.13,.29-.29,.37-.51,0-.02,.01-.04,.02-.05,.33-.85,.75-1.66,1.26-2.43,.11-.17,.12-.45,.07-.64Z"/><path class="cls-6" d="M59.9,83.56c-.44-.09-.89,.16-1,.61-.23,.91-.46,1.81-.69,2.72-.11,.42,.17,.92,.6,1.01,.44,.09,.89-.16,1-.61,.23-.91,.46-1.81,.69-2.72,.11-.42-.17-.92-.6-1.01Z"/><path class="cls-6" d="M92.91,80.41c-.04-.14-.12-.26-.22-.36-.65-.79-1.48-1.44-2.38-1.91-.38-.2-.92-.08-1.12,.33-.19,.4-.09,.92,.33,1.13,.31,.16,.6,.35,.88,.55,.42,.33,.81,.69,1.16,1.11,.13,.15,.4,.23,.59,.23,.2,0,.44-.1,.58-.26,.14-.16,.24-.37,.23-.6-.01-.07-.02-.15-.04-.22Z"/><path class="cls-6" d="M95.56,78.94c-.2-.25-.4-.49-.62-.7-.23-.22-.48-.42-.74-.6-.47-.34-.98-.59-1.53-.79-.19-.07-.47,0-.63,.1-.17,.11-.33,.31-.37,.51-.04,.21-.03,.45,.1,.64,.12,.18,.28,.28,.49,.36-.01,0-.03-.01-.04-.02,.39,.16,.76,.37,1.11,.61,.35,.27,.66,.57,.94,.91-.04-.04-.07-.09-.11-.13,.14,.18,.27,.31,.5,.37,.2,.05,.46,.02,.63-.1,.17-.12,.32-.29,.37-.51,.04-.2,.04-.47-.1-.64Z"/></g><path class="cls-6" d="M75.3,114.21c-3.41-1.79-7.73-1.56-10.89,.67-.55,.39-.76,1.13-.4,1.72,.34,.55,1.16,.79,1.71,.4,2.48-1.75,5.74-2,8.39-.6,1.41,.74,2.61-1.45,1.19-2.19Z"/><path class="cls-6" d="M100.17,108.2c-3.66-1.41-7.41,.74-9.9,3.36-1.11,1.16,.69,2.88,1.8,1.72,.96-1.01,2.09-1.98,3.33-2.49,1.4-.58,2.76-.7,4.18-.15,.62,.24,1.35-.32,1.5-.92,.18-.72-.28-1.27-.91-1.51Z"/><path class="cls-6" d="M99.6,131.31c-.08-.6-.46-1.11-1.05-1.2-.08-.03-.17-.06-.27-.08-7.95-1.38-16.26,.4-22.93,5.02-.66,.46-.66,1.23-.32,1.76,.16,1.84,.24,3.73,.56,5.54,.16,.92,.75,1.69,1.66,1.96,.85,.25,1.74,.01,2.58-.17,1.81-.39,3.6-.85,5.37-1.4,.86-.27,1.85-.49,2.47-1.21,.27-.31,.43-.67,.54-1.05,.55,.54,1.26,.86,2.08,.92,1.08,.08,2.23-.17,3.3-.34,1.14-.19,2.28-.42,3.4-.71,1.14-.29,2.25-.66,2.64-1.91,.34-1.07,.24-2.42,.23-3.53-.01-1.21-.11-2.41-.26-3.61Zm-13.68,7.58c0,.32,.05,.7-.08,.96-.05,.1-.22,.14-.46,.22-.93,.31-1.87,.58-2.81,.84-.94,.26-1.89,.5-2.85,.71-.45,.1-.92,.24-1.38,.29,.06,0-.36,.06-.28,.03,0,0-.01,0-.02,0-.18-.58-.18-1.54-.25-2.24-.1-1.03-.2-2.05-.29-3.08,2.53-1.63,5.29-2.84,8.17-3.61,0,.01,0,.02,0,.04,0,.05,.02,.09,.03,.14,.14,1.9,.23,3.8,.21,5.7Zm11.41-1.64c0,.15-.02,.29-.05,.43-.02,0-.03,.01-.06,.02-.39,.12-.78,.22-1.17,.32-.94,.24-1.9,.44-2.86,.6-.87,.14-1.81,.33-2.68,.3-.6-.02-.78-.45-.97-.98-.59-1.62-1.02-3.31-1.36-5,0-.1-.01-.19-.02-.29,0-.06-.02-.12-.03-.18,3-.52,6.08-.56,9.11-.08,.16,1.62,.2,3.24,.1,4.86Z"/><g><path class="cls-9" d="M110.58,124.77c3.43,9.58,11.5,15.4,18.04,13.01,6.54-2.39,9.06-12.09,5.63-21.66-3.42-9.57-11.5-15.4-18.04-13.01-6.54,2.39-9.06,12.09-5.64,21.66Z"/><path class="cls-9" d="M16.54,139.9c-.34,11.8,6.29,21.55,14.8,21.79,8.52,.24,15.69-9.13,16.03-20.93,.34-11.79-6.29-21.55-14.81-21.78s-15.69,9.13-16.03,20.93Z"/></g></g></svg>