<?xml version="1.0" encoding="utf-8"?>
<!-- Generator: Adobe Illustrator 26.5.3, SVG Export Plug-In . SVG Version: 6.00 Build 0)  -->
<svg version="1.1" id="P_Icon" xmlns="http://www.w3.org/2000/svg" xmlns:xlink="http://www.w3.org/1999/xlink" x="0px" y="0px"
	 viewBox="0 0 35.6 41.3" style="enable-background:new 0 0 35.6 41.3;" xml:space="preserve">
<style type="text/css">
	.st0{fill-rule:evenodd;clip-rule:evenodd;fill:#8B674E;}
</style>
<path class="st0" d="M35.3,11.1c0-0.4-0.3-0.8-0.8-0.8h-8.2c-0.2-5.3-4-9.6-8.7-9.6c-4.7,0-8.5,4.3-8.7,9.6l-8.2,0
	c-0.4,0-0.7,0.3-0.7,0.8c0,0,0,0,0,0.1h0l1.2,25.7c0,0.1,0,0.1,0,0.2c0,0,0,0,0,0l0,0.1l0,0c0.2,1.8,1.5,3.2,3.2,3.3l0,0h25.9
	c0,0,0,0,0,0c0,0,0,0,0,0h0.1l0,0c1.8,0,3.2-1.5,3.4-3.3l0,0l0,0c0,0,0,0,0-0.1c0,0,0-0.1,0-0.1L35.3,11.1L35.3,11.1
	C35.3,11.1,35.3,11.1,35.3,11.1z M17.7,3.1c3.4,0,6.2,3.2,6.3,7.3H11.4C11.6,6.3,14.3,3.1,17.7,3.1z M24.2,30.5
	c-0.2,1.9-1.4,3.4-3.2,4.2c-1,0.4-2.3,0.7-3.4,0.6c-1.7-0.1-3.2-0.5-4.6-1.2c-0.5-0.3-1.3-0.8-1.9-1.3c-0.1-0.1-0.2-0.2-0.1-0.3
	c0.1-0.1,0.2-0.2,0.4-0.5c0.3-0.5,0.4-0.5,0.4-0.6c0.1-0.2,0.3-0.2,0.4,0c0,0,0,0,0,0c0,0,0,0,0.1,0.1c0.1,0,0.1,0.1,0.1,0.1
	c1.5,1.2,3.3,1.9,5.2,2c2.5,0,4.3-1.2,4.7-2.9c0.4-1.9-1.1-3.6-4.1-4.5c-0.9-0.3-3.3-1.2-3.7-1.5c-2-1.2-3-2.7-2.8-4.6
	c0.2-2.7,2.7-4.6,5.8-4.6c1.4,0,2.8,0.3,4.1,0.8c0.5,0.2,1.3,0.7,1.6,0.9c0.2,0.1,0.2,0.3,0.1,0.4c-0.1,0.1-0.1,0.2-0.3,0.5l0,0
	c-0.2,0.4-0.3,0.4-0.3,0.5c-0.1,0.1-0.2,0.2-0.4,0.1c-1.4-1-3-1.4-4.8-1.5c-2.2,0-3.8,1.3-3.9,3.1c0,1.6,1.2,2.7,3.7,3.6
	C22.6,25.4,24.6,27.4,24.2,30.5z"/>
</svg>
