<?xml version="1.0" encoding="UTF-8"?><svg id="Logo_Hor" xmlns="http://www.w3.org/2000/svg" viewBox="0 0 1042.25 270"><defs><style>.cls-1{fill:#9f7e66;}.cls-2{fill:#8e674d;}.cls-3{fill:#b29179;}</style></defs><g><path class="cls-2" d="M139.64,254.58c1.67,1.44,1.92,3.44,1.24,5.59-.73,2.3-2.31,3.64-4.74,4.04-2.26,.37-4.51,.85-6.75,1.37-2.62,.62-4.07-.05-4.37-2.64-.43-3.66-.53-7.39-.8-11.08-.14-1.9-.33-3.8-.51-5.7-.09-.94,.13-1.78,.97-2.39,1.75-1.28,3.49-2.37,5.74-1.64,1.69,.55,3.54,.69,5.28,1.09,1.56,.36,2.57,1.37,2.82,2.96,.28,1.77-.55,3.28-1.77,4.63-.31,.35-.74,.59-1.1,.87,1.41,1.01,2.77,1.87,3.98,2.9m-7.5-8.74c-.04,1.18-.11,2.37-.1,3.55,0,.38,.21,.74,.32,1.11,.43-.17,.93-.24,1.27-.52,.78-.64,1.44-1.57,1.03-2.44-.38-.82-1.25-1.38-1.9-2.06-.21,.11-.42,.23-.63,.35m1.98,16.36c.87-.21,2.1-.42,2.46-1.02,.7-1.16,1.09-2.71,.04-3.75-.98-.96-2.22-1.67-3.41-2.39-.83-.5-1.12,.02-1.12,.84,0,2.07,0,4.14-.01,6.35,.73,0,1.41,.12,2.05-.03"/><path class="cls-2" d="M153.6,251.4c.57-2.49,1.13-4.99,1.83-7.47,.2-.73-.58-1.74,.7-2.22,.76-.28,1.52-.6,2.29-.85,.51-.17,1.08-.39,1.57-.34,.75,.08,1.32,.35,1.82,1.14,1.81,2.84,2.54,6.14,3.62,9.28,.95,2.77,1.84,5.56,2.82,8.32,.3,.83,.78,1.6,1.24,2.35,.48,.79,.39,1.52-.4,2.12-.87,.67-1.59,1.85-2.85,1.48-.5-.14-1.02-.64-1.23-1.13-.79-1.86-1.42-3.81-2.23-5.67-.13-.29-.86-.4-1.34-.39-1.64,.03-2.07,.48-2.24,2.1-.13,1.23-.27,2.46-.48,3.67-.44,2.56-3.37,3.96-5.61,3.08-2.09-.82-1.26-2.67-1.67-4.08-.11-.37,.05-.84,.09-1.26-.06,0-.11-.01-.17-.02,.74-3.38,1.46-6.76,2.23-10.13m7.22-.33c-.1,.02-.2,.04-.3,.06-.23,1.61-.46,3.22-.7,4.96,.78-.2,1.43-.37,2.18-.56-.41-1.56-.79-3.01-1.18-4.46"/><path class="cls-2" d="M198.53,245.98c.95-1.26,2.22-1.9,3.34-1.7,.86,.16,1.85,1.35,2.02,2.28,.38,2.14,.32,4.41,.4,6.63,.09,2.62,.17,5.23,.18,7.85,0,.54-.12,1.38-.46,1.59-.46,.28-1.21,.17-1.8,.08-2.45-.38-2.59-2.18-2.44-4.25,.17-2.31,.14-4.62,.21-6.92-.15-.07-.31-.13-.46-.2-1.36,1.5-2.81,2.95-4.04,4.54-.68,.89-1.2,1.28-2.23,.87-1.37-.55-2.87-.87-3.38-2.54-.12-.41-.67-.65-1.15-1.09-.09,2.4-.2,4.64-.24,6.88-.04,2.44-2.9,4.66-5.21,3.99-2.13-.62-2.89-2.16-2.67-4.49,.3-3.12,.28-6.25,.55-9.37,.13-1.4,.52-2.84,1.04-4.19,.67-1.77,3.29-2.86,4.9-2.13,.45,.2,.84,.62,1.11,1.04,1.52,2.42,3,4.87,4.69,7.65,2.08-2.37,4-4.34,5.63-6.52"/><path class="cls-2" d="M232.04,254.58c1.67,1.44,1.92,3.44,1.24,5.59-.73,2.3-2.31,3.64-4.74,4.04-2.26,.37-4.51,.85-6.75,1.37-2.62,.62-4.07-.05-4.37-2.64-.43-3.66-.53-7.39-.8-11.08-.14-1.9-.33-3.8-.51-5.7-.09-.94,.13-1.78,.97-2.39,1.75-1.28,3.49-2.37,5.74-1.64,1.69,.55,3.54,.69,5.28,1.09,1.56,.36,2.57,1.37,2.82,2.96,.28,1.77-.55,3.28-1.77,4.63-.31,.35-.74,.59-1.1,.87,1.41,1.01,2.78,1.87,3.98,2.9m-7.5-8.74c-.04,1.18-.11,2.37-.1,3.55,0,.38,.21,.74,.32,1.11,.43-.17,.93-.24,1.27-.52,.78-.64,1.44-1.57,1.03-2.44-.38-.82-1.25-1.38-1.9-2.06-.21,.11-.42,.23-.63,.35m1.98,16.36c.87-.21,2.1-.42,2.46-1.02,.7-1.16,1.09-2.71,.04-3.75-.98-.96-2.22-1.67-3.41-2.39-.83-.5-1.12,.02-1.12,.84,0,2.07,0,4.14-.01,6.35,.73,0,1.41,.12,2.05-.03"/><path class="cls-2" d="M250.96,261.5c.14,1.22,.04,1.62-1.21,1.9-1.88,.42-3.58,.29-4.67-1.37-.23-.34-.41-.8-.4-1.23,.07-3.54,.19-7.09,.29-10.64,.04-1.26,.04-2.53,.15-3.8,.12-1.46,1.09-2.21,2.79-2.3,1.24-.06,2.21,.76,2.31,1.97,0,.08,0,.17,0,.25,0,1.14-.01,2.27-.02,3.41-.12,.02-.24,.04-.37,.06,.37,3.92,.7,7.84,1.14,11.74"/><path class="cls-2" d="M291.19,260.36c.4,0,1.01,.29,1.08,.58,.11,.5,.06,1.35-.27,1.62-.77,.65-1.71,1.23-2.65,1.49-1.84,.51-3.72,.79-5.6,1.14-.81,.15-1.37-.03-1.58-.97-1.19-5.5-1.12-11.17-.8-16.87,.04-.8-.04-1.59-.04-2.39,0-1.75,1.13-2.73,2.85-2.47,1.13,.17,2.54-.32,3.22,1.01,.69,1.35,1.58,2.59,.89,4.41-.31,.83-.04,1.82-.08,2.74-.11,2.52-.28,5.03-.37,7.55-.03,.81,.13,1.61,.21,2.41,1.09-.09,2.12-.24,3.13-.23"/><path class="cls-2" d="M304.75,251.4c.57-2.49,1.13-4.99,1.83-7.47,.2-.73-.58-1.74,.7-2.22,.76-.28,1.52-.6,2.29-.85,.52-.17,1.08-.39,1.57-.34,.75,.08,1.32,.35,1.82,1.14,1.81,2.84,2.54,6.14,3.62,9.28,.95,2.77,1.84,5.56,2.82,8.32,.3,.83,.78,1.6,1.24,2.35,.48,.79,.39,1.52-.4,2.12-.87,.67-1.59,1.85-2.85,1.48-.5-.14-1.02-.64-1.23-1.13-.79-1.86-1.42-3.81-2.23-5.67-.13-.29-.87-.4-1.34-.39-1.64,.03-2.07,.48-2.24,2.1-.13,1.23-.27,2.46-.48,3.67-.44,2.56-3.37,3.96-5.61,3.08-2.09-.82-1.25-2.67-1.67-4.08-.11-.37,.05-.84,.09-1.26-.06,0-.11-.01-.17-.02,.74-3.38,1.46-6.76,2.23-10.13m7.22-.33c-.1,.02-.2,.04-.3,.06-.23,1.61-.46,3.22-.7,4.96,.78-.2,1.43-.37,2.18-.56-.41-1.56-.8-3.01-1.18-4.46"/><path class="cls-2" d="M338.51,254.8c-.11,.35-.31,.76-.22,1.05,.63,2.24,0,4.41-.91,6.55-.16,.38-.65,.84-1.03,.92-1.04,.21-2.11,.32-3.15,.3-1.23-.02-1.9-1.02-1.8-2.7,.14-2.18,.4-4.36,.6-6.53,.23-2.4,.5-4.8,.68-7.2,.06-.92,.47-1.58,1.18-2.12,2-1.52,5.12-.52,5.53,1.8,.3,1.7,1.13,3.13,1.91,4.59,.63,1.18,1.1,2.44,1.69,3.64,.28,.55,.67,1.05,1.01,1.57,.09-.03,.19-.06,.28-.08-.07-1.58-.2-3.15-.21-4.73-.01-2.24,.04-4.5,.11-6.75,.03-.96,.69-1.22,1.55-1.24,.91-.02,1.73,.64,1.71,1.63-.05,2.18-.19,4.37-.24,6.56-.08,2.76-.08,5.52-.19,8.29-.03,.75-.23,1.54-.51,2.26-.5,1.28-1.62,1.52-2.67,.76-1.5-1.09-1.68-2.84-2.18-4.48-.41-1.36-1.07-2.63-1.67-3.92-.27-.57-.63-1.09-.93-1.58-.21,.55-.4,.98-.53,1.42"/><path class="cls-2" d="M359.54,265.73c-1.17,.03-1.64-.65-1.6-1.71,.2-5.36,.45-10.72,.65-16.07,.03-.7-.24-1.39-.15-2.07,.29-2.29,2.31-3.68,4.64-3.9,2.57-.24,4.61,.73,6.12,2.23,2.33,2.3,4.04,5.07,4.64,8.57,.4,2.34-.24,4.41-1.32,6.28-1.26,2.19-3.07,4.13-5.64,5.01-.57,.19-1.2,.32-1.69,.66-1.48,1.02-3.04,1.01-4.29,.98-.68,0-1.02,0-1.36,0m5.73-17.25c-.06,2.01-.25,4.04-.09,6.01,.19,2.22,.7,4.38,1.09,6.65,.05,0,.32,.01,.51-.11,2.08-1.28,2.88-3.23,2.97-5.42,.15-3.68-1.76-6.27-4.29-8.64-.09,.61-.19,1.06-.2,1.49"/><path class="cls-2" d="M731.83,118.46c-.61-4.34-6.8-6.01-9.85-2.97-.88,.88-1.03,2.22-1.14,3.45-.38,4.32,.67,8.06,1.09,12.29,.53,5.22,.99,10.45,1.3,15.69,.62,10.48,.75,20.99,.4,31.48-.1,2.93-.24,5.87-.41,8.8-.44,7.35,10.96,8.13,11.4,.77,1.37-23.12,.42-46.56-2.79-69.5"/><path class="cls-2" d="M786.46,175.18c-14.01,1.48-28.01,2.96-42.02,4.44-8.21,.87-16.38,2.04-24.59,2.98-6.15,.71-12.1,2.68-17.67-1.68-1.75-1.37-3.01-3.24-4.17-5.13-3.12-5.11-1.09-12.12-6.58-15.98-2.95-2.08-7.8-1.83-9.34,1.8-.6,1.4-.68,2.98-.56,4.5,.66,8.55,2.44,17.57,8.4,24.12,3.6,3.96,8.58,6.64,13.86,7.47,1.5,.24,3.02,.33,4.54,.4,1.53,.07,3.07,.11,4.6,0,2.28-.15,4.6-.59,6.91-.82,8.26-.84,16.38-2.5,24.65-3.38,14.94-1.58,29.88-3.15,44.82-4.73,9.15-.97,6.23-14.96-2.86-14"/><path class="cls-2" d="M784.47,154.95c-.06,.29-.09,.57-.1,.85-.17,5.95-.34,11.9-.23,17.84,.1,5.7,.14,11.51,1.27,17.12,.45,2.25,1.06,4.46,1.8,6.63,.42,1.21,1.04,2.76,2.22,3.4,1.12,.61,2.74,.73,3.92,.24,1.34-.55,1.85-2.58,1.91-3.87,.58-12.06,1.17-24.13,1.75-36.19,.12-2.41,.54-4.85-.4-7.15-.78-1.89-2.36-3.48-4.35-4.05-2.63-.76-5.75,.46-6.99,2.89-.34,.67-.65,1.49-.81,2.29"/><path class="cls-2" d="M854.94,90.81c-2.53,.76-5.07,2.57-6.74,4.18-2.44,2.36-4.04,5.44-5.48,8.51-4.76,10.15-8.3,21.06-8.68,32.27-.38,11.21,2.61,22.79,9.74,31.45,1.13,1.38,3.75,4.07,5.84,3.14,2.26-1,1.99-4.69,1.05-6.39-11.5-20.93-6.34-47.96,12.13-63.13,4.97-4.08-.1-9.87-4.97-10.37-.93-.09-1.91,.04-2.89,.34"/><path class="cls-2" d="M855.57,142.14c6.67-3.23,12.91,4.44,13.22,10.63,.43,8.69-7.01,16.59-12.47,22.44-3.74,4,1.87,10.5,5.64,6.45,8.59-9.21,18.42-21.12,14.41-34.62-3.06-10.3-14.49-17.48-24.62-12.58-4.97,2.4-1.17,10.08,3.82,7.68"/><path class="cls-2" d="M819.31,192.73c2.34-.23,4.76-.99,6.73-1.35,5.77-1.04,11.6-1.81,17.44-2.3,5.43-.46,10.89-.69,16.34-.63,6.57,.08,13.16,1.08,19.67,1.87,12.26,1.48,24.26,4.49,36.34,6.99,12.07,2.5,24.54,3.64,36.89,4.02,12.43,.38,25.12,.22,37.65-.34,3.29-.15,6.58-.18,9.87-.32,6.56-.28,13.06-1.33,19.54-2.36,3.18-.51,6.55-.71,9.68-1.46,2.45-.59,4.74-1.42,7.27-1.9,9.04-1.73,6.19-15.73-2.86-14-23.09,4.02-46.74,6.2-70.09,6.02-25.14-.19-49.96-4.1-74.66-8.7-23.97-4.46-49.05-7.97-72.72-.04-5.34,1.79-7.5,10.15-2.36,13.53,1.52,1,3.37,1.16,5.27,.97"/><path class="cls-2" d="M472.62,95.29c-.42-.97-1.01-1.86-1.75-2.58-1.34-1.3-2.87-3-4.54-3.81-1.9-.92-4.44-1.03-6.35-.08-3.01,1.5-4.6,5.55-2.89,8.6,.45,.8,.89,1.59,1.33,2.38,.63,1.13,1.26,2.63,2.16,3.56,2.35,2.44,5.92,3.62,9.08,1.9,.9-.49,1.7-1.16,2.32-1.98,1.67-2.23,1.75-5.42,.64-8"/><path class="cls-2" d="M582.42,146.63c9.05-3.63,17.29-8.92,24.5-15.48,5.92-5.38-2.23-14.74-8.16-9.35-6.5,5.91-13.71,10.44-21.87,13.71-7.42,2.98-1.86,14.08,5.53,11.11"/><path class="cls-2" d="M570.4,107.86c2.77,18.39-4.16,37.15,2.82,55,.67,1.71,1.48,3.37,2.39,4.96,3.63,6.29,9.03,11.79,15.56,15.06,3.18,1.6,6.65,2.64,10.22,2.86,4.36,.27,11.12-.45,12.97-5.27,.44-1.14,.4-2.4,.23-3.6-.14-1.02-.37-2.04-.86-2.95-1.09-2.05-3.12-2.9-5.31-3.08-2.24-.19-4.5-.58-6.78-.72-4.2-.27-9.14-1.64-12.37-4.46-2.78-2.43-4.4-5.89-5.95-9.24-3.91-8.49-1.96-18.53-1.21-27.49,.66-7.85,.67-15.56-.5-23.36-1.1-7.29-12.3-4.98-11.2,2.29"/><path class="cls-2" d="M640.06,142.77c12.01-5.4,24.01-10.8,36.02-16.2,7.42-3.34,1.8-14.63-5.62-11.3-12.01,5.4-24.01,10.8-36.02,16.2-7.42,3.34-1.8,14.63,5.62,11.3"/><path class="cls-2" d="M631.64,93.73c-1.85,28.23-1.96,56.5-.34,84.74,.6,10.58,2.62,19.55,9.57,27.8,4.16,4.94,9.54,8.69,15.11,11.87,2.8,1.6,5.67,3.08,8.55,4.52,1.41,.71,2.89,1.39,4.46,1.67,1.2,.22,2.34-.06,3.53-.22,2.5-.34,4.82-2.06,5.49-4.56,.51-1.88,.57-4.75-.42-6.47-.26-.45-.6-.85-.94-1.24-.47-.54-.93-1.08-1.4-1.62-1.23-1.42-2.66-1.84-4.19-2.78-1.71-1.05-3.59-1.79-5.39-2.67-2.18-1.06-4.33-2.16-6.57-3.09-1.24-.52-2.49-1.02-3.68-1.66-2.38-1.27-4.31-3.03-5.89-5.2-1.59-2.19-3.5-4.22-4.57-6.74-.96-2.24-1.68-4.59-2.04-7.01-.64-4.35-.6-8.74-.8-13.14-1.09-24.47-.68-49,.92-73.45,.48-7.35-10.92-8.12-11.4-.77"/><path class="cls-2" d="M403.78,134.64c10.87-.68,21.75-1.36,32.62-2.04,8.42-.53,9.42-13.79,.89-13.25-10.87,.68-21.75,1.36-32.62,2.04-8.42,.53-9.42,13.79-.89,13.25"/><path class="cls-2" d="M413.76,169.43c6.74-2.09,13.48-4.18,20.22-6.26,3.45-1.07,5.95-4.02,5.18-7.84-.67-3.28-4.38-6.25-7.84-5.18-6.74,2.09-13.48,4.18-20.22,6.26-3.46,1.07-5.96,4.02-5.18,7.84,.67,3.28,4.38,6.25,7.84,5.18"/><path class="cls-2" d="M423.82,144.02c-2.9,13.17-4.06,26.63-3.22,40.1,.34,5.43,8.9,6.08,8.55,.58-.79-12.63,.04-25.47,2.76-37.84,1.18-5.34-6.91-8.21-8.09-2.83"/><path class="cls-2" d="M443.11,187.12c-.3-.53-.64-1.03-1.01-1.48-1.77-2.12-5.55-2.36-8.08-2.59-2.31-.22-4.64-.28-6.95-.2-4.64,.16-9.26,.89-13.7,2.25-7.08,2.17-13.78,5.36-20.38,8.69-7.64,3.85-1.75,15.76,5.91,11.89,8.19-4.13,16.22-7.7,25.57-8.31,2.79-.18,5.59-.11,8.38,.01,2.66,.11,5.02,.59,7.56-.37,.58-.22,1.15-.47,1.64-.84,2.95-2.21,2.67-6.19,1.06-9.05"/><path class="cls-2" d="M450.05,162.92c10.46,10.02,20.93,20.04,31.39,30.05,6.6,6.32,17.42-3.02,10.76-9.4-10.46-10.02-20.93-20.04-31.39-30.05-6.6-6.32-17.42,3.02-10.76,9.4"/><path class="cls-2" d="M504.58,125.38c8.77-1.46,17.53-2.93,26.3-4.39,8.1-1.35,5.55-13.83-2.55-12.48-8.76,1.46-17.53,2.92-26.3,4.39-8.1,1.35-5.54,13.83,2.55,12.48"/><path class="cls-2" d="M500.49,159.26c12.02-2.62,24.13-4.65,36.34-6.12,8.15-.98,5.56-13.45-2.55-12.48-12.22,1.47-24.32,3.51-36.34,6.12-8.01,1.74-5.49,14.23,2.55,12.48"/><path class="cls-2" d="M513.98,134.68c1.77,10.39,.62,21.12-.06,31.57-.33,5.03-.59,10.05-.66,15.09-.03,2.38,.05,4.76,.21,7.13,.09,1.38,1.36,6.23,.64,7.36,1.28-.62,2.56-1.24,3.84-1.87-.12,.01-.24,.02-.36,.04,.55,1.65,1.09,3.31,1.64,4.96,.07-.29,.14-.59,.22-.88,1.31-5.33-6.77-8.19-8.09-2.83-.07,.29-.14,.59-.22,.88-.47,1.91-.05,3.78,1.64,4.96,3.74,2.61,8.29,1.63,9.89-2.95,.79-2.25-.19-5.37-.49-7.65-.55-4.21-.4-8.53-.28-12.76,.4-14.86,3-29.96,.48-44.76-.93-5.45-9.33-3.73-8.4,1.72"/><path class="cls-2" d="M480.69,130.83c-1.03-.96-2.42-2.07-3.68-2.7-4.52-2.29-10.23-3.39-15.26-2.65-2.02,.29-6.14,1.39-7.23,3.3-1.09,1.91-1.08,4.1-1.1,6.24-.02,2.02,.46,4.17,1.91,5.58,3.51,3.41,10.37,2.08,14.78,2.72,2.68,.39,.48,3.61-.09,5.39l-7.88,24.3c-4.96,15.3-9.92,30.61-14.88,45.91-1.7,5.26,6.39,8.08,8.09,2.83,7.29-22.51,14.59-45.01,21.88-67.52,1.69-5.21,8.9-18.35,3.46-23.4"/><path class="cls-2" d="M500.1,209.38c19.52-6.62,39.6-10.91,60.13-12.84,8.16-.77,5.55-13.24-2.55-12.48-20.52,1.93-40.6,6.22-60.13,12.84-7.66,2.59-5.22,15.11,2.55,12.48"/></g><g><path class="cls-1" d="M.64,243.78c-.79,1.55-.97,3.15,.15,4.63,2.71,3.6,11.74,3.29,14.67,.29,1.84-1.88,2.06-4.45,3.23-6.64,1.44-2.68,3.96-5.17,5.82-7.58,3.91-5.04,7.86-10.05,11.85-15.03,2.24-2.78,4.79-5.12,7.09-7.86,2.68-3.19,5.22-5.76,8.95-7.71,2.98-1.56,6.27-2.4,8.55-5,1.97-2.25,2.83-5.25,5.06-7.33,2.57-2.4,4.93-5.13,7.6-7.44,3.56-3.07,8.4-5.84,8.73-10.54,.26-3.71-2.81-6.88-4.23-10.09-1.3-2.95-4.09-7.87-7.62-4.13-3.8,4.03-6.4,8.9-9.53,13.41-3.21,4.62-6.66,9.07-10.5,13.19-1.6,1.72-3.26,3.38-4.88,5.07-4.44,4.63-9.23,9.43-12.64,14.87-7.36,11.74-16.39,21.92-26.43,31.41-1.58,1.49-4.56,3.9-5.88,6.46"/><path class="cls-3" d="M350.66,209.93c-2.43-3.73-4.43-7.73-6.94-11.42-3.33-4.03-6.31-7.91-10.49-11.16-1.52-1.18-3.35-2.83-5.2-3.46-2.03-.7-4.82,.52-6.66-.62-1.91-1.19-2.42-3.06-3.66-4.81-1.51-2.13-3.33-4.77-5.45-5.62-1.35-1.34-3.17-2.04-5.07-2.43-.69-.51-1.36-1.13-1.98-1.92-4.82-6.2-9.27-12.68-14.07-18.87-4.24-5.98-7.85-13.42-12.82-18.77-3.06-3.3-5.76-7.92-10.59-8.47-4.74-.54-8.07,4.05-11.36,6.67-3.28,2.62-8.42,3.25-11.18-.45-2.65-3.56-2.73-7.94-3.94-11.94-1.43-4.72-3-7.76-6.72-11.33-1.92-1.85-4.49-3.12-7.16-3.32-.93-.07-2.89-.22-3.59,.55-.59,.64-.4,2.17-.55,2.97-.35,1.86-1.14,3.61-2.17,5.18-7.2,11.01-23.06,12.36-34.64,15.54-2.22,.61-4.46,1.22-6.55,2.18-1.68,.77-3.25,1.74-4.82,2.7-13.37,8.2-27.28,15.71-42.13,20.88-6.71,2.34-12.83,4.02-19.94,2.61-6.67-1.32-13.08-4.98-18.08-9.54-6.57-5.98-8.57-14.92-10.12-23.3-.7-3.8-.9-7.59-1.06-11.46-.22-5.28-1.41-14.04,5.48-15.69,4.14-.99,7.28,1.22,10.46,3.58,6.11,4.53,10.51,11.2,19.21,10.38,4.59-.43,12.06-4.55,9.09-9.94-2.53-4.59-7.26-7.32-9.13-12.47-1.41-3.88-1.1-8.19-2-12.2-.94-4.18-2.89-7.93-5.59-11.25-1.45-1.78-3.11-3.4-5.01-4.69-2.76-1.87-5.92-3.05-9.05-4.2-1.09-.4-3.71-1.73-4.84-1.13-1.49,.78,.96,6.89,.12,8.92-1.25,3.06-4.93,4.95-8.13,3.85-3.53-1.2-5.6-5.71-9.44-5.82-2.45-.07-2.89,.48-5.2,.12-1.69-.26-3.13-1.34-4.72-1.98-2.68-1.06-5.73-.8-8.49,.03-2.16,.65-4.16,1.99-6.31,2.56-1.41,.37-2.79,0-4.14,.3,1.13,2.93,3.23,5.76,6.14,7.09,3.71,1.7,8.09,.71,11.78-.52,1.7-.57,5.32-1.62,6.96-.45,1.68,1.2,1.15,4.61,1.17,6.58,.05,5.62-.52,11.23-1.13,16.81-.83,7.61-1.82,15.25-1.53,22.91,.26,6.88-.19,13.52,1.34,20.35,2.55,11.42,7.36,21.04,13.49,30.89,2.29,3.68,4.8,7.06,8.61,9.3,3.32,1.95,6.79,.97,5.77,5.65-.92,4.22-4.03,7.99-6.63,11.3-5.63,7.15-11.29,14.33-17.97,20.52-9.32,8.64-20.52,15.26-28.81,24.89-2.52,2.93-4.76,6.11-7.56,8.77-3.79,3.6-8.48,6.1-12.52,9.41-2.19,1.8-4.09,3.95-5.8,6.21-.97,1.28-2.12,2.57-2.58,4.14-.21,.72-.31,1.73,.12,2.4,.39,.61,1.31,1.05,1.92,1.44,3.16,2.03,6.27,2.14,9.44,.01,.91-.61,1.84-1.2,2.74-1.82,.32-.22,.5-.56,.79-.8,.34-.29,.69-.49,1-.82,.71-.79,1.21-1.88,2.1-2.48,1.13-.75,2.44-1.23,3.58-1.98,1.2-.79,2.29-1.75,3.14-2.92,.47-.65,.86-1.36,1.31-2.02,1.1-1.59,2.43-3.01,3.74-4.42,.73-.78,1.46-1.56,2.19-2.34,.38-.41,.76-.82,1.14-1.22,.2-.21,.91-.75,.95-1.02,4.33-4.64,10.38-7.73,15.42-11.66,5.58-4.35,11.31-10.95,18.27-12.67,.91-.22,1.84-.37,2.71-.7,3.9-1.48,4.04-6.09,7.14-8.52,4.71-3.7,9.54-7.27,14.36-10.82,4.76-3.51,9.13-7.66,13.86-11.13,3.99-2.92,9.68-4.23,14.12-6.6,3.38-1.8,5.94-4.34,8.89-6.64,3.61-2.81,8.24-4.84,12.24-7.03,7.98-4.37,16.24-8.11,24.34-12.24,5.64-2.87,11.38-7.9,18.34-6.19,1.41,.35,2.67,1.14,3.89,1.92,5.56,3.54,9.86,8.12,14.93,12.25,1.7,1.39,3.39,2.77,4.78,4.49,.97,1.2,1.62,2.61,2.47,3.89,.39,.59,.88,1.08,1.29,1.63,.55,.74,.96,1.66,1.44,2.45,.4,.67,.88,1.19,1.39,1.58,.51,.87,1.06,1.72,1.73,2.49,.27,.31,.53,.61,.79,.9,.82,2.81,1.37,5.7,1.6,8.62,.16,2.08,.18,4.18,.66,6.21,.49,2.03,1.53,4.02,3.28,5.14,1.15,.73,2.51,1.04,3.85,1.28,5.57,.99,10.82,1.23,16.15,3.26,.56,.21,1.13,.44,1.6,.82,.44,.36,.77,.85,1.07,1.34,1.35,2.21,2.32,4.66,2.83,7.2,.13,.63,.24,1.29,.57,1.84,.69,1.14,2.14,1.56,3.47,1.58,1.86,.02,9.45,.45,9.84-1.85,.29-1.69-1.57-3.59-2.57-4.76-1.13-1.32-1.52-2.51-2.46-4.01-2.42-3.83-5.83-7.32-8.82-10.72-.8-.91-1.64-1.82-2.25-2.88-.53-.9-.62-1.86-1.02-2.79-.14-.33-.42-.58-.69-.81-2.31-1.93-5.4-2.38-7.58-4.26-2.49-2.14-5.33-4.02-7.52-6.48-1.75-1.96-4.85-5-5.92-7.35-.04-.09-.09-.19-.13-.28-.22-.5-.36-.99-.64-1.46-1.26-2.11-2.49-4.24-3.76-6.35,3.29-1.73,6.48-4.31,8.85-6.75,2.17-2.23,4.03-4.74,6.11-7.06,2.87-3.19,6.13-5.99,9.54-8.6,2.32-1.78,5.94-3.68,8.74-1.62,2.31,1.7,6.99,4.86,8.33,7.17,3.19,5.49,7.59,10.1,11.54,15.02,3.69,4.6,6.13,10.65,10.35,14.73,2.69,2.6,4.36,5.68,6.97,8.25,2.76,2.71,5.85,5.1,8.53,7.16,3.24,2.49,5.83,6.44,8.36,9.6,1.69,2.11,3.48,4.23,4.98,6.48,1.42,2.12,1.69,5.43,4.57,6.29,.66,.19,1.35,.2,2.04,.2,4.14,.01,8.28,.02,12.4-.31,2.06-.17,6.3,.39,7.22-2.07,.14-.36,.2-.8,.17-1.3-.08-1.51-2.14-3.3-2.96-4.55M92.25,77.1c.67-1.63,2.7-2.38,4.32-2.52,1.94-.17,3.6,.88,3.94,2.89,.1,.58,.26,1.46,.31,2.35,.07,1.44-.16,2.89-1.49,3.14-.46,.08-.93,.05-1.38-.01-2.54-.35-7.05-2.56-5.7-5.85"/><path class="cls-1" d="M244.22,75.47c-3.01,2.09,.83,9.66-5.42,14.34-2.94,2.2-6.38,3.24-10,3.49-4.27,.3-6.52,.56-8.56,4.32-.92,1.68-1.95,3.3-2.96,4.93-.93,1.49-1.89,2.17-3.19,3.29-4.48,3.88-9.33,7.34-15.15,8.49-6.7,1.32-13.21,3.95-19.59,6.33-9.11,3.4-15.7,10.06-24.1,14.67-5.97,3.28-12.69,6.23-19.09,8.54-7.91,2.85-15.99,5.99-24.59,3.8-5.34-1.36-9.57-4.88-13.79-8.2-3.81-3-4.97-7.69-6.37-12.2-1.9-6.1-3.82-12.33-3.66-18.72,.07-2.77-.24-6.38,1.34-8.66,1.79-2.58,4.65-1.02,7.13,.51,6.69,4.13,3.69,10.06,6.92,16.1,1.39,2.58,3.61,4.85,6.44,5.63,4.28,1.17,11.06-1.4,14.73-3.67,4.84-2.98,8.71-7.23,13.19-10.69,3.72-2.88,7.84-5.2,11.97-7.47,9.94-5.45,17.29-11.98,28.25-15.65,6.94-2.32,14.15-4.45,21.52-4.62,3.64-.08,7.34,.35,10.73,1.73,2.4,.97,5.25,2.86,7.89,1.68,2.17-.97,4.11-4.21,6.09-5.71,5.67-4.28,12.66-5.88,19.66-4.7,0,0,3.65,.34,.64,2.43m-101.46,39.21c1.37-.18,3.03-.68,4.59-1.48,1.54-.82,2.93-1.95,3.82-3.02,.91-1.04,1.35-2.04,1.35-2.04,0,0-1.08-.15-2.44,.06-1.38,.19-3.04,.72-4.56,1.51-1.51,.81-2.93,1.92-3.83,2.99-.93,1.04-1.36,2.04-1.36,2.04,0,0,1.08,.15,2.43-.06m18.41,1.2c1.37-.18,3.03-.68,4.59-1.48,1.54-.82,2.93-1.95,3.82-3.02,.91-1.04,1.34-2.04,1.34-2.04,0,0-1.08-.15-2.44,.06-1.38,.19-3.04,.72-4.56,1.51-1.51,.81-2.93,1.92-3.83,2.99-.93,1.04-1.36,2.04-1.36,2.04,0,0,1.08,.15,2.43-.06m4.71-15.37c1.37-.18,3.03-.68,4.59-1.48,1.54-.82,2.93-1.95,3.82-3.02,.92-1.04,1.35-2.04,1.35-2.04,0,0-1.08-.15-2.44,.06-1.38,.19-3.04,.72-4.56,1.51-1.51,.81-2.93,1.92-3.83,2.99-.93,1.04-1.36,2.04-1.36,2.04,0,0,1.08,.15,2.44-.06m14.94,5.19c1.37-.18,3.03-.68,4.59-1.48,1.54-.82,2.93-1.95,3.82-3.02,.92-1.04,1.35-2.04,1.35-2.04,0,0-1.08-.15-2.44,.06-1.38,.19-3.04,.72-4.56,1.51-1.51,.81-2.93,1.92-3.83,2.99-.93,1.04-1.36,2.04-1.36,2.04,0,0,1.08,.15,2.44-.06m17.79,1.22c1.38-.13,3.06-.57,4.64-1.31,1.57-.77,2.99-1.84,3.93-2.88,.95-1.01,1.42-1.99,1.42-1.99,0,0-1.07-.19-2.44-.03-1.38,.14-3.06,.61-4.62,1.34-1.54,.75-2.99,1.81-3.94,2.84-.97,1-1.43,1.99-1.43,1.99,0,0,1.08,.19,2.44,.03m-8.61-15.72c1.38,.04,3.1-.18,4.77-.72,1.66-.57,3.2-1.45,4.26-2.36,1.07-.88,1.66-1.8,1.66-1.8,0,0-1.04-.33-2.42-.33-1.39-.04-3.12,.23-4.75,.76-1.62,.56-3.2,1.42-4.26,2.33-1.08,.88-1.67,1.79-1.67,1.79,0,0,1.04,.32,2.41,.33m-44.33,41.34c1.37-.19,3.03-.69,4.59-1.49,1.54-.83,2.92-1.95,3.82-3.03,.91-1.04,1.34-2.05,1.34-2.05,0,0-1.08-.15-2.44,.07-1.38,.19-3.04,.73-4.56,1.53-1.51,.81-2.92,1.92-3.83,2.99-.92,1.04-1.35,2.04-1.35,2.04,0,0,1.08,.15,2.43-.07m-15.81-3.24c1.37-.19,3.03-.69,4.59-1.49,1.54-.83,2.92-1.95,3.82-3.03,.91-1.04,1.34-2.05,1.34-2.05,0,0-1.08-.15-2.44,.07-1.38,.19-3.04,.73-4.56,1.52-1.51,.81-2.92,1.93-3.82,3-.93,1.04-1.35,2.04-1.35,2.04,0,0,1.08,.15,2.43-.07"/><path class="cls-1" d="M97.42,47.14c-.73,.42-1.52,.66-2.33,.63-4.09-.18-6.23-2.91-7.63-6.27-.73-1.76-1.38-3.54-2.11-5.28-.81-1.93-1.13-4.04-1.94-5.98-.81-1.95-1.57-3.92-2.2-5.94-.86-2.8-1.12-5.42-1.62-8.24-.52-2.9-1.79-6.06,.01-8.83,.4-.61,1.08-1.09,1.81-1.07,.99,.02,1.76,.9,2.18,1.8,1.46,3.13,.93,7.26,1.53,10.6,.69,3.87,1.71,7.68,3.04,11.38,.9,2.53,2.19,4.95,2.87,7.53,.64,2.44,3.71,2.63,4.5,.09,.32-1.01,.22-2.09,.2-3.14-.02-1.41,.11-2.83,.39-4.21,.1-.47,.22-.96,.56-1.3,.77-.76,2.24-.95,3.05-.28,1.11,.92,1.59,2.56,1.71,3.93,.26,3.02-.38,6.63-.73,9.66-.21,1.83-1.56,3.9-3.31,4.92"/><path class="cls-1" d="M57.89,27.83c1.01-.26,2.07,0,2.47,1.17,1.04,2.99,2.68,5.77,4.87,8.06,1.24,1.3,4.3,4.83,6.04,1.9,.32-.54,.31-1.2,.22-1.81-.21-1.44-.8-2.79-1.34-4.14-3.36-8.43-4.72-17.59-4.53-26.66,.02-1.11,.07-2.24,.38-3.32,.35-1.2,1.49-2.59,2.75-2.94,3.16-.88,2.93,5.48,2.91,7.14-.02,3.57,.19,7.15,.68,10.69,1.15,8.45,3.84,16.7,7.88,24.21,1.62,3,3.43,5.89,5.31,8.73,1.38,2.08,4.08,4.82,3.09,7.55-.14,.4-.36,.78-.7,1.03-.5,.38-1.19,.41-1.81,.27-3.15-.7-5.02-4.98-7.17-7.11-2.87-2.83-6.7-4.46-10.24-6.39-2.47-1.34-5.27-2.51-7.47-4.26-1.14-.91-2.06-2.06-2.96-3.21-1.02-1.3-2.06-2.66-2.5-4.26-.26-.96-.3-1.97-.27-2.97,.02-.74,.07-1.5,.39-2.16,.36-.73,1.17-1.31,2.01-1.53"/></g></svg>