<?xml version="1.0" encoding="UTF-8"?><svg id="Logo_Medium" xmlns="http://www.w3.org/2000/svg" viewBox="0 0 214.66 153.34"><defs><style>.cls-1{fill:#9f7e66;}.cls-2{fill:#b29179;}.cls-3{fill:#8a654c;}</style></defs><g><path class="cls-3" d="M80.04,145.13c.96,.83,1.1,1.97,.71,3.21-.42,1.32-1.33,2.09-2.72,2.32-1.3,.21-2.59,.49-3.88,.79-1.51,.35-2.34-.03-2.51-1.52-.24-2.1-.31-4.24-.46-6.37-.08-1.09-.19-2.19-.29-3.28-.05-.54,.07-1.02,.56-1.38,1.01-.74,2-1.36,3.3-.94,.97,.32,2.03,.4,3.04,.63,.9,.21,1.48,.79,1.62,1.7,.16,1.01-.32,1.89-1.02,2.66-.18,.2-.42,.34-.63,.5,.81,.58,1.6,1.07,2.29,1.67m-4.31-5.02c-.02,.68-.06,1.36-.06,2.04,0,.22,.12,.43,.19,.64,.25-.09,.53-.14,.73-.3,.45-.37,.83-.9,.59-1.4-.22-.47-.72-.79-1.09-1.18-.12,.07-.24,.13-.36,.2m1.13,9.4c.5-.12,1.21-.24,1.41-.59,.4-.66,.63-1.56,.02-2.15-.56-.55-1.28-.96-1.96-1.38-.48-.29-.64,.01-.64,.48,0,1.19,0,2.38,0,3.65,.42,0,.81,.07,1.18-.02"/><path class="cls-3" d="M88.06,143.3c.33-1.43,.65-2.87,1.05-4.29,.12-.42-.33-1,.4-1.27,.44-.16,.87-.34,1.32-.49,.29-.1,.62-.22,.9-.2,.43,.05,.76,.2,1.04,.65,1.04,1.63,1.46,3.53,2.08,5.33,.55,1.59,1.06,3.2,1.62,4.78,.17,.48,.45,.92,.71,1.35,.28,.46,.22,.87-.23,1.22-.5,.39-.91,1.06-1.64,.85-.29-.08-.59-.37-.71-.65-.46-1.07-.81-2.19-1.28-3.25-.07-.17-.5-.23-.77-.22-.94,.02-1.19,.28-1.29,1.21-.07,.71-.15,1.41-.27,2.11-.25,1.47-1.94,2.28-3.22,1.77-1.2-.47-.72-1.53-.96-2.34-.06-.21,.03-.48,.05-.73-.03,0-.06,0-.09-.01,.43-1.94,.84-3.88,1.28-5.82m4.15-.19c-.06,.01-.11,.02-.17,.03-.13,.92-.26,1.85-.4,2.85,.45-.11,.82-.21,1.25-.32-.24-.89-.46-1.73-.68-2.56"/><path class="cls-3" d="M113.88,140.19c.55-.73,1.27-1.09,1.92-.98,.49,.09,1.07,.77,1.16,1.31,.22,1.23,.18,2.53,.23,3.81,.05,1.5,.09,3,.1,4.51,0,.31-.07,.79-.26,.91-.27,.16-.7,.1-1.03,.05-1.4-.22-1.49-1.25-1.4-2.44,.1-1.33,.08-2.65,.12-3.98-.09-.04-.18-.08-.26-.11-.78,.87-1.61,1.69-2.32,2.61-.39,.51-.69,.74-1.28,.5-.79-.32-1.65-.5-1.94-1.46-.07-.23-.38-.37-.66-.62-.05,1.38-.11,2.67-.13,3.95-.02,1.4-1.67,2.68-2.99,2.29-1.22-.36-1.66-1.24-1.53-2.58,.18-1.79,.16-3.59,.32-5.38,.07-.8,.3-1.63,.6-2.41,.39-1.02,1.89-1.64,2.81-1.23,.26,.12,.49,.36,.64,.6,.87,1.39,1.72,2.8,2.7,4.4,1.19-1.36,2.3-2.49,3.24-3.74"/><path class="cls-3" d="M133.13,145.13c.96,.83,1.1,1.97,.71,3.21-.42,1.32-1.33,2.09-2.72,2.32-1.3,.21-2.59,.49-3.88,.79-1.51,.35-2.34-.03-2.51-1.52-.25-2.1-.31-4.24-.46-6.37-.08-1.09-.19-2.19-.29-3.28-.05-.54,.07-1.02,.56-1.38,1.01-.74,2-1.36,3.3-.94,.97,.32,2.03,.4,3.04,.63,.9,.21,1.48,.79,1.62,1.7,.16,1.01-.32,1.89-1.02,2.66-.18,.2-.42,.34-.63,.5,.81,.58,1.6,1.07,2.29,1.67m-4.31-5.02c-.02,.68-.06,1.36-.06,2.04,0,.22,.12,.43,.19,.64,.25-.09,.53-.14,.73-.3,.45-.37,.83-.9,.59-1.4-.22-.47-.72-.79-1.09-1.18-.12,.07-.24,.13-.36,.2m1.13,9.4c.5-.12,1.21-.24,1.41-.59,.4-.66,.63-1.56,.02-2.15-.56-.55-1.27-.96-1.96-1.38-.48-.29-.64,.01-.64,.48,0,1.19,0,2.38,0,3.65,.42,0,.81,.07,1.18-.02"/><path class="cls-3" d="M144,149.11c.08,.7,.02,.93-.7,1.09-1.08,.24-2.06,.17-2.69-.79-.13-.2-.23-.46-.23-.7,.04-2.04,.11-4.07,.17-6.11,.02-.73,.02-1.46,.09-2.18,.07-.84,.62-1.27,1.61-1.32,.71-.04,1.27,.44,1.33,1.13,0,.05,0,.1,0,.15,0,.65,0,1.31-.01,1.96-.07,.01-.14,.02-.21,.03,.21,2.25,.4,4.5,.65,6.74"/><path class="cls-3" d="M167.11,148.45c.23,0,.58,.17,.62,.33,.06,.29,.03,.77-.16,.93-.44,.37-.99,.71-1.53,.86-1.06,.29-2.14,.45-3.21,.65-.47,.09-.79-.01-.91-.56-.69-3.16-.65-6.42-.46-9.7,.03-.46-.02-.91-.02-1.37,0-1,.65-1.57,1.64-1.42,.65,.1,1.46-.18,1.85,.58,.4,.78,.91,1.49,.51,2.53-.18,.48-.02,1.05-.05,1.57-.07,1.45-.16,2.89-.21,4.34-.02,.46,.08,.93,.12,1.38,.63-.05,1.22-.14,1.8-.13"/><path class="cls-3" d="M174.9,143.3c.33-1.43,.65-2.87,1.05-4.29,.12-.42-.33-1,.4-1.27,.44-.16,.87-.34,1.32-.49,.29-.1,.62-.22,.9-.2,.43,.05,.76,.2,1.04,.65,1.04,1.63,1.46,3.53,2.08,5.33,.55,1.59,1.06,3.2,1.62,4.78,.17,.48,.45,.92,.71,1.35,.28,.46,.22,.87-.23,1.22-.5,.39-.91,1.06-1.64,.85-.29-.08-.59-.37-.71-.65-.46-1.07-.81-2.19-1.28-3.25-.07-.17-.5-.23-.77-.22-.94,.02-1.19,.28-1.29,1.21-.07,.71-.15,1.41-.27,2.11-.25,1.47-1.94,2.28-3.22,1.77-1.2-.47-.72-1.53-.96-2.34-.06-.21,.03-.48,.05-.73-.03,0-.06,0-.09-.01,.43-1.94,.84-3.88,1.28-5.82m4.15-.19c-.06,.01-.11,.02-.17,.03-.13,.92-.26,1.85-.4,2.85,.45-.11,.82-.21,1.25-.32-.24-.89-.46-1.73-.68-2.56"/><path class="cls-3" d="M194.3,145.26c-.06,.2-.18,.43-.13,.6,.36,1.29,0,2.53-.53,3.76-.09,.22-.37,.48-.59,.53-.6,.12-1.21,.18-1.81,.17-.71-.01-1.09-.59-1.03-1.55,.08-1.25,.23-2.5,.35-3.75,.13-1.38,.29-2.76,.39-4.14,.04-.53,.27-.91,.68-1.22,1.15-.87,2.94-.3,3.18,1.03,.18,.98,.65,1.8,1.1,2.64,.36,.68,.63,1.4,.97,2.09,.16,.32,.38,.6,.58,.9,.06-.02,.11-.03,.16-.05-.04-.9-.12-1.81-.12-2.72,0-1.29,.02-2.58,.06-3.88,.02-.55,.4-.7,.89-.71,.53-.01,1,.37,.98,.94-.03,1.26-.11,2.51-.14,3.77-.04,1.59-.05,3.17-.11,4.76-.02,.43-.13,.88-.29,1.3-.29,.74-.93,.87-1.53,.43-.86-.63-.97-1.63-1.25-2.57-.24-.78-.62-1.51-.96-2.25-.15-.33-.37-.63-.53-.91-.12,.32-.23,.56-.31,.82"/><path class="cls-3" d="M206.38,151.53c-.67,.02-.94-.37-.92-.98,.12-3.08,.26-6.16,.37-9.24,.02-.4-.14-.8-.09-1.19,.17-1.32,1.33-2.12,2.66-2.24,1.48-.14,2.64,.42,3.52,1.28,1.34,1.32,2.32,2.91,2.67,4.93,.23,1.34-.14,2.53-.76,3.61-.72,1.26-1.76,2.37-3.24,2.88-.33,.11-.69,.19-.97,.38-.85,.59-1.75,.58-2.46,.57-.39,0-.59,0-.78,0m3.29-9.91c-.03,1.15-.14,2.32-.05,3.45,.11,1.28,.4,2.52,.62,3.82,.03,0,.19,0,.29-.06,1.19-.73,1.66-1.85,1.71-3.11,.09-2.12-1.01-3.6-2.46-4.96-.05,.35-.11,.61-.11,.86"/></g><g><path class="cls-1" d="M.37,138.45c-.45,.88-.55,1.79,.08,2.63,1.54,2.04,6.67,1.87,8.33,.17,1.05-1.07,1.17-2.53,1.84-3.77,.82-1.52,2.25-2.94,3.31-4.31,2.22-2.86,4.46-5.71,6.73-8.53,1.27-1.58,2.72-2.91,4.03-4.46,1.52-1.81,2.96-3.27,5.08-4.38,1.69-.89,3.56-1.36,4.86-2.84,1.12-1.28,1.61-2.98,2.87-4.16,1.46-1.36,2.8-2.91,4.32-4.22,2.02-1.74,4.77-3.32,4.96-5.98,.15-2.11-1.59-3.91-2.4-5.73-.74-1.67-2.33-4.47-4.33-2.35-2.16,2.29-3.63,5.06-5.42,7.62-1.82,2.62-3.78,5.15-5.96,7.49-.91,.98-1.85,1.92-2.77,2.88-2.52,2.63-5.24,5.36-7.18,8.45-4.18,6.67-9.31,12.45-15.01,17.84-.9,.85-2.59,2.21-3.34,3.67"/><path class="cls-2" d="M199.15,119.23c-1.38-2.12-2.51-4.39-3.94-6.48-1.89-2.29-3.58-4.49-5.96-6.34-.86-.67-1.9-1.61-2.95-1.97-1.15-.4-2.74,.3-3.78-.35-1.08-.67-1.38-1.74-2.08-2.73-.86-1.21-1.89-2.71-3.09-3.19-.76-.76-1.8-1.16-2.88-1.38-.39-.29-.77-.64-1.12-1.09-2.74-3.52-5.26-7.2-7.99-10.72-2.41-3.4-4.46-7.62-7.28-10.66-1.74-1.87-3.27-4.5-6.01-4.81-2.69-.31-4.59,2.3-6.45,3.79-1.86,1.49-4.78,1.85-6.35-.25-1.51-2.02-1.55-4.51-2.24-6.78-.81-2.68-1.7-4.4-3.81-6.43-1.09-1.05-2.55-1.77-4.07-1.89-.53-.04-1.64-.12-2.04,.31-.33,.36-.23,1.23-.31,1.69-.2,1.05-.65,2.05-1.23,2.94-4.09,6.25-13.1,7.02-19.67,8.82-1.26,.35-2.53,.69-3.72,1.24-.95,.43-1.84,.99-2.74,1.54-7.59,4.66-15.49,8.92-23.93,11.86-3.81,1.33-7.28,2.28-11.32,1.48-3.79-.75-7.43-2.83-10.27-5.42-3.73-3.4-4.87-8.47-5.75-13.23-.4-2.16-.51-4.31-.6-6.51-.13-3-.8-7.97,3.11-8.91,2.35-.56,4.13,.69,5.94,2.03,3.47,2.57,5.97,6.36,10.91,5.9,2.61-.25,6.85-2.58,5.16-5.64-1.44-2.61-4.13-4.16-5.19-7.08-.8-2.2-.63-4.65-1.14-6.93-.53-2.37-1.64-4.5-3.17-6.39-.82-1.01-1.76-1.93-2.84-2.66-1.57-1.06-3.36-1.73-5.14-2.38-.62-.23-2.1-.98-2.75-.64-.85,.44,.54,3.91,.07,5.07-.71,1.74-2.8,2.81-4.62,2.19-2-.68-3.18-3.24-5.36-3.3-1.39-.04-1.64,.27-2.95,.07-.96-.15-1.78-.76-2.68-1.12-1.52-.6-3.25-.45-4.82,.02-1.23,.37-2.36,1.13-3.58,1.45-.8,.21-1.58,0-2.35,.17,.64,1.67,1.83,3.27,3.49,4.03,2.11,.96,4.59,.41,6.69-.29,.96-.32,3.02-.92,3.95-.26,.95,.68,.65,2.62,.66,3.74,.03,3.19-.29,6.38-.64,9.55-.47,4.32-1.03,8.66-.87,13.01,.15,3.91-.11,7.68,.76,11.56,1.45,6.49,4.18,11.95,7.66,17.54,1.3,2.09,2.72,4.01,4.89,5.28,1.89,1.11,3.86,.55,3.28,3.21-.52,2.4-2.29,4.54-3.77,6.42-3.2,4.06-6.41,8.14-10.2,11.65-5.29,4.91-11.65,8.67-16.36,14.14-1.43,1.66-2.7,3.47-4.29,4.98-2.15,2.04-4.82,3.46-7.11,5.35-1.24,1.02-2.32,2.25-3.29,3.53-.55,.73-1.21,1.46-1.47,2.35-.12,.41-.18,.98,.07,1.37,.22,.35,.74,.59,1.09,.82,1.8,1.15,3.56,1.21,5.36,0,.52-.35,1.04-.68,1.56-1.03,.18-.12,.29-.32,.45-.46,.19-.16,.39-.28,.57-.47,.4-.45,.69-1.07,1.19-1.41,.64-.43,1.38-.7,2.03-1.13,.68-.45,1.3-.99,1.78-1.66,.27-.37,.49-.77,.75-1.15,.62-.9,1.38-1.71,2.13-2.51,.41-.44,.83-.89,1.24-1.33,.22-.23,.43-.46,.65-.69,.11-.12,.52-.42,.54-.58,2.46-2.63,5.9-4.39,8.76-6.62,3.17-2.47,6.42-6.22,10.37-7.19,.52-.13,1.04-.21,1.54-.4,2.21-.84,2.29-3.46,4.06-4.84,2.68-2.1,5.42-4.13,8.15-6.15,2.7-1.99,5.19-4.35,7.87-6.32,2.26-1.66,5.5-2.4,8.02-3.75,1.92-1.02,3.37-2.47,5.05-3.77,2.05-1.59,4.68-2.75,6.95-3.99,4.53-2.48,9.23-4.61,13.82-6.95,3.2-1.63,6.46-4.48,10.42-3.51,.8,.2,1.51,.65,2.21,1.09,3.15,2.01,5.6,4.61,8.48,6.96,.97,.79,1.92,1.57,2.71,2.55,.55,.68,.92,1.48,1.4,2.21,.22,.33,.5,.61,.73,.92,.31,.42,.54,.94,.82,1.39,.23,.38,.5,.67,.79,.9,.29,.5,.6,.98,.98,1.41,.15,.18,.3,.35,.45,.51,.47,1.6,.78,3.24,.91,4.9,.09,1.18,.1,2.37,.38,3.53,.28,1.15,.87,2.28,1.86,2.92,.65,.41,1.42,.59,2.18,.72,3.16,.56,6.14,.7,9.17,1.85,.32,.12,.64,.25,.91,.46,.25,.21,.44,.48,.61,.76,.77,1.26,1.32,2.65,1.61,4.09,.07,.36,.13,.73,.32,1.05,.39,.65,1.22,.88,1.97,.89,1.06,.01,5.37,.25,5.59-1.05,.16-.96-.89-2.04-1.46-2.7-.64-.75-.86-1.43-1.4-2.28-1.37-2.17-3.31-4.16-5.01-6.09-.45-.52-.93-1.04-1.28-1.63-.3-.51-.35-1.06-.58-1.58-.08-.19-.24-.33-.39-.46-1.31-1.1-3.07-1.35-4.31-2.42-1.41-1.21-3.03-2.28-4.27-3.68-.99-1.11-2.75-2.84-3.36-4.18-.02-.05-.05-.11-.07-.16-.13-.28-.21-.56-.37-.83-.72-1.2-1.41-2.41-2.14-3.61,1.87-.98,3.68-2.45,5.02-3.83,1.23-1.27,2.29-2.69,3.47-4.01,1.63-1.81,3.48-3.4,5.42-4.89,1.32-1.01,3.38-2.09,4.97-.92,1.31,.96,3.97,2.76,4.73,4.07,1.81,3.12,4.31,5.73,6.56,8.53,2.1,2.61,3.48,6.05,5.88,8.37,1.53,1.48,2.48,3.23,3.96,4.68,1.57,1.54,3.32,2.9,4.84,4.07,1.84,1.41,3.31,3.66,4.75,5.45,.96,1.2,1.97,2.4,2.83,3.68,.81,1.21,.96,3.08,2.6,3.57,.37,.11,.77,.11,1.16,.11,2.35,0,4.7,.01,7.04-.18,1.17-.1,3.58,.22,4.1-1.18,.08-.21,.11-.45,.1-.74-.05-.86-1.21-1.88-1.68-2.59M52.39,43.79c.38-.93,1.53-1.35,2.46-1.43,1.1-.1,2.04,.5,2.24,1.64,.06,.33,.15,.83,.18,1.34,.04,.82-.09,1.64-.85,1.78-.26,.05-.53,.03-.79,0-1.44-.2-4-1.45-3.23-3.32"/><path class="cls-1" d="M138.7,42.86c-1.71,1.19,.47,5.49-3.08,8.15-1.67,1.25-3.62,1.84-5.68,1.98-2.43,.17-3.7,.32-4.86,2.45-.52,.96-1.11,1.87-1.68,2.8-.53,.85-1.07,1.23-1.81,1.87-2.55,2.2-5.3,4.17-8.61,4.82-3.81,.75-7.5,2.24-11.13,3.59-5.18,1.93-8.92,5.71-13.69,8.33-3.39,1.86-7.2,3.54-10.84,4.85-4.49,1.62-9.08,3.4-13.97,2.16-3.03-.77-5.43-2.77-7.83-4.66-2.16-1.7-2.82-4.37-3.62-6.93-1.08-3.46-2.17-7-2.08-10.63,.04-1.58-.14-3.63,.76-4.92,1.02-1.47,2.64-.58,4.05,.29,3.8,2.34,2.09,5.72,3.93,9.14,.79,1.47,2.05,2.76,3.66,3.2,2.43,.67,6.28-.8,8.37-2.08,2.75-1.69,4.95-4.11,7.49-6.07,2.11-1.64,4.45-2.95,6.8-4.24,5.64-3.1,9.82-6.8,16.05-8.89,3.94-1.32,8.04-2.53,12.22-2.62,2.06-.05,4.17,.2,6.09,.98,1.36,.55,2.98,1.63,4.48,.95,1.23-.55,2.33-2.39,3.46-3.24,3.22-2.43,7.19-3.34,11.16-2.67,0,0,2.07,.19,.36,1.38m-57.62,22.27c.78-.1,1.72-.39,2.61-.84,.88-.47,1.66-1.11,2.17-1.71,.52-.59,.76-1.16,.76-1.16,0,0-.61-.09-1.39,.04-.78,.11-1.73,.41-2.59,.86-.86,.46-1.66,1.09-2.18,1.7-.53,.59-.77,1.16-.77,1.16,0,0,.61,.08,1.38-.03m10.45,.68c.78-.1,1.72-.39,2.61-.84,.88-.47,1.66-1.11,2.17-1.71,.52-.59,.76-1.16,.76-1.16,0,0-.61-.09-1.39,.04-.78,.11-1.73,.41-2.59,.86-.86,.46-1.66,1.09-2.18,1.7-.53,.59-.77,1.16-.77,1.16,0,0,.61,.08,1.38-.03m2.68-8.73c.78-.1,1.72-.39,2.61-.84,.88-.47,1.66-1.11,2.17-1.71,.52-.59,.76-1.16,.76-1.16,0,0-.61-.09-1.39,.04-.78,.11-1.73,.41-2.59,.86-.86,.46-1.66,1.09-2.18,1.7-.53,.59-.77,1.16-.77,1.16,0,0,.61,.08,1.38-.03m8.48,2.95c.78-.1,1.72-.39,2.61-.84,.88-.47,1.66-1.11,2.17-1.71,.52-.59,.76-1.16,.76-1.16,0,0-.61-.09-1.39,.04-.78,.11-1.73,.41-2.59,.86-.86,.46-1.66,1.09-2.18,1.7-.53,.59-.77,1.16-.77,1.16,0,0,.61,.08,1.38-.03m10.1,.69c.78-.08,1.74-.32,2.64-.74,.89-.44,1.7-1.05,2.23-1.63,.54-.57,.81-1.13,.81-1.13,0,0-.61-.11-1.39-.02-.79,.08-1.74,.35-2.62,.76-.88,.43-1.7,1.03-2.24,1.61-.55,.57-.81,1.13-.81,1.13,0,0,.61,.11,1.38,.02m-4.89-8.93c.79,.02,1.76-.1,2.71-.41,.94-.32,1.82-.83,2.42-1.34,.61-.5,.94-1.02,.94-1.02,0,0-.59-.19-1.37-.19-.79-.02-1.77,.13-2.7,.43-.92,.32-1.82,.81-2.42,1.32-.61,.5-.95,1.02-.95,1.02,0,0,.59,.18,1.37,.19m-25.17,23.48c.78-.11,1.72-.39,2.61-.85,.87-.47,1.66-1.11,2.17-1.72,.52-.59,.76-1.16,.76-1.16,0,0-.61-.09-1.39,.04-.78,.11-1.72,.42-2.59,.87-.86,.46-1.66,1.09-2.17,1.7-.53,.59-.77,1.16-.77,1.16,0,0,.61,.08,1.38-.04m-8.98-1.84c.78-.11,1.72-.39,2.6-.85,.88-.47,1.66-1.11,2.17-1.72,.52-.59,.76-1.16,.76-1.16,0,0-.61-.09-1.39,.04-.78,.11-1.72,.42-2.59,.87-.86,.46-1.66,1.09-2.17,1.7-.53,.59-.77,1.16-.77,1.16,0,0,.61,.08,1.38-.04"/><path class="cls-1" d="M55.33,26.77c-.41,.24-.86,.38-1.32,.36-2.33-.1-3.54-1.66-4.33-3.56-.42-1-.78-2.01-1.2-3-.46-1.09-.64-2.3-1.1-3.4-.46-1.11-.89-2.23-1.25-3.37-.49-1.59-.63-3.08-.92-4.68-.29-1.65-1.02-3.44,0-5.01,.23-.35,.61-.62,1.03-.61,.56,.01,1,.51,1.24,1.02,.83,1.78,.53,4.12,.87,6.02,.39,2.2,.97,4.36,1.72,6.46,.51,1.43,1.24,2.81,1.63,4.28,.36,1.38,2.11,1.49,2.56,.05,.18-.57,.12-1.19,.12-1.78-.01-.8,.06-1.61,.22-2.39,.05-.27,.13-.55,.32-.74,.43-.43,1.27-.54,1.73-.16,.63,.52,.91,1.45,.97,2.23,.15,1.72-.22,3.76-.41,5.49-.12,1.04-.89,2.22-1.88,2.79"/><path class="cls-1" d="M32.88,15.8c.57-.15,1.17,0,1.4,.66,.59,1.7,1.52,3.28,2.77,4.58,.71,.74,2.44,2.75,3.43,1.08,.18-.3,.17-.68,.12-1.03-.12-.82-.46-1.58-.76-2.35-1.91-4.79-2.68-9.99-2.57-15.14,.01-.63,.04-1.27,.21-1.88,.2-.68,.84-1.47,1.56-1.67,1.79-.5,1.66,3.11,1.66,4.06-.01,2.03,.11,4.06,.38,6.07,.66,4.8,2.18,9.48,4.48,13.75,.92,1.7,1.95,3.35,3.02,4.96,.78,1.18,2.32,2.74,1.76,4.29-.08,.23-.21,.44-.4,.59-.29,.21-.68,.23-1.03,.15-1.79-.4-2.85-2.83-4.07-4.04-1.63-1.61-3.8-2.53-5.82-3.63-1.4-.76-2.99-1.42-4.24-2.42-.65-.52-1.17-1.17-1.68-1.82-.58-.74-1.17-1.51-1.42-2.42-.15-.55-.17-1.12-.15-1.69,0-.42,.04-.85,.22-1.23,.2-.41,.66-.74,1.14-.87"/></g></svg>